<?xml version="1.0" encoding="UTF-8"?>
<svg width="29px" height="20px" viewBox="0 0 29 20" version="1.1" xmlns="http://www.w3.org/2000/svg" xmlns:xlink="http://www.w3.org/1999/xlink">
    <title>ic_contact_inactive</title>
    <g id="Symbols" stroke="none" stroke-width="1" fill="none" fill-rule="evenodd">
        <g id="Elements/Icons/Sidemenu/Contact-Inactive" transform="translate(-19.000000, -15.000000)" fill="#FFFFFF" fill-rule="nonzero">
            <g id="Group-10" transform="translate(19.000000, 15.000000)">
                <path d="M28.4693387,1.28645335 C28.7675643,1.74106208 28.9263594,2.27315213 28.9263594,2.81691603 L28.9263594,2.81691603 L28.9263594,17.1829858 C28.9243452,17.9283561 28.627695,18.6428372 28.1010803,19.170485 C27.5746206,19.6981431 26.860966,19.9963681 26.1155957,20 L26.1155957,20 L2.81076426,20 C2.06539396,19.9963326 1.3516877,19.6981328 0.825279612,19.170485 C0.298623585,18.6428372 0.00201796377,17.9283561 0,17.1829858 L0,17.1829858 L0,2.81691603 C0,2.33849471 0.122880455,1.86834839 0.357142643,1.45128194 L0.357142643,1.45128194 L14.068237,10.585813 L14.072676,10.5886378 C14.0924527,10.6017534 14.1128318,10.6130527 14.1326055,10.6237467 L14.1326055,10.6237467 L14.1489495,10.6322211 C14.1711437,10.6437219 14.1939439,10.6538105 14.21735,10.6626888 C14.2421657,10.672374 14.2673879,10.6804449 14.2932149,10.6871037 C14.2960395,10.687709 14.3004785,10.6905339 14.3004785,10.6905339 C14.3255003,10.697596 14.350924,10.7034476 14.3767511,10.7078866 L14.3767511,10.7078866 C14.3793743,10.7080884 14.3828043,10.7159574 14.3862345,10.7159574 C14.4114573,10.7234235 14.4372844,10.7296783 14.4631115,10.7345208 C14.4907516,10.7286695 14.518194,10.7214058 14.5450299,10.7125275 C14.5482583,10.7119221 14.5516883,10.6971924 14.5551185,10.6971924 C14.5811475,10.693964 14.6071761,10.6893229 14.6325998,10.6830681 L14.6325998,10.6830681 C14.6644777,10.6766113 14.6896994,10.6687423 14.7145177,10.6594606 C14.7381278,10.6503808 14.7613319,10.6398888 14.7841324,10.6283875 L14.7841324,10.6283875 L14.8004763,10.6199131 C14.8216612,10.6084117 14.8424443,10.5961036 14.8626215,10.5825846 L14.8626215,10.5825846 L14.8672347,10.5795629 Z M26.1159051,0 C26.5589949,0.000805805727 26.9956228,0.107342621 27.3892847,0.310731085 L27.3892847,0.310731085 L14.4590988,9.14515118 L1.35184215,0.414039512 C1.79069634,0.144068766 2.29574025,0.000605335725 2.81107367,0 L2.81107367,0 Z" id="ic_contact_inactive"></path>
            </g>
        </g>
    </g>
</svg>