<svg width="23" height="20" viewBox="0 0 23 20" fill="none" xmlns="http://www.w3.org/2000/svg">
<path fill-rule="evenodd" clip-rule="evenodd" d="M4.3582 16.4973L3.39562 18.5027C3.20837 18.877 3.28875 19.3315 3.55603 19.6523C3.76995 19.8663 4.03722 20 4.33134 20C4.43821 20 4.57194 19.9733 4.67899 19.9465L9.30484 18.2889C9.97329 18.3958 10.6684 18.4493 11.3637 18.4493C17.6205 18.4493 22.7275 14.3049 22.7275 9.22467C22.7273 4.14442 17.6205 0 11.3637 0C5.10699 0 0 4.14446 0 9.22467C0 12.0588 1.63096 14.7594 4.3582 16.4973ZM11.365 1.60416C16.7394 1.60416 21.1245 5.02664 21.1245 9.22454C21.1247 13.4223 16.7396 16.8449 11.365 16.8449C10.6966 16.8449 10.0548 16.7914 9.4132 16.6845C9.2528 16.6578 9.06555 16.6845 8.90513 16.738L5.42912 17.9681L6.01736 16.7114C6.25796 16.2302 6.07089 15.6151 5.58951 15.3478C3.07607 13.904 1.60547 11.6046 1.60547 9.19802C1.60566 5.02672 5.99072 1.60438 11.3649 1.60438L11.365 1.60416ZM16.5777 7.32613H6.14985C5.69531 7.32613 5.34766 6.97847 5.34766 6.52393C5.34766 6.06939 5.69532 5.72174 6.14985 5.72174H16.5777C17.0323 5.72174 17.3799 6.06939 17.3799 6.52393C17.3799 6.97847 17.0323 7.32613 16.5777 7.32613ZM6.14985 10.2674H13.9039C14.3584 10.2674 14.7061 9.9197 14.7061 9.46516C14.7061 9.01062 14.3585 8.66296 13.9039 8.66296H6.14985C5.69532 8.66296 5.34766 9.01062 5.34766 9.46516C5.34766 9.9197 5.69531 10.2674 6.14985 10.2674ZM11.2301 13.2085H6.14985C5.69531 13.2085 5.34766 12.8611 5.34766 12.4063C5.34766 11.9518 5.69532 11.6042 6.14985 11.6042H11.2301C11.6846 11.6042 12.0323 11.9518 12.0323 12.4063C12.0323 12.8609 11.6846 13.2085 11.2301 13.2085Z" fill="white"/>
</svg>
