<svg width="27" height="27" viewBox="0 0 27 27" fill="none" xmlns="http://www.w3.org/2000/svg">
<g filter="url(#filter0_d_103_8012)">
<path d="M18.25 10.0168V16.5864C18.25 16.5966 18.2459 16.6065 18.2386 16.6137C18.2314 16.621 18.2215 16.6251 18.2113 16.6251H6.4136C6.4034 16.6251 6.39346 16.621 6.3863 16.6137C6.37901 16.6065 6.3749 16.5966 6.3749 16.5864V4.78872C6.3749 4.77851 6.37901 4.76857 6.3863 4.76142C6.39346 4.75413 6.4034 4.75002 6.4136 4.75002H12.9835C13.0765 4.75002 13.1655 4.71318 13.2313 4.64744L15.3412 2.53762H15.3411C15.3684 2.51032 15.3765 2.46937 15.3618 2.43385C15.347 2.39819 15.3123 2.375 15.2737 2.375H5.58338C5.16338 2.375 4.76075 2.54186 4.46374 2.83874C4.16686 3.13575 4 3.53838 4 3.95838V17.4165C4 17.8365 4.16686 18.2392 4.46374 18.5362C4.76075 18.833 5.16338 18.9999 5.58338 18.9999H19.0415C19.4615 18.9999 19.8642 18.833 20.1612 18.5362C20.458 18.2392 20.6249 17.8365 20.6249 17.4165V7.7265C20.6249 7.68793 20.6017 7.65321 20.5661 7.6385C20.5305 7.62378 20.4896 7.63187 20.4623 7.65917L18.3525 9.76886C18.2869 9.83459 18.2499 9.92366 18.2499 10.0166L18.25 10.0168Z" fill="white"/>
<path d="M22.623 1.28729C22.8645 1.52877 23 1.85627 23 2.19766C23 2.53905 22.8645 2.86643 22.623 3.1079L22.0384 3.69239L12.0322 13.6986C11.8173 13.9135 11.5333 14.0455 11.2306 14.0712L9.13801 14.2486C9.03304 14.2575 8.9294 14.2197 8.85479 14.1451C8.78017 14.0705 8.7424 13.9669 8.75128 13.8619L8.92874 11.7693C8.95445 11.4665 9.08645 11.1826 9.30128 10.9677L19.8921 0.376917L19.892 0.377049C20.1335 0.135572 20.4608 0 20.8022 0C21.1436 0 21.4711 0.135582 21.7126 0.377049L22.623 1.28729Z" fill="white"/>
</g>
<defs>
<filter id="filter0_d_103_8012" x="0" y="0" width="27" height="26.9999" filterUnits="userSpaceOnUse" color-interpolation-filters="sRGB">
<feFlood flood-opacity="0" result="BackgroundImageFix"/>
<feColorMatrix in="SourceAlpha" type="matrix" values="0 0 0 0 0 0 0 0 0 0 0 0 0 0 0 0 0 0 127 0" result="hardAlpha"/>
<feOffset dy="4"/>
<feGaussianBlur stdDeviation="2"/>
<feComposite in2="hardAlpha" operator="out"/>
<feColorMatrix type="matrix" values="0 0 0 0 0 0 0 0 0 0 0 0 0 0 0 0 0 0 0.25 0"/>
<feBlend mode="normal" in2="BackgroundImageFix" result="effect1_dropShadow_103_8012"/>
<feBlend mode="normal" in="SourceGraphic" in2="effect1_dropShadow_103_8012" result="shape"/>
</filter>
</defs>
</svg>
