<svg width="18" height="18" viewBox="0 0 18 18" fill="none" xmlns="http://www.w3.org/2000/svg">
<path d="M15.8611 12.4209C16.841 11.4418 17.5189 10.2018 17.814 8.84834C18.109 7.49492 18.0089 6.08521 17.5254 4.7871C17.042 3.489 16.1956 2.35721 15.0871 1.52654C13.9786 0.695865 12.6547 0.201321 11.273 0.101807C9.89139 0.00229213 8.51027 0.302001 7.29415 0.965237C6.07804 1.62847 5.07819 2.62728 4.41369 3.84271C3.74919 5.05813 3.44805 6.43894 3.54613 7.82067C3.6442 9.20241 4.13737 10.5268 4.96689 11.6362L3.93891 12.6642L2.23574 10.961C2.04216 10.7674 1.77959 10.6587 1.50582 10.6587C1.23204 10.6587 0.969478 10.7674 0.77589 10.961C0.582301 11.1546 0.473544 11.4172 0.473544 11.691C0.473544 11.9647 0.582301 12.2273 0.77589 12.4209L2.47905 14.124L1.26251 15.3406C1.06892 15.5342 0.960163 15.7967 0.960162 16.0705C0.960163 16.3443 1.06892 16.6069 1.26251 16.8004C1.4561 16.994 1.71866 17.1028 1.99244 17.1028C2.26621 17.1028 2.52877 16.994 2.72236 16.8004L3.93891 15.5839L5.64207 17.2871C5.83566 17.4807 6.09822 17.5894 6.372 17.5894C6.64578 17.5894 6.90834 17.4807 7.10193 17.2871C7.29552 17.0935 7.40427 16.8309 7.40427 16.5571C7.40427 16.2834 7.29552 16.0208 7.10193 15.8272L5.39876 14.124L6.42675 13.0961C7.81787 14.1363 9.53714 14.6405 11.2697 14.5165C13.0023 14.3925 14.6322 13.6486 15.8611 12.4209ZM7.10193 3.66175C7.82376 2.93992 8.74343 2.44835 9.74463 2.24919C10.7458 2.05004 11.7836 2.15225 12.7267 2.54291C13.6699 2.93356 14.4759 3.5951 15.0431 4.44388C15.6102 5.29267 15.9129 6.29056 15.9129 7.31139C15.9129 8.33221 15.6102 9.33011 15.0431 10.1789C14.4759 11.0277 13.6699 11.6892 12.7267 12.0799C11.7836 12.4705 10.7458 12.5727 9.74463 12.3736C8.74343 12.1744 7.82376 11.6829 7.10193 10.961C6.13398 9.99308 5.5902 8.68027 5.5902 7.31139C5.5902 5.94251 6.13398 4.62969 7.10193 3.66175Z" fill="white"/>
</svg>
