<svg width="112" height="83" viewBox="0 0 112 83" fill="none" xmlns="http://www.w3.org/2000/svg">
<path opacity="0.4" fill-rule="evenodd" clip-rule="evenodd" d="M99.6118 6.92873C99.6854 6.32265 99.7353 5.67627 99.7513 4.98706C99.7725 4.22063 99.7513 3.48526 99.704 2.77766C99.4554 -0.860616 94.0989 -0.954527 93.7124 2.67189C93.7124 2.73587 93.7038 2.80019 93.6953 2.86506L93.6952 2.86518L93.6952 2.86561C93.6902 2.9027 93.6853 2.93997 93.6819 2.97745C93.5551 4.23832 93.5365 5.50748 93.6253 6.77175C93.8806 10.384 99.1739 10.525 99.6117 6.92873L99.6118 6.92873ZM18.3885 6.77096C18.1282 10.384 12.84 10.5249 12.4021 6.92878L12.402 6.92878C12.3284 6.33192 12.2794 5.6763 12.2625 4.98711C12.2414 4.22073 12.26 3.48284 12.3098 2.77771C12.5585 -0.853728 17.9159 -0.954517 18.3014 2.67194C18.3047 2.70764 18.3095 2.74345 18.3143 2.7794L18.3143 2.77944C18.3231 2.84492 18.3319 2.91086 18.3319 2.97751C18.4587 4.23833 18.4773 5.50758 18.3885 6.7718V6.77096ZM21.5156 82.707C18.499 82.7297 15.5045 82.1933 12.6859 81.1255L12.6849 81.1255C4.75479 78.0698 -0.268723 70.2285 0.0111192 61.7752C0.23601 55.2903 0.685769 48.112 1.14062 41.8925C1.2709 40.0801 3.85367 39.8644 4.3009 41.6247C4.59174 42.7647 4.89017 43.7427 5.17423 44.5721C6.22261 47.5833 10.5426 47.4918 11.4303 44.4361L11.4447 44.3916C11.5182 44.1272 11.5563 43.8535 11.558 43.579C11.623 37.4804 12.1768 31.3969 13.215 25.3864L13.2141 25.3872C13.7916 22.0662 18.6418 22.1956 19.0231 25.545C21.2932 45.6197 26.719 46.3064 26.719 46.3064L26.7732 46.3294C26.8991 46.3829 27.0234 46.4357 27.1477 46.4827C31.7332 48.2874 36.7728 45.1211 37.2724 40.2488L37.8574 34.5464C38.078 32.3974 41.1004 32.1229 41.7328 34.1888C46.27 49.0414 56.0043 48.2397 56.0043 48.2397C56.0043 48.2397 65.7384 49.0413 70.2758 34.1787C70.9082 32.1129 73.9314 32.3882 74.1512 34.5363L74.726 40.248C75.2256 45.1211 80.2651 48.2867 84.8508 46.4818C84.975 46.4349 85.0992 46.3821 85.2251 46.3286L85.2252 46.3286L85.2252 46.3286L85.2794 46.3055C85.2794 46.3055 90.7053 45.6198 92.9778 25.5442C93.3565 22.1946 98.2067 22.0655 98.7841 25.3864C99.8223 31.3967 100.376 37.4803 100.441 43.579C100.443 43.8535 100.481 44.1272 100.554 44.3916V44.3924L100.569 44.4369C101.456 47.4943 105.788 47.5841 106.825 44.5729C107.109 43.741 107.407 42.7655 107.698 41.6256C108.146 39.8652 110.728 40.081 110.858 41.8933C111.313 48.113 111.763 55.2911 111.988 61.776C112.279 70.2285 107.254 78.0698 99.3141 81.1255C96.4954 82.1933 93.5011 82.7297 90.4845 82.707H64.4136C63.5284 82.7078 62.7202 82.2118 62.3245 81.426C61.9289 80.6402 62.0143 79.7 62.5452 78.9983C62.9485 78.4593 63.5682 78.1227 64.2428 78.0765C67.7658 77.8414 79.277 76.3045 83.1381 66.5591C83.3528 65.9958 83.8567 65.5921 84.4561 65.5022C85.0555 65.4116 85.6574 65.65 86.0303 66.1243C86.6939 66.999 87.4269 67.82 88.2225 68.578C88.8777 69.1849 89.7578 69.493 90.6514 69.4292C91.545 69.3654 92.3719 68.9356 92.9332 68.2422C93.9368 67.0083 94.7467 65.2169 93.9866 62.9772C93.3711 61.2545 92.0608 59.8644 90.3699 59.1407C86.3573 57.3586 75.5937 53.612 56.0054 53.612C36.4171 53.612 25.6652 57.3594 21.6409 59.1407C19.951 59.8637 18.6406 61.2546 18.0268 62.9772C17.2642 65.2169 18.0742 67.0082 19.0777 68.2422C19.639 68.9356 20.4659 69.3654 21.3595 69.4292C22.2531 69.493 23.1333 69.1849 23.7884 68.578C24.584 67.82 25.317 66.999 25.9806 66.1243C26.3535 65.65 26.9554 65.4116 27.5548 65.5022C28.1542 65.5921 28.6581 65.9958 28.8728 66.5591C32.7339 76.3044 44.2462 77.8415 47.7681 78.0765C48.4427 78.1227 49.0624 78.4593 49.4657 78.9983C49.9966 79.7001 50.082 80.6403 49.6864 81.426C49.2907 82.2117 48.4825 82.7078 47.5973 82.707H21.5156ZM62.3629 68.303C64.2636 67.9151 66.5293 67.3208 68.2286 66.4629L68.2283 66.4629C68.7305 66.2052 69.0061 65.6536 68.9089 65.1004C68.8125 64.5481 68.3653 64.1208 67.8048 64.0469C65.3286 63.7229 59.6212 63.5181 56.0045 63.5181C52.3877 63.5181 46.6803 63.7229 44.2041 64.0469C43.5236 64.1376 43.0332 64.7403 43.0865 65.4194C43.1186 65.8643 43.3815 66.2597 43.7806 66.4629V66.4637C45.48 67.3217 47.7525 67.916 49.6462 68.3038C49.8973 68.3517 50.0731 68.5783 50.0545 68.8318C50.0359 69.0853 49.8288 69.2843 49.5726 69.2952C46.5366 69.4429 43.4923 69.3095 40.4809 68.8981C39.8139 68.8133 39.1545 68.674 38.5111 68.4801C34.6119 67.2713 34.6998 61.7946 38.6362 60.7067C46.2781 58.5938 56.0046 58.6785 56.0046 58.6785C56.0046 58.6785 65.7319 58.5912 73.3729 60.7067C77.3091 61.7956 77.3988 67.2721 73.4981 68.4801C72.8547 68.674 72.1953 68.8133 71.5282 68.8981C68.5168 69.3095 65.4723 69.4429 62.4365 69.2952C62.1803 69.2843 61.9732 69.0853 61.9546 68.8318C61.936 68.5783 62.1118 68.3517 62.3629 68.3038V68.303Z" fill="url(#paint0_linear_121_12211)"/>
<defs>
<linearGradient id="paint0_linear_121_12211" x1="0" y1="0" x2="0" y2="82.7077" gradientUnits="userSpaceOnUse">
<stop stop-color="#72C2F5"/>
<stop offset="1" stop-color="#4CA6E0"/>
</linearGradient>
</defs>
</svg>
