<svg width="111" height="62" viewBox="0 0 111 62" fill="none" xmlns="http://www.w3.org/2000/svg">
<g opacity="0.4" filter="url(#filter0_d_320_19715)">
<path fill-rule="evenodd" clip-rule="evenodd" d="M57.3448 56.8741C57.3037 56.8765 57.2626 56.879 57.2214 56.8815H57.2215H57.2216C57.2627 56.879 57.3037 56.8765 57.3448 56.8741ZM53.1147 56.8815C53.0735 56.879 53.0324 56.8765 52.9913 56.8741C53.0323 56.8765 53.0734 56.879 53.1145 56.8815H53.1146H53.1147ZM82.0443 6C90.5607 11.5764 98.2198 18.3749 104.781 26.1784L104.781 26.1774C105.519 27.0106 105.519 28.2674 104.781 29.1C98.0411 36.8752 90.1736 43.5837 81.4453 49C91.547 36.5454 91.795 18.7348 82.0443 6ZM21.1418 27.1051C21.1452 19.4697 23.6578 12.05 28.2903 6C19.7744 11.5762 12.1148 18.374 5.55329 26.178C4.81557 27.0111 4.81557 28.2679 5.55329 29.1005C12.2937 36.8754 20.1605 43.5838 28.8889 49C23.8703 42.8207 21.1322 35.0851 21.1413 27.1062L21.1418 27.1051Z" fill="url(#paint0_linear_320_19715)"/>
</g>
<path opacity="0.4" fill-rule="evenodd" clip-rule="evenodd" d="M55 56C70.464 56 83 43.464 83 28C83 12.536 70.464 0 55 0C39.536 0 27 12.536 27 28C27 43.464 39.536 56 55 56ZM54.3712 44.2222C45.5754 44.2222 38.4453 37.092 38.4453 28.2956C38.4453 19.5001 45.5758 12.3704 54.3712 12.3704C63.1667 12.3704 70.2972 19.5005 70.2972 28.2956C70.2877 37.0872 63.1627 44.2122 54.3712 44.2222ZM54.3689 17.1481C48.2117 17.1481 43.2207 22.1393 43.2207 28.296C43.2207 34.4533 48.2117 39.4444 54.3689 39.4444C60.526 39.4444 65.517 34.4533 65.517 28.296C65.5148 22.1404 60.5249 17.1504 54.3689 17.1481Z" fill="url(#paint1_linear_320_19715)"/>
<defs>
<filter id="filter0_d_320_19715" x="0" y="1" width="110.334" height="60.8815" filterUnits="userSpaceOnUse" color-interpolation-filters="sRGB">
<feFlood flood-opacity="0" result="BackgroundImageFix"/>
<feColorMatrix in="SourceAlpha" type="matrix" values="0 0 0 0 0 0 0 0 0 0 0 0 0 0 0 0 0 0 127 0" result="hardAlpha"/>
<feOffset/>
<feGaussianBlur stdDeviation="2.5"/>
<feColorMatrix type="matrix" values="0 0 0 0 0.641864 0 0 0 0 1 0 0 0 0 0.990608 0 0 0 0.5 0"/>
<feBlend mode="normal" in2="BackgroundImageFix" result="effect1_dropShadow_320_19715"/>
<feBlend mode="normal" in="SourceGraphic" in2="effect1_dropShadow_320_19715" result="shape"/>
</filter>
<linearGradient id="paint0_linear_320_19715" x1="5" y1="6" x2="5" y2="56.8815" gradientUnits="userSpaceOnUse">
<stop stop-color="#72C2F5"/>
<stop offset="1" stop-color="#4CA6E0"/>
</linearGradient>
<linearGradient id="paint1_linear_320_19715" x1="27" y1="0" x2="27" y2="56" gradientUnits="userSpaceOnUse">
<stop stop-color="#72C2F5"/>
<stop offset="1" stop-color="#4CA6E0"/>
</linearGradient>
</defs>
</svg>
