<svg width="65" height="103" viewBox="0 0 65 103" fill="none" xmlns="http://www.w3.org/2000/svg">
<g opacity="0.4" filter="url(#filter0_d_120_12188)">
<path d="M55.6584 37.442C52.5306 37.442 51.4817 40.288 51.3161 40.8063L51.3171 53.6629C51.3171 54.2611 50.6689 54.7446 49.8693 54.7446C49.0707 54.7446 48.4215 54.2611 48.4215 53.6629V14.7327C48.4215 13.4511 46.476 11.4884 44.0792 11.4884C42.484 11.4884 39.7368 13.0913 39.7368 14.7327V38.5234C39.7368 39.12 39.0886 39.6051 38.289 39.6051C37.4904 39.6051 36.8412 39.1208 36.8412 38.5234L36.8433 8.24437C36.8433 6.78326 34.8402 5 32.5009 5C30.305 5 28.1585 6.85789 28.1585 8.24437V38.5234C28.1585 39.12 27.5104 39.6051 26.7108 39.6051C25.9122 39.6051 25.263 39.1208 25.263 38.5234L25.264 12.5699C25.264 10.9285 22.5168 9.32557 20.9216 9.32557C18.5248 9.32557 16.5793 11.2883 16.5793 12.5699V45.0117C16.5793 45.6084 15.9311 46.0934 15.1315 46.0934C14.3329 46.0934 13.6837 45.6092 13.6837 45.0117L13.6847 23.3839C13.6847 21.7425 10.9376 20.1395 9.34236 20.1395C6.94557 20.1395 5 22.1022 5 23.3839V55.8257C5 60.0333 6.051 65.1303 6.89603 69.2276C7.45331 71.9342 7.89554 74.0711 7.89554 75.2907V98H48.4218L48.4208 75.2907C48.4208 73.6765 50.5278 71.8239 53.9655 68.9356C56.654 66.6757 60 63.8651 60 62.3142V40.6864C60 40.5536 59.9505 37.442 55.6576 37.442H55.6584Z" fill="url(#paint0_linear_120_12188)"/>
</g>
<defs>
<filter id="filter0_d_120_12188" x="0" y="0" width="65" height="103" filterUnits="userSpaceOnUse" color-interpolation-filters="sRGB">
<feFlood flood-opacity="0" result="BackgroundImageFix"/>
<feColorMatrix in="SourceAlpha" type="matrix" values="0 0 0 0 0 0 0 0 0 0 0 0 0 0 0 0 0 0 127 0" result="hardAlpha"/>
<feOffset/>
<feGaussianBlur stdDeviation="2.5"/>
<feColorMatrix type="matrix" values="0 0 0 0 0.641864 0 0 0 0 1 0 0 0 0 0.990608 0 0 0 0.5 0"/>
<feBlend mode="normal" in2="BackgroundImageFix" result="effect1_dropShadow_120_12188"/>
<feBlend mode="normal" in="SourceGraphic" in2="effect1_dropShadow_120_12188" result="shape"/>
</filter>
<linearGradient id="paint0_linear_120_12188" x1="5" y1="5" x2="5" y2="98" gradientUnits="userSpaceOnUse">
<stop stop-color="#72C2F5"/>
<stop offset="1" stop-color="#4CA6E0"/>
</linearGradient>
</defs>
</svg>
