<svg width="65" height="103" viewBox="0 0 65 103" fill="none" xmlns="http://www.w3.org/2000/svg">
<g opacity="0.4" filter="url(#filter0_d_120_12191)">
<path d="M9.34156 37.442C12.4694 37.442 13.5183 40.288 13.6839 40.8063L13.6829 53.6629C13.6829 54.2611 14.3311 54.7446 15.1307 54.7446C15.9293 54.7446 16.5785 54.2611 16.5785 53.6629V14.7327C16.5785 13.4511 18.524 11.4884 20.9208 11.4884C22.516 11.4884 25.2632 13.0913 25.2632 14.7327V38.5234C25.2632 39.12 25.9114 39.6051 26.711 39.6051C27.5096 39.6051 28.1588 39.1208 28.1588 38.5234L28.1567 8.24437C28.1567 6.78326 30.1598 5 32.4991 5C34.695 5 36.8415 6.85789 36.8415 8.24437V38.5234C36.8415 39.12 37.4896 39.6051 38.2892 39.6051C39.0878 39.6051 39.737 39.1208 39.737 38.5234L39.736 12.5699C39.736 10.9285 42.4832 9.32557 44.0784 9.32557C46.4752 9.32557 48.4207 11.2883 48.4207 12.5699V45.0117C48.4207 45.6084 49.0689 46.0934 49.8685 46.0934C50.6671 46.0934 51.3163 45.6092 51.3163 45.0117L51.3153 23.3839C51.3153 21.7425 54.0624 20.1395 55.6576 20.1395C58.0544 20.1395 60 22.1022 60 23.3839V55.8257C60 60.0333 58.949 65.1303 58.104 69.2276C57.5467 71.9342 57.1045 74.0711 57.1045 75.2907V98H16.5782L16.5792 75.2907C16.5792 73.6765 14.4722 71.8239 11.0345 68.9356C8.346 66.6757 5 63.8651 5 62.3142V40.6864C5 40.5536 5.04947 37.442 9.34236 37.442H9.34156Z" fill="url(#paint0_linear_120_12191)"/>
</g>
<defs>
<filter id="filter0_d_120_12191" x="0" y="0" width="65" height="103" filterUnits="userSpaceOnUse" color-interpolation-filters="sRGB">
<feFlood flood-opacity="0" result="BackgroundImageFix"/>
<feColorMatrix in="SourceAlpha" type="matrix" values="0 0 0 0 0 0 0 0 0 0 0 0 0 0 0 0 0 0 127 0" result="hardAlpha"/>
<feOffset/>
<feGaussianBlur stdDeviation="2.5"/>
<feColorMatrix type="matrix" values="0 0 0 0 0.641864 0 0 0 0 1 0 0 0 0 0.990608 0 0 0 0.5 0"/>
<feBlend mode="normal" in2="BackgroundImageFix" result="effect1_dropShadow_120_12191"/>
<feBlend mode="normal" in="SourceGraphic" in2="effect1_dropShadow_120_12191" result="shape"/>
</filter>
<linearGradient id="paint0_linear_120_12191" x1="60" y1="5" x2="60" y2="98" gradientUnits="userSpaceOnUse">
<stop stop-color="#72C2F5"/>
<stop offset="1" stop-color="#4CA6E0"/>
</linearGradient>
</defs>
</svg>
