<svg width="114" height="65" viewBox="0 0 114 65" fill="none" xmlns="http://www.w3.org/2000/svg">
<g opacity="0.4" filter="url(#filter0_d_120_12185)">
<path fill-rule="evenodd" clip-rule="evenodd" d="M70.7316 5.00731C91.5637 5.10466 107.863 32.038 108.545 33.1743H108.545C109.255 34.3694 109.125 35.8826 108.22 36.9386C108.202 36.958 108.177 36.9867 108.143 37.024C106.581 38.7661 87.9427 59.5574 57 59.5574C26.0571 59.5574 7.41844 38.7659 5.85687 37.024C5.82337 36.9866 5.79773 36.958 5.78 36.9386C4.87544 35.8827 4.74509 34.3695 5.45468 33.1743C6.1366 32.0391 22.4353 5.10465 43.2683 5.00731H43.3816C48.1719 4.8581 52.7446 7.00506 55.6839 10.7841C56.0806 11.2708 56.5216 11.7224 56.9999 12.131C57.4783 11.7224 57.9192 11.2708 58.316 10.7841C61.2552 7.00492 65.8279 4.85792 70.6182 5.00731H70.7316ZM33.3844 31.5876C27.8161 30.7486 24.0366 30.1791 23.769 30.9872C23.179 32.7909 39.9542 40.8033 57.0002 40.8033C74.0462 40.8033 90.8059 32.791 90.2314 30.9872C89.9611 30.1404 86.124 30.7233 80.4838 31.5801C74.1101 32.5484 65.434 33.8665 57.0002 33.8665C48.5082 33.8665 39.77 32.5498 33.3844 31.5876Z" fill="url(#paint0_linear_120_12185)"/>
</g>
<defs>
<filter id="filter0_d_120_12185" x="0" y="0" width="114" height="64.5574" filterUnits="userSpaceOnUse" color-interpolation-filters="sRGB">
<feFlood flood-opacity="0" result="BackgroundImageFix"/>
<feColorMatrix in="SourceAlpha" type="matrix" values="0 0 0 0 0 0 0 0 0 0 0 0 0 0 0 0 0 0 127 0" result="hardAlpha"/>
<feOffset/>
<feGaussianBlur stdDeviation="2.5"/>
<feColorMatrix type="matrix" values="0 0 0 0 0.641864 0 0 0 0 1 0 0 0 0 0.990608 0 0 0 0.5 0"/>
<feBlend mode="normal" in2="BackgroundImageFix" result="effect1_dropShadow_120_12185"/>
<feBlend mode="normal" in="SourceGraphic" in2="effect1_dropShadow_120_12185" result="shape"/>
</filter>
<linearGradient id="paint0_linear_120_12185" x1="5" y1="5" x2="5" y2="59.5574" gradientUnits="userSpaceOnUse">
<stop stop-color="#72C2F5"/>
<stop offset="1" stop-color="#4CA6E0"/>
</linearGradient>
</defs>
</svg>
