<svg width="103" height="64" viewBox="0 0 103 64" fill="none" xmlns="http://www.w3.org/2000/svg">
<g opacity="0.4" filter="url(#filter0_d_120_12189)">
<path d="M5.96091 46.9364C6.97914 39.6886 15.5474 38.5128 24.5848 37.2718C27.8913 36.8215 31.3097 36.3535 34.7054 35.5966C38.1648 34.8313 41.3654 32.9476 44.2591 30.4817C44.3956 30.8116 44.5975 31.1182 44.857 31.384L51.7848 37.1741C52.4673 37.1741 53.1549 36.9166 53.6802 36.3928C54.7264 35.3457 54.7264 33.6549 53.6802 32.6162L48.6566 27.6068C48.4054 27.3565 48.1236 27.1714 47.8169 27.0432C48.4947 26.2934 49.1662 25.5292 49.8051 24.7479L53.7903 28.7184C54.3155 29.2417 54.9995 29.4997 55.6866 29.4997C56.3736 29.4997 57.0614 29.2422 57.5855 28.7184C58.6317 27.6714 58.6317 25.9805 57.5855 24.9418L53.0305 20.4C53.4918 19.7237 53.9402 19.0473 54.3642 18.3792L56.9628 20.9645C57.488 21.4878 58.1756 21.7458 58.8617 21.7458C59.5442 21.7458 60.2317 21.4883 60.757 20.9645C61.8033 19.9257 61.8033 18.235 60.757 17.1879L57.1683 13.6124C59.513 9.33619 60.8178 6.13087 60.854 6.03371C61.1208 5.38117 61.7711 4.96234 62.4862 5.00268L92.8746 6.73433C93.7481 6.7819 94.4352 7.50734 94.4352 8.38484V17.4692C94.9645 19.2247 98 29.6776 98 37.216C98 42.1845 97.7696 45.8008 97.3331 47.6938L97.6642 48.1199C97.8817 48.4099 98 48.7564 98 49.1188V55.9969C98 56.9059 97.2605 57.6474 96.3429 57.6474H70.8688C69.9518 57.6474 69.2117 56.9059 69.2117 55.9969V55.8118C65.4767 57.5352 57.8109 59 42.5127 59C13.9882 59 5.97694 53.0977 5.64613 52.8402C5.23406 52.5346 5 52.0507 5 51.5356V48.4342C4.99948 47.7657 5.39547 47.1943 5.96115 46.9358L5.96091 46.9364Z" fill="url(#paint0_linear_120_12189)"/>
</g>
<defs>
<filter id="filter0_d_120_12189" x="0" y="0" width="103" height="64" filterUnits="userSpaceOnUse" color-interpolation-filters="sRGB">
<feFlood flood-opacity="0" result="BackgroundImageFix"/>
<feColorMatrix in="SourceAlpha" type="matrix" values="0 0 0 0 0 0 0 0 0 0 0 0 0 0 0 0 0 0 127 0" result="hardAlpha"/>
<feOffset/>
<feGaussianBlur stdDeviation="2.5"/>
<feColorMatrix type="matrix" values="0 0 0 0 0.641864 0 0 0 0 1 0 0 0 0 0.990608 0 0 0 0.5 0"/>
<feBlend mode="normal" in2="BackgroundImageFix" result="effect1_dropShadow_120_12189"/>
<feBlend mode="normal" in="SourceGraphic" in2="effect1_dropShadow_120_12189" result="shape"/>
</filter>
<linearGradient id="paint0_linear_120_12189" x1="98" y1="5" x2="98" y2="59" gradientUnits="userSpaceOnUse">
<stop stop-color="#72C2F5"/>
<stop offset="1" stop-color="#4CA6E0"/>
</linearGradient>
</defs>
</svg>
