<svg width="22" height="23" viewBox="0 0 22 23" fill="none" xmlns="http://www.w3.org/2000/svg">
<path fill-rule="evenodd" clip-rule="evenodd" d="M9.5 19C4.24821 19 9.34198e-05 14.7333 9.34198e-05 9.5C-0.0230266 4.26675 4.24821 0 9.5 0C14.7518 0 18.9999 4.26675 18.9999 9.5C18.9999 11.9791 18.0413 14.2414 16.4765 15.9359L21.6913 21.2015C22.1069 21.633 22.1069 22.3046 21.6669 22.7122C21.4713 22.9041 21.1779 22.9999 20.909 22.9999L20.9092 23C20.6159 23 20.3469 22.8801 20.1268 22.6643L14.8408 17.3486C13.3168 18.3901 11.4768 19 9.5 19ZM9.50047 2.09801C5.39244 2.09801 2.05459 5.42171 2.05459 9.5C2.05459 13.5781 5.39232 16.902 9.50047 16.902C13.5852 16.902 16.923 13.5781 16.923 9.5C16.9232 5.42171 13.5853 2.09801 9.50047 2.09801Z" fill="white"/>
</svg>
