<svg width="23" height="20" viewBox="0 0 23 20" fill="none" xmlns="http://www.w3.org/2000/svg">
<path fill-rule="evenodd" clip-rule="evenodd" d="M11.4851 2.1885C12.3539 1.14933 13.8504 0 16.2211 0C20.2581 0 22.9703 3.72521 22.9703 7.20428C22.9703 12.2692 13.2037 19.0571 12.0902 19.8142C11.9078 19.9379 11.6965 20 11.4851 20C11.2738 20 11.0625 19.9381 10.8801 19.8142C9.76648 19.0571 0 12.2692 0 7.20428C0 3.72521 2.71181 0 6.74876 0C9.12036 0 10.6167 1.14928 11.4851 2.1885ZM2.17822 7.23012C2.17822 10.0441 7.65171 14.9068 11.4845 17.6236L11.4845 17.6238C15.3177 14.9051 20.7918 10.0409 20.7921 7.23028C20.7921 5.11191 19.1976 2.17838 16.2047 2.17838C13.4834 2.17838 12.522 4.52148 12.4826 4.62142C12.321 5.02788 11.9251 5.29875 11.4863 5.29875H11.4788C11.0373 5.29508 10.6415 5.02582 10.4851 4.61425C10.4481 4.52132 9.48697 2.17822 6.76474 2.17822C3.77214 2.17822 2.17822 5.11223 2.17822 7.23012Z" fill="white"/>
</svg>
