<svg width="19" height="19" viewBox="0 0 19 19" fill="none" xmlns="http://www.w3.org/2000/svg">
<path d="M17.0449 0.617378H12.945C12.6731 0.617378 12.4124 0.725368 12.2202 0.91759C12.028 1.10981 11.92 1.37052 11.92 1.64237C11.92 1.91421 12.028 2.17492 12.2202 2.36714C12.4124 2.55937 12.6731 2.66736 12.945 2.66736H14.5679L11.7748 5.46045C10.3219 4.37463 8.51167 3.87938 6.70838 4.07435C4.90508 4.26932 3.24254 5.14003 2.05529 6.51129C0.868049 7.88255 0.244214 9.65258 0.309315 11.4652C0.374415 13.2779 1.12362 14.9986 2.40618 16.2811C3.68873 17.5637 5.40945 18.3129 7.22209 18.378C9.03473 18.4431 10.8048 17.8193 12.176 16.632C13.5473 15.4448 14.418 13.7822 14.613 11.9789C14.8079 10.1756 14.3127 8.36541 13.2269 6.91252L16.02 4.11942V5.74232C16.02 6.01416 16.1279 6.27487 16.3202 6.4671C16.5124 6.65932 16.7731 6.76731 17.0449 6.76731C17.3168 6.76731 17.5775 6.65932 17.7697 6.4671C17.9619 6.27487 18.0699 6.01416 18.0699 5.74232V1.64237C18.0699 1.37052 17.9619 1.10981 17.7697 0.91759C17.5775 0.725368 17.3168 0.617378 17.0449 0.617378ZM11.1 14.8306C10.3835 15.5479 9.47036 16.0367 8.47605 16.2349C7.48173 16.4332 6.45095 16.3321 5.51412 15.9444C4.57728 15.5567 3.7765 14.8998 3.21308 14.0569C2.64966 13.2139 2.34893 12.2228 2.34893 11.2089C2.34893 10.195 2.64966 9.20393 3.21308 8.361C3.7765 7.51807 4.57728 6.86119 5.51412 6.47349C6.45095 6.08578 7.48173 5.98466 8.47605 6.18292C9.47036 6.38119 10.3835 6.86993 11.1 7.5873C12.0597 8.54823 12.5988 9.85081 12.5988 11.2089C12.5988 12.567 12.0597 13.8696 11.1 14.8306Z" fill="white"/>
</svg>
