<svg width="116" height="98" viewBox="0 0 116 98" fill="none" xmlns="http://www.w3.org/2000/svg">
<path d="M79.5622 61.4598V31.4796H88.5568C89.3515 31.4796 90.1148 31.1638 90.6763 30.6013C91.2389 30.0387 91.5546 29.2765 91.5546 28.4807V18.1678C91.5463 13.3517 89.6296 8.73528 86.2251 5.32958C82.8194 1.92494 78.203 0.0083512 73.3869 5.30983e-05H66.8215C65.1652 5.30983e-05 63.8227 1.34263 63.8227 2.99781C63.8227 5.1403 62.6798 7.11956 60.8249 8.19028C58.97 9.26205 56.6841 9.26205 54.8294 8.19028C52.9744 7.11956 51.8316 5.14006 51.8316 2.99781C51.8316 2.20312 51.5158 1.43983 50.9533 0.878313C50.3908 0.315755 49.6285 0 48.8328 0H42.2674C37.4513 0.00836502 32.8348 1.925 29.4291 5.32952C26.0245 8.73522 24.1079 13.3516 24.0996 18.1678V28.4807C24.0996 29.2764 24.4154 30.0387 24.9779 30.6012C25.5394 31.1638 26.3027 31.4795 27.0974 31.4795H36.092V61.4598C36.092 62.2545 36.4078 63.0167 36.9703 63.5793C37.5319 64.1418 38.2951 64.4576 39.0898 64.4576H76.5651C77.3598 64.4576 78.1231 64.1418 78.6846 63.5793C79.2472 63.0167 79.563 62.2545 79.563 61.4598L79.5622 61.4598Z" fill="url(#paint0_linear_103_6972)"/>
<path d="M69.0692 86.1935C69.0692 92.4024 64.0354 97.4361 57.8266 97.4361C51.6177 97.4361 46.584 92.4024 46.584 86.1935C46.584 79.9847 51.6177 74.9509 57.8266 74.9509C64.0354 74.9509 69.0692 79.9847 69.0692 86.1935Z" fill="url(#paint1_linear_103_6972)"/>
<path d="M94.5368 86.9593C94.5368 91.9186 90.5163 95.9381 85.558 95.9381C80.5987 95.9381 76.5781 91.9186 76.5781 86.9593C76.5781 82.001 80.5987 77.9805 85.558 77.9805C90.5163 77.9805 94.5368 82.001 94.5368 86.9593Z" fill="url(#paint2_linear_103_6972)"/>
<path d="M39.0759 86.9593C39.0759 91.9186 35.0553 95.9381 30.096 95.9381C25.1378 95.9381 21.1172 91.9186 21.1172 86.9593C21.1172 82.001 25.1378 77.9805 30.096 77.9805C35.0553 77.9805 39.0759 82.001 39.0759 86.9593Z" fill="url(#paint3_linear_103_6972)"/>
<path d="M15.855 22.4401C14.7445 21.2177 12.854 21.1236 11.6275 22.2299L1.01531 31.8841C0.369105 32.4529 0 33.2716 0 34.1321C0 34.9927 0.369105 35.8114 1.01531 36.3802L11.6733 46.0333L11.6722 46.0344C12.9207 47.0842 14.7787 46.9441 15.8548 45.7196C16.9652 44.4973 16.8784 42.6068 15.6603 41.4922L7.44568 33.9971L15.6603 26.502C16.7739 25.4062 16.8586 23.6381 15.8548 22.4397L15.855 22.4401Z" fill="url(#paint4_linear_103_6972)"/>
<path d="M114.639 31.8836L103.981 22.2305L103.982 22.2295C102.74 21.1159 100.831 21.2205 99.7168 22.4616C98.6032 23.7038 98.7078 25.613 99.9489 26.7268L108.164 34.2219L99.9489 41.717C98.8845 42.817 98.8196 44.5423 99.7994 45.7196C100.91 46.9419 102.8 47.036 104.027 45.9298L114.685 36.2767L114.684 36.2756C115.33 35.7068 115.699 34.8881 115.699 34.0275C115.699 33.167 115.33 32.3483 114.684 31.7784L114.639 31.8836Z" fill="url(#paint5_linear_103_6972)"/>
<defs>
<linearGradient id="paint0_linear_103_6972" x1="24.0996" y1="0" x2="24.0996" y2="64.4576" gradientUnits="userSpaceOnUse">
<stop stop-color="white"/>
<stop offset="1" stop-color="#CDD9E1"/>
</linearGradient>
<linearGradient id="paint1_linear_103_6972" x1="46.584" y1="74.9509" x2="46.584" y2="97.4361" gradientUnits="userSpaceOnUse">
<stop stop-color="white"/>
<stop offset="1" stop-color="#CDD9E1"/>
</linearGradient>
<linearGradient id="paint2_linear_103_6972" x1="76.5781" y1="77.9805" x2="76.5781" y2="95.9381" gradientUnits="userSpaceOnUse">
<stop stop-color="white"/>
<stop offset="1" stop-color="#CDD9E1"/>
</linearGradient>
<linearGradient id="paint3_linear_103_6972" x1="21.1172" y1="77.9805" x2="21.1172" y2="95.9381" gradientUnits="userSpaceOnUse">
<stop stop-color="white"/>
<stop offset="1" stop-color="#CDD9E1"/>
</linearGradient>
<linearGradient id="paint4_linear_103_6972" x1="0" y1="21.458" x2="0" y2="46.7384" gradientUnits="userSpaceOnUse">
<stop stop-color="white"/>
<stop offset="1" stop-color="#CDD9E1"/>
</linearGradient>
<linearGradient id="paint5_linear_103_6972" x1="98.9453" y1="21.458" x2="98.9453" y2="46.7016" gradientUnits="userSpaceOnUse">
<stop stop-color="white"/>
<stop offset="1" stop-color="#CDD9E1"/>
</linearGradient>
</defs>
</svg>
