<svg width="117" height="98" viewBox="0 0 117 98" fill="none" xmlns="http://www.w3.org/2000/svg">
<path d="M80.1169 61.9144V31.9342H89.1115C89.9062 31.9342 90.6695 31.6184 91.231 31.0559C91.7936 30.4933 92.1093 29.7311 92.1093 28.9353V18.6224C92.101 13.8063 90.1843 9.18987 86.7798 5.78416C83.3741 2.37953 78.7577 0.462941 73.9416 0.454643H67.3762C65.7199 0.454643 64.3773 1.79722 64.3773 3.4524C64.3773 5.59489 63.2345 7.57415 61.3796 8.64487C59.5246 9.71664 57.2388 9.71664 55.3841 8.64487C53.5291 7.57415 52.3863 5.59465 52.3863 3.4524C52.3863 2.65771 52.0705 1.89442 51.508 1.3329C50.9454 0.770345 50.1832 0.45459 49.3875 0.45459H42.8221C38.0059 0.462955 33.3895 2.37959 29.9838 5.78411C26.5792 9.18981 24.6626 13.8062 24.6543 18.6223V28.9353C24.6543 29.731 24.9701 30.4933 25.5326 31.0558C26.0941 31.6184 26.8574 31.9341 27.6521 31.9341H36.6467V61.9144C36.6467 62.7091 36.9625 63.4713 37.525 64.0339C38.0865 64.5964 38.8498 64.9122 39.6445 64.9122H77.1198C77.9145 64.9122 78.6778 64.5964 79.2393 64.0339C79.8019 63.4713 80.1176 62.7091 80.1176 61.9144L80.1169 61.9144Z" fill="url(#paint0_linear_103_6833)"/>
<path d="M69.6239 86.6479C69.6239 92.8567 64.5901 97.8905 58.3813 97.8905C52.1724 97.8905 47.1387 92.8567 47.1387 86.6479C47.1387 80.439 52.1724 75.4053 58.3813 75.4053C64.5901 75.4053 69.6239 80.439 69.6239 86.6479Z" fill="url(#paint1_linear_103_6833)"/>
<path d="M95.0915 87.4139C95.0915 92.3732 91.0709 96.3927 86.1127 96.3927C81.1534 96.3927 77.1328 92.3732 77.1328 87.4139C77.1328 82.4556 81.1534 78.4351 86.1127 78.4351C91.0709 78.4351 95.0915 82.4556 95.0915 87.4139Z" fill="url(#paint2_linear_103_6833)"/>
<path d="M39.6306 87.4139C39.6306 92.3732 35.61 96.3927 30.6507 96.3927C25.6924 96.3927 21.6719 92.3732 21.6719 87.4139C21.6719 82.4556 25.6924 78.4351 30.6507 78.4351C35.61 78.4351 39.6306 82.4556 39.6306 87.4139Z" fill="url(#paint3_linear_103_6833)"/>
<path d="M16.4097 22.8946C15.2992 21.6723 13.4087 21.5782 12.1822 22.6845L1.57 32.3386C0.923792 32.9075 0.554688 33.7262 0.554688 34.5867C0.554688 35.4473 0.923792 36.266 1.57 36.8348L12.228 46.4879L12.2269 46.489C13.4754 47.5388 15.3334 47.3987 16.4094 46.1742C17.5199 44.9519 17.4331 43.0614 16.215 41.9467L8.00037 34.4517L16.215 26.9566C17.3286 25.8608 17.4133 24.0927 16.4094 22.8943L16.4097 22.8946Z" fill="url(#paint4_linear_103_6833)"/>
<path d="M115.194 32.3382L104.536 22.6851L104.537 22.6841C103.295 21.5705 101.385 21.6751 100.271 22.9162C99.1579 24.1584 99.2625 26.0676 100.504 27.1814L108.718 34.6765L100.504 42.1716C99.4391 43.2716 99.3743 44.9969 100.354 46.1742C101.465 47.3965 103.355 47.4906 104.582 46.3843L115.24 36.7312L115.238 36.7302C115.885 36.1614 116.254 35.3427 116.254 34.4821C116.254 33.6216 115.885 32.8028 115.238 32.233L115.194 32.3382Z" fill="url(#paint5_linear_103_6833)"/>
<defs>
<linearGradient id="paint0_linear_103_6833" x1="24.6543" y1="0.45459" x2="24.6543" y2="64.9122" gradientUnits="userSpaceOnUse">
<stop stop-color="#72C2F5"/>
<stop offset="1" stop-color="#4CA6E0"/>
</linearGradient>
<linearGradient id="paint1_linear_103_6833" x1="47.1387" y1="75.4053" x2="47.1387" y2="97.8905" gradientUnits="userSpaceOnUse">
<stop stop-color="#72C2F5"/>
<stop offset="1" stop-color="#4CA6E0"/>
</linearGradient>
<linearGradient id="paint2_linear_103_6833" x1="77.1328" y1="78.4351" x2="77.1328" y2="96.3927" gradientUnits="userSpaceOnUse">
<stop stop-color="#72C2F5"/>
<stop offset="1" stop-color="#4CA6E0"/>
</linearGradient>
<linearGradient id="paint3_linear_103_6833" x1="21.6719" y1="78.4351" x2="21.6719" y2="96.3927" gradientUnits="userSpaceOnUse">
<stop stop-color="#72C2F5"/>
<stop offset="1" stop-color="#4CA6E0"/>
</linearGradient>
<linearGradient id="paint4_linear_103_6833" x1="0.554688" y1="21.9126" x2="0.554688" y2="47.193" gradientUnits="userSpaceOnUse">
<stop stop-color="#72C2F5"/>
<stop offset="1" stop-color="#4CA6E0"/>
</linearGradient>
<linearGradient id="paint5_linear_103_6833" x1="99.5" y1="21.9126" x2="99.5" y2="47.1562" gradientUnits="userSpaceOnUse">
<stop stop-color="#72C2F5"/>
<stop offset="1" stop-color="#4CA6E0"/>
</linearGradient>
</defs>
</svg>
