<svg width="112" height="102" viewBox="0 0 112 102" fill="none" xmlns="http://www.w3.org/2000/svg">
<g filter="url(#filter0_d_103_6875)">
<path fill-rule="evenodd" clip-rule="evenodd" d="M70.0579 5.69103H13.7558C8.96155 5.69103 5.02734 9.61078 5.02734 14.3874V50.886C5.02734 55.6627 8.96155 59.5824 13.7558 59.5824H19.7796V73.7902C19.7796 75.2596 20.6406 76.607 22.1155 77.0973C22.4843 77.2195 22.9765 77.3425 23.3452 77.3425C24.3287 77.3425 25.3123 76.853 26.0497 76.1174L40.0628 59.5823H70.0578C74.8521 59.5823 78.7863 55.6626 78.7863 50.8859L78.7855 14.3873C78.7855 9.61067 74.8521 5.69092 70.0579 5.69092L70.0579 5.69103ZM24.6969 38.3928C21.1324 38.3928 18.1816 35.4531 18.1816 31.9015C18.1816 28.35 21.1322 25.2881 24.6969 25.2881C28.2617 25.2881 31.2123 28.2278 31.2123 31.7794C31.2123 35.3311 28.2617 38.3928 24.6969 38.3928ZM35.3926 31.9015C35.3926 35.4531 38.3433 38.3928 41.9079 38.3928C45.4733 38.3928 48.4232 35.3311 48.4232 31.7794C48.4232 28.2278 45.4724 25.2881 41.9079 25.2881C38.3431 25.2881 35.3926 28.35 35.3926 31.9015ZM59.1169 38.3928C55.5523 38.3928 52.6016 35.4531 52.6016 31.9015C52.6016 28.35 55.5515 25.2881 59.1169 25.2881C62.6814 25.2881 65.6322 28.2278 65.6322 31.7794C65.6322 35.3311 62.6816 38.3928 59.1169 38.3928ZM89.1589 37.3021H97.5481L97.5484 37.302C102.29 37.302 106.181 41.261 106.181 46.0854V71.8159C106.181 76.6404 102.29 80.5994 97.5484 80.5994H94.023V92.5987C94.023 93.8353 93.4149 95.1961 92.3209 95.8148C91.7137 96.1858 91.1056 96.3092 90.4976 96.3092C89.5247 96.3092 88.6733 95.9381 87.944 95.1961L74.0839 80.5994H51.5916C46.85 80.5994 42.959 76.6404 42.959 71.816V70.0841C42.959 67.7335 44.9045 65.7541 47.2147 65.7541L77.7312 65.7532C81.378 65.7532 84.2961 62.785 84.2961 59.0736V42.2498C84.2961 39.5283 86.4841 37.3021 89.1589 37.3021Z" fill="url(#paint0_linear_103_6875)"/>
</g>
<defs>
<filter id="filter0_d_103_6875" x="0.0273438" y="0.690918" width="111.153" height="100.618" filterUnits="userSpaceOnUse" color-interpolation-filters="sRGB">
<feFlood flood-opacity="0" result="BackgroundImageFix"/>
<feColorMatrix in="SourceAlpha" type="matrix" values="0 0 0 0 0 0 0 0 0 0 0 0 0 0 0 0 0 0 127 0" result="hardAlpha"/>
<feOffset/>
<feGaussianBlur stdDeviation="2.5"/>
<feColorMatrix type="matrix" values="0 0 0 0 0.641864 0 0 0 0 1 0 0 0 0 0.990608 0 0 0 0.5 0"/>
<feBlend mode="normal" in2="BackgroundImageFix" result="effect1_dropShadow_103_6875"/>
<feBlend mode="normal" in="SourceGraphic" in2="effect1_dropShadow_103_6875" result="shape"/>
</filter>
<linearGradient id="paint0_linear_103_6875" x1="5.02734" y1="5.69092" x2="5.02734" y2="96.3092" gradientUnits="userSpaceOnUse">
<stop stop-color="white"/>
<stop offset="1" stop-color="#CDD9E1"/>
</linearGradient>
</defs>
</svg>
