<svg width="97" height="101" viewBox="0 0 97 101" fill="none" xmlns="http://www.w3.org/2000/svg">
<path d="M95.119 13.158L54.6063 0.593592C54.2117 0.468803 53.7954 0.468803 53.4211 0.593592L12.9084 13.158C12.2012 13.4076 11.7225 14.0736 11.7225 14.8013V29.7789C11.7225 38.9532 13.9478 47.7523 17.9619 55.553L41.5457 31.9632C43.1683 30.3402 45.7788 30.3112 47.431 31.9632C47.8596 32.3919 48.1607 32.9005 48.358 33.4396C47.5565 32.9346 46.5047 32.9934 45.8055 33.6928L17.1581 62.3476H10.3589C10.0833 62.3476 9.81853 62.4571 9.62343 62.6523L0.306519 71.9716C-0.348446 72.6267 0.115765 73.7469 1.042 73.7469H5.76173L3.52627 75.9829C2.71535 76.7941 2.71535 78.1051 3.52627 78.9162C4.27989 79.7099 5.5883 79.7854 6.45879 78.9162L8.74716 76.6272L8.71815 81.3881C8.71235 82.3175 9.83588 82.7869 10.493 82.1296L19.6722 72.9481C19.8673 72.7529 19.9768 72.4881 19.9768 72.2124V65.3933L22.4741 62.8946C24.7197 65.973 27.2569 68.8438 30.0857 71.4238L52.6296 48.8741C54.2515 47.2511 56.8634 47.2221 58.5149 48.8741C59.2453 49.6047 59.7762 50.7009 59.6065 51.8545C59.518 51.5484 59.3722 51.264 59.1365 51.0289C58.3256 50.2178 57.0149 50.2178 56.204 51.0289L27.3115 79.9288H20.6079C20.3323 79.9288 20.0675 80.0384 19.8724 80.2335L10.5555 89.5528C9.90053 90.208 10.3647 91.3282 11.291 91.3282H15.9156L13.9253 93.319C13.1144 94.1302 13.1144 95.4412 13.9253 96.2523C14.684 97.0511 15.9918 97.1171 16.8578 96.2523L18.9969 94.1127L18.9679 98.9699C18.9621 99.8993 20.0856 100.369 20.7428 99.7114L29.9219 90.5292C30.117 90.334 30.2265 90.0699 30.2265 89.7935V82.8793L58.3039 54.7947C58.1755 54.9514 58.0573 55.1147 57.9122 55.2598L36.616 76.5614C36.616 76.5824 36.6371 76.5824 36.6574 76.6027C43.4079 81.135 48.2278 82.4258 54.0014 84.9861L61.5718 81.8447C82.5969 73.087 96.2818 52.5751 96.2818 29.7765V14.7989C96.2818 14.0733 95.8241 13.408 95.1169 13.1577L95.119 13.158Z" fill="url(#paint0_linear_103_6806)"/>
<defs>
<linearGradient id="paint0_linear_103_6806" x1="0" y1="0.5" x2="0" y2="100.018" gradientUnits="userSpaceOnUse">
<stop stop-color="#72C2F5"/>
<stop offset="1" stop-color="#4CA6E0"/>
</linearGradient>
</defs>
</svg>
