<svg width="97" height="100" viewBox="0 0 97 100" fill="none" xmlns="http://www.w3.org/2000/svg">
<path d="M95.119 12.658L54.6063 0.0935923C54.2117 -0.0311974 53.7954 -0.0311974 53.4211 0.0935923L12.9084 12.658C12.2012 12.9076 11.7225 13.5736 11.7225 14.3013V29.2789C11.7225 38.4532 13.9478 47.2523 17.9619 55.053L41.5457 31.4632C43.1683 29.8402 45.7788 29.8112 47.431 31.4632C47.8596 31.8919 48.1607 32.4005 48.358 32.9396C47.5565 32.4346 46.5047 32.4934 45.8055 33.1928L17.1581 61.8476H10.3589C10.0833 61.8476 9.81853 61.9571 9.62343 62.1523L0.306519 71.4716C-0.348446 72.1267 0.115765 73.2469 1.042 73.2469H5.76173L3.52627 75.4829C2.71535 76.2941 2.71535 77.6051 3.52627 78.4162C4.27989 79.2099 5.5883 79.2854 6.45879 78.4162L8.74716 76.1272L8.71815 80.8881C8.71235 81.8175 9.83588 82.2869 10.493 81.6296L19.6722 72.4481C19.8673 72.2529 19.9768 71.9881 19.9768 71.7124V64.8933L22.4741 62.3946C24.7197 65.473 27.2569 68.3438 30.0857 70.9238L52.6296 48.3741C54.2515 46.7511 56.8634 46.7221 58.5149 48.3741C59.2453 49.1047 59.7762 50.2009 59.6065 51.3545C59.518 51.0484 59.3722 50.764 59.1365 50.5289C58.3256 49.7178 57.0149 49.7178 56.204 50.5289L27.3115 79.4288H20.6079C20.3323 79.4288 20.0675 79.5384 19.8724 79.7335L10.5555 89.0528C9.90053 89.708 10.3647 90.8282 11.291 90.8282H15.9156L13.9253 92.819C13.1144 93.6302 13.1144 94.9412 13.9253 95.7523C14.684 96.5511 15.9918 96.6171 16.8578 95.7523L18.9969 93.6127L18.9679 98.4699C18.9621 99.3993 20.0856 99.8687 20.7428 99.2114L29.9219 90.0292C30.117 89.834 30.2265 89.5699 30.2265 89.2935V82.3793L58.3039 54.2947C58.1755 54.4514 58.0573 54.6147 57.9122 54.7598L36.616 76.0614C36.616 76.0824 36.6371 76.0824 36.6574 76.1027C43.4079 80.635 48.2278 81.9258 54.0014 84.4861L61.5718 81.3447C82.5969 72.587 96.2818 52.0751 96.2818 29.2765V14.2989C96.2818 13.5733 95.8241 12.908 95.1169 12.6577L95.119 12.658Z" fill="url(#paint0_linear_103_6958)"/>
<defs>
<linearGradient id="paint0_linear_103_6958" x1="0" y1="0" x2="0" y2="99.5182" gradientUnits="userSpaceOnUse">
<stop stop-color="white"/>
<stop offset="1" stop-color="#CDD9E1"/>
</linearGradient>
</defs>
</svg>
