<svg width="827" height="824" viewBox="0 0 827 824" fill="none" xmlns="http://www.w3.org/2000/svg">
<path opacity="0.1" d="M8.92633 477.82C25.3842 370.132 92.834 237.828 226.098 223.983C226.098 223.983 327.278 211.677 427.019 230.328C486.215 241.399 538.122 274.352 570.973 321.715C603.824 369.078 614.788 426.83 601.474 481.891C592.826 517.652 586.982 554.663 588.587 591.41C590.607 637.754 594.42 686.482 573.931 729.699C543.911 793.018 470.67 811.67 406.761 817.613C383.22 819.805 359.573 820.688 336.001 822.553C290.782 826.127 240.073 820.342 196.489 808.57C-25.6226 748.586 -7.52521 585.525 8.92633 477.82Z" fill="#009DFF"/>
<path d="M193.525 609.318C193.525 609.318 195.254 536.571 161.755 517.098C128.255 497.626 64.5559 485.457 62.1677 380.996C60.7702 319.843 59.2588 293.096 58.2437 281.445C58.1497 280.385 58.3026 279.318 58.6904 278.327C59.0782 277.336 59.6903 276.449 60.4787 275.734C61.2671 275.02 62.2103 274.498 63.2343 274.209C64.2584 273.921 65.3353 273.874 66.3806 274.072C98.1143 280.05 201.17 304.655 222.779 375.018C248.388 458.435 193.525 609.318 193.525 609.318Z" fill="url(#paint0_linear_79_6681)"/>
<path opacity="0.5" d="M90.9086 303.135C125.734 334.201 166.004 389.184 187.469 444.168C190.223 453.229 198.283 472.499 201.781 506.738C204.908 535.293 203.354 565.466 199.564 585.441C199.449 586.047 199.097 586.582 198.587 586.929C198.077 587.277 197.45 587.407 196.844 587.292C194.674 586.885 194.963 584.545 194.981 584.618C199.31 550.492 197.514 508.017 187.595 469.693C174.924 422.634 146.66 377.01 117.427 338.312L114.418 334.501C91.769 305.404 87.0008 305.201 89.1185 303.166C89.3589 302.938 89.6761 302.808 90.0076 302.802C90.339 302.797 90.6605 302.915 90.9086 303.135Z" fill="white"/>
<path d="M247.35 749.185C251.883 751.409 204.443 691.738 189.579 598.023C182.575 553.87 182.485 498.526 157.334 477.21C136.402 459.463 65.1845 470.668 41.8704 474.925C41.2176 475.044 40.612 475.346 40.1244 475.796C39.6368 476.246 39.2873 476.825 39.1166 477.467C38.946 478.108 38.9613 478.785 39.1608 479.418C39.3602 480.05 39.7356 480.614 40.243 481.041C51.419 490.429 75.3271 512.579 81.5559 534.892C89.768 564.31 117.728 583.021 142.759 588.084C167.79 593.146 181.716 598.054 193.91 638.103C206.103 678.153 234.472 742.869 247.35 749.185Z" fill="url(#paint1_linear_79_6681)"/>
<path opacity="0.5" d="M74.6519 487.355C104.386 488.6 136.305 502.168 152.501 527.616L154.029 530.045C157.56 535.743 177.571 576.217 188.686 609.772C188.72 609.872 188.734 609.978 188.727 610.083C188.72 610.189 188.692 610.292 188.645 610.386C188.598 610.481 188.532 610.565 188.452 610.634C188.373 610.704 188.28 610.756 188.179 610.789C187.983 610.85 187.771 610.835 187.586 610.746C187.401 610.658 187.256 610.502 187.181 610.311C179.438 591.356 168.315 567.322 159.458 549.351C149.961 529.738 143.313 516.458 121.646 503.737C97.5307 490.035 74.4912 488.625 74.5604 488.639C74.3913 488.627 74.2339 488.548 74.1229 488.42C74.0118 488.291 73.9563 488.124 73.9684 487.955C73.9806 487.786 74.0594 487.629 74.1876 487.518C74.3158 487.407 74.4828 487.351 74.6519 487.363V487.355Z" fill="white"/>
<path d="M227.012 757.034C229.703 758.459 211.863 727.734 210.494 700.683C209.125 673.631 203.022 627.433 179.694 599.816C156.366 572.198 130.82 569.669 98.6307 594.784C71.8055 615.713 55.0721 626.275 45.259 628.239C42.8302 628.725 41.5974 631.468 42.7732 633.647C49.0671 645.245 66.8603 671.869 96.7389 669.995C134.85 667.604 181.039 642.822 195.115 663.494C209.192 684.167 207.386 695.734 207.817 705.532C208.248 715.329 209.215 747.648 227.012 757.034Z" fill="url(#paint2_linear_79_6681)"/>
<path opacity="0.5" d="M109.445 627.956C121.119 616.765 140.135 605.758 156.752 607.813C178.374 611.296 192.778 625.738 200.634 647.237C203.706 656.367 204.969 661.238 206.784 672.429C206.93 673.322 205.612 673.589 205.392 672.716C204.072 667.46 202.762 661.959 200.805 656.265C189.414 619.545 165.08 614.598 164.134 613.848C162.304 614.029 151.146 605.68 124.689 619.919C119.72 622.624 114.953 625.684 110.425 629.075L110.401 629.096C110.25 629.205 110.063 629.253 109.878 629.231C109.693 629.208 109.523 629.117 109.403 628.975C109.282 628.833 109.219 628.651 109.227 628.465C109.235 628.278 109.313 628.102 109.445 627.971V627.956Z" fill="white"/>
<path d="M204.739 281.747C198.657 282.282 192.995 285.074 188.868 289.573C184.74 294.073 182.445 299.955 182.434 306.061C182.216 383.456 181.854 650.409 186.897 744.896C187.152 749.717 189.234 754.26 192.719 757.6C196.204 760.94 200.83 762.827 205.656 762.877C255.222 763.412 397.794 764.392 478.733 759.214C486.853 758.702 494.472 755.112 500.038 749.177C505.604 743.241 508.697 735.407 508.689 727.269C508.591 646.041 507.294 417.601 496.169 313.183C495.524 307.122 492.778 301.478 488.408 297.23C484.037 292.982 478.318 290.399 472.242 289.928C418.183 285.718 274.63 275.671 204.739 281.747Z" fill="#414F50"/>
<path d="M202.331 326.343C201.358 392.547 198.586 612.781 203.425 694.064C204.131 705.945 213.358 715.325 224.75 715.722C271.657 717.35 391.94 720.522 460.481 712.979C472.822 711.62 482.247 700.919 482.582 687.964C484.297 620.411 488.929 415.281 484.226 334.906C483.478 322.087 473.683 311.852 461.406 311.024C410.618 307.602 280.199 299.707 221.916 304.562C210.974 305.473 202.5 314.882 202.331 326.343Z" fill="#121C23"/>
<path d="M315.663 293.261C315.68 294.141 316.035 294.981 316.654 295.607C317.273 296.232 318.109 296.596 318.989 296.622C328.014 296.897 353.44 297.676 364.803 298.085C365.326 298.104 365.847 298.004 366.325 297.791C366.804 297.578 367.227 297.258 367.563 296.856C367.899 296.455 368.138 295.981 368.263 295.473C368.388 294.964 368.395 294.434 368.284 293.922C368.245 293.853 367.954 291.043 365.084 290.844C357.397 290.309 334.205 288.868 318.879 289.751C315.732 289.934 315.561 293.513 315.663 293.261Z" fill="#001F31"/>
<path d="M288.744 465.85C326.195 465.85 356.555 435.483 356.555 398.023C356.555 360.563 326.195 330.195 288.744 330.195C251.293 330.195 220.934 360.563 220.934 398.023C220.934 435.483 251.293 465.85 288.744 465.85Z" fill="white"/>
<path d="M307.721 401.313C318.056 390.975 318.056 374.214 307.721 363.876C297.386 353.539 280.629 353.539 270.294 363.876C259.958 374.214 259.958 390.975 270.294 401.313C280.629 411.651 297.386 411.651 307.721 401.313Z" fill="url(#paint3_linear_79_6681)"/>
<path d="M248.806 462.088H333.122C338.291 462.088 341.387 455.406 338.614 450.307C331.452 437.191 316.468 417.918 290.517 418.789C265.497 419.627 250.684 437.034 243.23 449.513C240.057 454.818 243.283 462.088 248.806 462.088Z" fill="url(#paint4_linear_79_6681)"/>
<g opacity="0.8">
<path opacity="0.8" d="M460.577 359.055L383.064 357.878C381.719 357.857 380.612 358.931 380.592 360.276L380.415 371.917C380.395 373.262 381.468 374.369 382.813 374.39L460.326 375.567C461.67 375.588 462.777 374.514 462.797 373.169L462.974 361.527C462.995 360.182 461.921 359.076 460.577 359.055Z" fill="#273846"/>
<path opacity="0.8" d="M459.82 409.432L382.316 408.247C381.671 408.236 381.057 407.969 380.608 407.506C380.159 407.042 379.912 406.42 379.92 405.775L380.097 394.134C380.108 393.489 380.375 392.874 380.838 392.425C381.301 391.975 381.923 391.727 382.569 391.736L460.082 392.92C460.728 392.931 461.342 393.197 461.792 393.661C462.241 394.124 462.489 394.746 462.481 395.392L462.302 407.035C462.29 407.681 462.022 408.297 461.557 408.747C461.091 409.196 460.467 409.442 459.82 409.432Z" fill="#273846"/>
<path opacity="0.8" d="M459.549 426.701L382.036 425.523C380.692 425.503 379.585 426.577 379.565 427.922L379.388 439.563C379.367 440.908 380.441 442.015 381.786 442.035L459.299 443.213C460.643 443.233 461.75 442.159 461.77 440.814L461.947 429.173C461.967 427.828 460.894 426.721 459.549 426.701Z" fill="#273846"/>
</g>
<path d="M392.198 323.955C392.065 323.906 391.949 323.819 391.864 323.707C391.778 323.594 391.727 323.459 391.716 323.318C391.642 322.347 391.589 321.358 391.557 320.38C391.554 320.284 391.571 320.188 391.606 320.099C391.641 320.01 391.693 319.928 391.76 319.859C391.826 319.79 391.906 319.735 391.994 319.697C392.082 319.66 392.177 319.64 392.273 319.639C393.264 319.617 392.995 320.606 393.192 323.232C393.199 323.328 393.187 323.424 393.156 323.515C393.125 323.606 393.076 323.69 393.012 323.762C392.948 323.834 392.871 323.892 392.784 323.933C392.697 323.974 392.603 323.997 392.507 324.001C392.402 324.008 392.296 323.992 392.198 323.955Z" fill="#BDD0FB"/>
<path d="M391.861 311.23C392.042 309.368 392.303 307.492 392.632 305.65C392.65 305.556 392.686 305.466 392.739 305.386C392.792 305.305 392.86 305.236 392.94 305.183C393.019 305.129 393.109 305.091 393.203 305.073C393.297 305.054 393.394 305.054 393.489 305.073C394.585 305.286 393.871 305.905 393.336 311.38C393.326 311.476 393.297 311.57 393.25 311.654C393.204 311.739 393.141 311.814 393.065 311.874C392.989 311.934 392.902 311.978 392.809 312.004C392.716 312.03 392.618 312.037 392.522 312.025C392.331 312.004 392.155 311.909 392.032 311.76C391.909 311.612 391.847 311.422 391.861 311.23ZM394.815 296.783C395.378 294.993 396.025 293.192 396.713 291.493C397.083 290.579 398.446 291.173 398.09 292.048C397.405 293.743 396.782 295.483 396.229 297.235C396.163 297.414 396.03 297.562 395.858 297.646C395.687 297.73 395.489 297.745 395.307 297.687C395.125 297.629 394.972 297.502 394.88 297.335C394.788 297.167 394.765 296.97 394.815 296.785V296.783ZM400.678 283.262C401.595 281.635 402.592 280.027 403.637 278.479C404.178 277.681 405.413 278.503 404.876 279.293C403.849 280.811 402.875 282.387 401.973 283.972C401.493 284.819 400.202 284.095 400.669 283.258L400.678 283.262ZM409.329 272.275C409.257 272.214 409.197 272.138 409.154 272.054C409.111 271.97 409.085 271.877 409.077 271.783C409.07 271.688 409.081 271.593 409.111 271.503C409.141 271.413 409.188 271.329 409.25 271.258C410.491 269.856 411.805 268.484 413.155 267.188C413.851 266.519 414.895 267.567 414.201 268.234C412.877 269.51 411.587 270.853 410.373 272.226C410.239 272.371 410.052 272.457 409.855 272.464C409.658 272.472 409.466 272.401 409.321 272.267L409.329 272.275ZM420.031 262.264C419.972 262.189 419.929 262.102 419.903 262.01C419.878 261.918 419.872 261.821 419.885 261.727C419.897 261.632 419.929 261.54 419.977 261.458C420.026 261.376 420.091 261.304 420.167 261.247C421.677 260.126 423.251 259.051 424.846 258.052C425.66 257.541 426.473 258.77 425.66 259.285C424.097 260.264 422.556 261.32 421.077 262.413C420.916 262.531 420.715 262.581 420.517 262.552C420.32 262.523 420.142 262.416 420.023 262.256L420.031 262.264ZM433.018 254.998C432.84 254.931 432.694 254.798 432.611 254.628C432.568 254.542 432.543 254.448 432.538 254.353C432.532 254.257 432.546 254.161 432.578 254.071C432.61 253.98 432.66 253.898 432.724 253.827C432.789 253.756 432.867 253.699 432.954 253.659C434.669 252.868 436.435 252.131 438.205 251.474C438.389 251.406 438.592 251.413 438.771 251.492C438.95 251.572 439.091 251.717 439.165 251.899C439.201 251.987 439.219 252.082 439.218 252.177C439.217 252.272 439.197 252.367 439.159 252.454C439.121 252.541 439.066 252.62 438.997 252.686C438.928 252.752 438.847 252.803 438.758 252.837C437.023 253.48 435.3 254.202 433.609 254.98C433.516 255.023 433.414 255.046 433.31 255.048C433.207 255.05 433.105 255.03 433.009 254.99L433.018 254.998ZM446.988 250.182C446.876 250.14 446.775 250.072 446.695 249.983C446.614 249.894 446.557 249.787 446.527 249.671C446.503 249.578 446.497 249.482 446.511 249.387C446.525 249.292 446.558 249.201 446.608 249.119C446.658 249.037 446.724 248.966 446.802 248.911C446.88 248.855 446.968 248.815 447.062 248.794C448.907 248.363 450.794 247.999 452.67 247.712C452.864 247.681 453.062 247.728 453.222 247.842C453.382 247.956 453.491 248.129 453.524 248.322C453.541 248.417 453.537 248.514 453.515 248.608C453.493 248.701 453.452 248.789 453.395 248.867C453.338 248.944 453.267 249.009 453.184 249.059C453.101 249.108 453.009 249.139 452.914 249.152C451.083 249.435 449.226 249.793 447.422 250.216C447.277 250.247 447.126 250.235 446.988 250.182ZM461.228 247.628C461.224 247.532 461.24 247.437 461.274 247.347C461.308 247.257 461.36 247.175 461.426 247.105C461.492 247.036 461.571 246.98 461.659 246.942C461.747 246.903 461.842 246.883 461.938 246.882C463.838 246.831 465.766 246.855 467.672 246.953C468.653 247.006 468.594 248.456 467.617 248.406C465.752 248.31 463.86 248.288 461.999 248.336C461.803 248.343 461.613 248.272 461.469 248.14C461.325 248.007 461.239 247.824 461.228 247.628ZM508.654 263.434C504.219 260.046 503.222 260.101 503.831 259.183C503.94 259.024 504.108 258.913 504.298 258.875C504.488 258.837 504.685 258.874 504.848 258.98C506.449 260.018 508.027 261.131 509.545 262.288C510.328 262.891 509.439 264.044 508.654 263.434ZM476.086 248.581C476.103 248.486 476.138 248.395 476.19 248.314C476.242 248.233 476.309 248.163 476.388 248.109C476.467 248.054 476.556 248.016 476.651 247.996C476.745 247.976 476.842 247.975 476.936 247.993C478.812 248.326 480.702 248.737 482.553 249.213C483.503 249.458 483.149 250.866 482.199 250.621C480.384 250.155 478.537 249.753 476.694 249.425C476.504 249.395 476.332 249.291 476.217 249.137C476.102 248.982 476.052 248.788 476.078 248.597L476.086 248.581ZM496.076 255.702C491.058 253.275 490.081 253.525 490.486 252.497C490.742 251.846 491.532 252.09 491.442 252.09C493.224 252.79 494.998 253.566 496.713 254.394C496.8 254.435 496.879 254.492 496.944 254.564C497.008 254.635 497.059 254.718 497.091 254.809C497.124 254.9 497.138 254.996 497.133 255.093C497.128 255.189 497.104 255.283 497.063 255.37C496.977 255.547 496.825 255.682 496.64 255.746C496.455 255.81 496.252 255.798 496.076 255.712V255.702Z" fill="#BDD0FB"/>
<path d="M517.619 271.555C515.919 269.738 514.863 269.113 515.571 268.429C515.71 268.292 515.899 268.215 516.095 268.215C516.291 268.215 516.479 268.292 516.618 268.429C518.449 270.238 519.371 270.958 518.665 271.595C518.511 271.707 518.325 271.764 518.135 271.757C517.945 271.749 517.764 271.678 517.619 271.555Z" fill="#BDD0FB"/>
<path d="M537.42 324.606C537.273 324.551 537.148 324.451 537.061 324.32C536.974 324.189 536.931 324.034 536.938 323.877C536.989 322.921 537.022 321.953 537.034 321C537.035 320.904 537.056 320.81 537.095 320.722C537.133 320.634 537.189 320.555 537.259 320.489C537.329 320.423 537.411 320.371 537.501 320.338C537.591 320.304 537.687 320.289 537.782 320.292C537.978 320.297 538.163 320.378 538.3 320.517C538.437 320.657 538.514 320.844 538.515 321.039C538.503 322.012 538.47 323.001 538.417 323.977C538.408 324.091 538.372 324.201 538.313 324.299C538.254 324.397 538.173 324.48 538.076 324.541C537.979 324.602 537.87 324.64 537.756 324.651C537.642 324.662 537.527 324.647 537.42 324.606Z" fill="#BDD0FB"/>
<path d="M437.58 385.735C435.674 384.956 433.78 384.087 431.95 383.155C431.863 383.113 431.786 383.053 431.723 382.981C431.659 382.909 431.611 382.824 431.58 382.733C431.55 382.642 431.537 382.546 431.544 382.45C431.551 382.354 431.577 382.26 431.62 382.174C432.139 381.169 432.558 382.111 438.129 384.392C438.31 384.464 438.454 384.605 438.53 384.784C438.606 384.963 438.609 385.164 438.536 385.344C438.276 385.991 437.491 385.737 437.58 385.735ZM446.582 388.03C446.862 386.938 447.509 387.772 453.402 388.816C453.595 388.848 453.767 388.954 453.881 389.112C453.995 389.27 454.043 389.467 454.013 389.66C453.996 389.755 453.961 389.845 453.909 389.926C453.857 390.007 453.789 390.077 453.71 390.132C453.631 390.186 453.542 390.225 453.448 390.245C453.354 390.265 453.257 390.266 453.162 390.248C451.144 389.892 449.112 389.434 447.119 388.921C446.93 388.874 446.767 388.753 446.667 388.586C446.566 388.419 446.535 388.22 446.582 388.03ZM423.316 378.005C421.63 376.837 419.97 375.582 418.383 374.278C418.31 374.218 418.248 374.144 418.203 374.06C418.158 373.976 418.13 373.885 418.121 373.79C418.111 373.695 418.121 373.6 418.148 373.509C418.176 373.418 418.221 373.333 418.282 373.26C419.012 372.395 419.209 373.403 424.156 376.827C424.236 376.881 424.304 376.95 424.357 377.031C424.41 377.111 424.446 377.201 424.464 377.296C424.481 377.391 424.48 377.488 424.46 377.582C424.439 377.676 424.401 377.765 424.346 377.844C424.229 378 424.056 378.104 423.864 378.134C423.671 378.164 423.475 378.118 423.316 378.005ZM462.906 391.282C462.762 391.228 462.638 391.132 462.552 391.005C462.466 390.878 462.421 390.727 462.424 390.574C462.427 390.478 462.449 390.383 462.489 390.296C462.529 390.208 462.586 390.13 462.656 390.065C462.727 390 462.81 389.949 462.901 389.917C462.991 389.885 463.087 389.87 463.183 389.876C465.193 389.957 467.229 389.955 469.231 389.876C469.426 389.866 469.617 389.933 469.763 390.063C469.909 390.192 469.999 390.374 470.012 390.569C470.017 390.665 470.003 390.761 469.971 390.852C469.939 390.942 469.889 391.025 469.824 391.096C469.759 391.167 469.681 391.224 469.594 391.264C469.506 391.304 469.412 391.326 469.316 391.328C467.282 391.416 465.197 391.418 463.144 391.328C463.063 391.325 462.983 391.31 462.906 391.282ZM478.856 390.185C478.738 390.141 478.633 390.067 478.551 389.971C478.468 389.875 478.412 389.759 478.387 389.636C478.368 389.542 478.368 389.445 478.387 389.351C478.407 389.257 478.444 389.168 478.499 389.089C478.553 389.01 478.622 388.943 478.703 388.892C478.784 388.84 478.874 388.805 478.968 388.789C480.937 388.435 482.915 387.994 484.847 387.475C485.037 387.425 485.238 387.45 485.409 387.546C485.579 387.642 485.706 387.8 485.763 387.987C485.789 388.079 485.797 388.176 485.786 388.271C485.775 388.366 485.745 388.458 485.698 388.541C485.651 388.624 485.587 388.697 485.511 388.756C485.436 388.814 485.349 388.856 485.256 388.881C483.283 389.41 481.265 389.859 479.255 390.222C479.121 390.246 478.984 390.233 478.856 390.185ZM494.123 385.668C494.031 385.633 493.946 385.581 493.874 385.513C493.802 385.445 493.744 385.364 493.704 385.273C493.665 385.186 493.643 385.092 493.641 384.996C493.638 384.9 493.655 384.805 493.69 384.716C493.725 384.627 493.778 384.546 493.845 384.478C493.912 384.41 493.992 384.356 494.081 384.319C495.911 383.55 497.742 382.691 499.508 381.771C499.682 381.682 499.884 381.664 500.072 381.72C500.26 381.777 500.418 381.905 500.513 382.077C500.559 382.16 500.589 382.252 500.599 382.347C500.61 382.443 500.601 382.539 500.573 382.63C500.546 382.722 500.5 382.807 500.439 382.881C500.378 382.955 500.303 383.015 500.218 383.059C498.417 383.999 496.556 384.874 494.679 385.66C494.502 385.734 494.302 385.737 494.123 385.668ZM507.978 377.973C507.843 377.922 507.724 377.833 507.639 377.716C507.58 377.64 507.538 377.552 507.515 377.459C507.491 377.366 507.487 377.269 507.501 377.174C507.516 377.079 507.549 376.988 507.6 376.907C507.65 376.825 507.717 376.754 507.795 376.699C509.412 375.551 510.999 374.322 512.511 373.036C512.661 372.911 512.855 372.849 513.05 372.865C513.246 372.881 513.427 372.972 513.556 373.12C513.619 373.191 513.667 373.274 513.697 373.364C513.727 373.453 513.74 373.548 513.733 373.643C513.727 373.737 513.702 373.83 513.66 373.915C513.617 373.999 513.559 374.075 513.487 374.137C511.943 375.443 510.324 376.699 508.674 377.871C508.575 377.943 508.46 377.991 508.339 378.008C508.217 378.026 508.094 378.014 507.978 377.973ZM519.52 367.327C518.652 366.574 519.675 366.423 523.215 361.701C523.792 360.932 524.988 361.807 524.413 362.576C523.204 364.187 521.909 365.766 520.564 367.27C520.432 367.415 520.249 367.502 520.054 367.512C519.859 367.523 519.667 367.456 519.52 367.327ZM528.75 354.585C527.732 354.036 528.693 353.674 531.079 348.278C531.467 347.403 532.828 347.995 532.44 348.874C531.626 350.715 530.721 352.537 529.753 354.299C529.658 354.47 529.499 354.597 529.311 354.652C529.123 354.706 528.921 354.684 528.75 354.59V354.585ZM534.816 340.106C534.642 340.043 534.499 339.917 534.415 339.753C534.331 339.589 534.311 339.399 534.36 339.221C534.903 337.319 535.377 335.378 535.747 333.451C535.767 333.357 535.805 333.267 535.859 333.188C535.913 333.109 535.983 333.041 536.063 332.989C536.144 332.936 536.234 332.9 536.328 332.883C536.423 332.865 536.52 332.867 536.614 332.887C536.806 332.924 536.975 333.035 537.085 333.197C537.195 333.358 537.237 333.556 537.202 333.748C536.817 335.713 536.339 337.693 535.778 339.634C535.751 339.727 535.706 339.813 535.645 339.888C535.585 339.963 535.51 340.025 535.425 340.071C535.34 340.117 535.247 340.145 535.151 340.155C535.055 340.164 534.959 340.155 534.866 340.127L534.816 340.106Z" fill="#BDD0FB"/>
<path d="M411.054 367.366C409.305 365.475 408.422 364.72 409.156 364.11C409.923 363.481 410.35 364.456 412.142 366.393C412.207 366.462 412.257 366.544 412.289 366.632C412.322 366.721 412.337 366.816 412.333 366.91C412.33 367.005 412.307 367.097 412.267 367.183C412.228 367.269 412.171 367.346 412.102 367.41C411.956 367.541 411.764 367.609 411.569 367.6C411.373 367.592 411.189 367.508 411.054 367.366Z" fill="#BDD0FB"/>
<path d="M419.149 348.965L429.67 347.661C432.929 351.496 436.781 354.784 441.08 357.399C441.487 367.547 440.799 368.287 441.894 368.649L454.018 372.69C454.189 372.748 454.374 372.752 454.547 372.7C454.721 372.649 454.874 372.545 454.986 372.403L461.371 364.159C466.373 364.642 471.419 364.32 476.319 363.204L483.974 370.564C484.105 370.689 484.271 370.772 484.45 370.8C484.629 370.829 484.813 370.803 484.976 370.725L496.327 365.192C496.488 365.115 496.62 364.988 496.704 364.83C496.788 364.673 496.82 364.492 496.795 364.315L495.31 353.951C499.144 350.823 502.432 347.081 505.042 342.878L515.658 342.839C515.838 342.839 516.013 342.783 516.159 342.679C516.305 342.574 516.414 342.427 516.472 342.257L520.398 330.395C520.453 330.223 520.453 330.039 520.399 329.868C520.344 329.696 520.237 329.546 520.093 329.438L511.608 323.035C512.023 318.098 511.619 313.127 510.412 308.322C517.455 300.928 518.445 300.922 517.939 299.923C512.058 288.992 512.394 288.062 511.242 288.205L500.719 289.507C497.457 285.672 493.602 282.384 489.299 279.771C488.892 269.628 489.58 268.881 488.496 268.519C476.378 264.712 476.087 263.878 475.403 264.765L469.016 273.011C464.015 272.526 458.968 272.849 454.069 273.966C446.542 267.013 446.434 265.945 445.411 266.437C434.276 272.108 433.433 271.728 433.592 272.845L435.077 283.222C431.244 286.348 427.955 290.089 425.346 294.293C415.211 294.539 414.273 293.831 413.915 294.915C410.241 306.717 409.375 307.038 410.294 307.734L418.777 314.137C418.363 319.075 418.767 324.047 419.975 328.852C412.955 336.22 411.938 336.246 412.449 337.252C418.332 348.178 417.996 349.108 419.149 348.965Z" fill="#093047"/>
<path d="M452.787 317.596C453.239 310.882 459.168 305.86 466.01 306.405C472.851 306.951 478.044 312.857 477.592 319.574C477.141 326.291 471.211 331.308 464.37 330.765C457.531 330.22 452.336 324.309 452.787 317.596ZM465.867 308.582C460.318 308.139 455.387 312.174 455.01 317.771C454.64 323.287 458.908 328.148 464.525 328.588C470.141 329.027 475.011 324.913 475.381 319.397C475.751 313.881 471.465 309.028 465.859 308.582H465.867Z" fill="white"/>
<path d="M454.37 347.671C452.652 347.023 450.991 346.231 449.405 345.305C449.18 345.177 449.008 344.973 448.919 344.73C448.83 344.486 448.83 344.22 448.919 343.976C448.941 343.918 448.969 343.861 449.002 343.808C449.155 343.558 449.4 343.378 449.684 343.308C449.968 343.238 450.268 343.283 450.52 343.433C452.347 344.5 454.279 345.375 456.286 346.044C471.45 351.098 487.752 343.464 493.224 328.974C493.359 328.604 493.495 328.23 493.631 327.851C498.696 312.544 490.085 296.04 474.56 290.862C459.035 285.684 442.285 293.792 437.224 309.057C434.217 318.144 436.845 324.242 436.492 325.176C436.109 326.193 434.614 326.069 434.368 325.013C432.975 319.072 433.383 312.851 435.54 307.144C445.123 281.769 481.224 280.223 493.806 304.625C497.671 312.135 498.364 320.634 495.742 328.555C495.606 328.962 495.463 329.369 495.311 329.776C492.53 337.145 487.019 343.159 479.922 346.571C472.337 350.264 463.602 350.818 455.611 348.113C455.188 347.966 454.777 347.822 454.37 347.671Z" fill="white"/>
<path d="M543.063 294.972C545.023 296.979 547.297 298.653 549.796 299.929L550.333 305.829C550.392 306.482 550.933 306.189 557.599 307.956C558.21 308.106 558.11 307.549 561.336 302.773C564.141 302.804 566.932 302.378 569.599 301.51L574.15 305.302C574.656 305.724 574.831 305.131 580.793 301.666C580.88 301.613 580.947 301.535 580.988 301.442C581.028 301.349 581.038 301.246 581.017 301.147L579.77 295.355C581.776 293.394 583.45 291.119 584.724 288.62C590.346 287.989 590.893 288.343 591.048 287.714C592.608 280.853 593.082 280.635 592.537 280.29L587.565 277.067C587.596 274.261 587.168 271.469 586.3 268.801L590.092 264.25C590.513 263.745 589.923 263.568 586.457 257.606C586.131 257.065 585.834 257.527 580.151 258.624C578.19 256.617 575.916 254.944 573.417 253.669L572.88 247.769C572.821 247.113 572.27 247.406 565.614 245.642C565.004 245.49 565.12 246.023 561.877 250.825C559.073 250.794 556.282 251.22 553.614 252.088L549.064 248.296C548.986 248.23 548.89 248.191 548.789 248.183C548.688 248.176 548.587 248.2 548.5 248.253L542.42 251.932C542.333 251.984 542.266 252.062 542.225 252.155C542.185 252.248 542.175 252.351 542.196 252.45L543.443 258.241C541.437 260.203 539.764 262.477 538.488 264.976C532.865 265.607 532.32 265.255 532.165 265.882C530.605 272.743 530.131 272.96 530.676 273.308L535.648 276.519C535.613 279.329 536.037 282.125 536.901 284.798C533.372 289.22 532.733 289.358 533.069 289.914L536.755 295.989C537.082 296.541 537.406 296.069 543.063 294.972Z" fill="#093047"/>
<path d="M554.192 276.851C554.182 275.384 554.608 273.947 555.415 272.722C556.223 271.497 557.375 270.54 558.726 269.97C560.078 269.4 561.568 269.244 563.008 269.522C564.448 269.799 565.774 270.497 566.817 271.528C567.861 272.559 568.575 273.877 568.87 275.314C569.164 276.751 569.026 278.243 568.473 279.602C567.92 280.961 566.976 282.125 565.761 282.947C564.547 283.769 563.116 284.212 561.649 284.221C559.684 284.23 557.795 283.459 556.397 282.078C554.999 280.696 554.206 278.817 554.192 276.851ZM556.401 276.837C556.411 278.216 556.968 279.536 557.949 280.506C558.93 281.476 560.255 282.017 561.635 282.011C566.244 281.982 568.551 276.354 565.264 273.103C561.976 269.851 556.374 272.198 556.401 276.837Z" fill="white"/>
<path d="M525.27 290.496C524.918 289.564 524.599 288.605 524.32 287.647C524.266 287.46 524.288 287.258 524.383 287.087C524.477 286.916 524.635 286.79 524.822 286.736C525.805 286.449 525.742 287.574 526.653 289.977C526.69 290.068 526.709 290.165 526.707 290.264C526.706 290.362 526.685 290.459 526.646 290.549C526.606 290.639 526.55 290.72 526.478 290.788C526.407 290.855 526.323 290.908 526.231 290.943C526.14 290.978 526.042 290.994 525.943 290.99C525.845 290.986 525.749 290.963 525.66 290.922C525.571 290.88 525.491 290.821 525.425 290.748C525.359 290.676 525.308 290.59 525.276 290.498L525.27 290.496Z" fill="#BDD0FB"/>
<path d="M522.801 277.919C522.743 275.894 522.842 273.868 523.096 271.858C523.22 270.889 524.681 271.081 524.559 272.045C523.879 277.38 524.791 278.601 523.558 278.635C523.363 278.64 523.174 278.568 523.032 278.434C522.89 278.299 522.807 278.114 522.801 277.919ZM525.981 263.284C525.8 263.21 525.656 263.068 525.58 262.888C525.503 262.709 525.501 262.506 525.574 262.325C526.33 260.445 527.233 258.627 528.273 256.888C528.774 256.052 530.037 256.807 529.536 257.645C528.536 259.318 527.668 261.066 526.941 262.875C526.865 263.054 526.723 263.198 526.544 263.274C526.364 263.35 526.162 263.354 525.981 263.284ZM534.608 250.361C534.508 250.324 534.417 250.265 534.343 250.188C534.275 250.12 534.221 250.038 534.184 249.949C534.147 249.86 534.127 249.764 534.127 249.667C534.127 249.57 534.147 249.475 534.184 249.385C534.221 249.296 534.275 249.215 534.343 249.146C535.785 247.724 537.336 246.417 538.981 245.236C539.14 245.128 539.335 245.086 539.524 245.12C539.713 245.153 539.881 245.259 539.993 245.415C540.105 245.571 540.152 245.765 540.123 245.955C540.094 246.145 539.993 246.316 539.84 246.432C538.257 247.569 536.765 248.828 535.377 250.196C535.277 250.293 535.152 250.36 535.016 250.39C534.88 250.419 534.738 250.409 534.608 250.361ZM547.651 241.931C547.511 241.878 547.391 241.784 547.306 241.661C547.221 241.538 547.176 241.392 547.176 241.242C547.176 241.093 547.221 240.947 547.306 240.824C547.391 240.701 547.511 240.607 547.651 240.554C549.541 239.825 551.486 239.247 553.467 238.824C553.657 238.787 553.854 238.825 554.015 238.932C554.177 239.038 554.29 239.204 554.33 239.393C554.37 239.582 554.335 239.78 554.231 239.943C554.127 240.106 553.963 240.222 553.774 240.265C551.868 240.671 549.998 241.228 548.18 241.929C548.01 241.995 547.822 241.996 547.651 241.931ZM562.501 238.706C562.509 238.511 562.595 238.327 562.738 238.195C562.882 238.062 563.073 237.992 563.268 238C565.292 238.086 567.306 238.328 569.293 238.726C570.245 238.914 569.96 240.364 569.002 240.171C567.091 239.789 565.154 239.555 563.207 239.473C563.012 239.465 562.828 239.379 562.696 239.235C562.564 239.092 562.495 238.901 562.503 238.706H562.501Z" fill="#BDD0FB"/>
<path d="M580.55 244.592C578.221 243.219 577.232 243.132 577.669 242.238C577.711 242.151 577.77 242.072 577.842 242.008C577.914 241.943 577.999 241.894 578.091 241.862C578.182 241.831 578.279 241.818 578.376 241.825C578.473 241.831 578.567 241.857 578.654 241.901C579.547 242.336 580.436 242.814 581.298 243.325C581.467 243.424 581.589 243.586 581.637 243.776C581.686 243.965 581.658 244.166 581.559 244.334C581.459 244.502 581.297 244.624 581.108 244.673C580.919 244.722 580.718 244.694 580.55 244.595V244.592Z" fill="#BDD0FB"/>
<path d="M598.233 269.43C597.7 266.769 597.108 265.971 598.064 265.713C598.157 265.686 598.255 265.678 598.351 265.689C598.447 265.701 598.54 265.731 598.625 265.778C598.709 265.825 598.784 265.889 598.843 265.965C598.903 266.041 598.948 266.128 598.974 266.222C599.244 267.176 599.48 268.159 599.677 269.139C599.697 269.234 599.697 269.332 599.678 269.427C599.659 269.522 599.622 269.612 599.569 269.693C599.515 269.773 599.446 269.843 599.366 269.897C599.286 269.95 599.196 269.988 599.101 270.007C599.006 270.026 598.908 270.027 598.813 270.008C598.718 269.989 598.628 269.952 598.548 269.898C598.467 269.845 598.398 269.776 598.344 269.696C598.29 269.615 598.252 269.525 598.233 269.43Z" fill="#BDD0FB"/>
<path d="M551.475 313.541C551.776 312.355 552.73 313.486 558.027 313.991C558.993 314.08 558.859 315.549 557.887 315.458C555.904 315.269 553.939 314.929 552.008 314.44C551.914 314.417 551.825 314.375 551.747 314.316C551.669 314.258 551.604 314.185 551.554 314.102C551.505 314.018 551.472 313.926 551.458 313.829C551.445 313.733 551.45 313.635 551.475 313.541ZM566.731 314.558C566.701 314.366 566.749 314.17 566.863 314.012C566.978 313.855 567.15 313.749 567.342 313.718C572.645 312.904 573.481 311.718 573.851 312.888C573.88 312.98 573.891 313.078 573.883 313.174C573.875 313.271 573.848 313.365 573.803 313.451C573.759 313.537 573.697 313.613 573.623 313.675C573.549 313.738 573.463 313.785 573.371 313.814C571.473 314.417 569.53 314.872 567.561 315.175C567.369 315.204 567.173 315.156 567.016 315.042C566.859 314.927 566.754 314.755 566.723 314.563L566.731 314.558ZM581.152 309.514C580.501 308.475 581.966 308.578 586.005 305.093C586.744 304.456 587.706 305.571 586.968 306.208C585.46 307.509 583.855 308.692 582.167 309.748C582.085 309.801 581.993 309.837 581.897 309.854C581.801 309.871 581.702 309.869 581.607 309.848C581.512 309.826 581.422 309.786 581.342 309.73C581.263 309.673 581.195 309.601 581.144 309.518L581.152 309.514ZM592.434 299.209C591.416 298.503 592.82 298.026 595.17 293.237C595.599 292.362 596.921 293.009 596.492 293.886C595.612 295.675 594.595 297.393 593.451 299.025C593.339 299.183 593.17 299.291 592.98 299.325C592.789 299.36 592.593 299.318 592.434 299.209ZM598.192 284.424C599.281 279.173 598.465 277.966 599.694 278.029C599.889 278.039 600.072 278.126 600.203 278.271C600.333 278.416 600.401 278.607 600.391 278.802C600.291 280.792 600.038 282.772 599.635 284.723C599.615 284.818 599.577 284.908 599.523 284.988C599.468 285.068 599.399 285.137 599.318 285.19C599.237 285.243 599.146 285.279 599.051 285.297C598.956 285.316 598.859 285.315 598.764 285.295C598.669 285.276 598.579 285.237 598.499 285.183C598.419 285.129 598.351 285.059 598.298 284.978C598.245 284.897 598.208 284.807 598.19 284.712C598.172 284.617 598.173 284.519 598.192 284.424Z" fill="#BDD0FB"/>
<path d="M542.966 310.871C542.091 310.391 541.224 309.87 540.39 309.327C540.23 309.218 540.119 309.05 540.081 308.86C540.043 308.67 540.081 308.472 540.187 308.31C540.748 307.453 541.43 308.346 543.684 309.583C543.855 309.677 543.982 309.835 544.037 310.023C544.091 310.21 544.069 310.412 543.976 310.583C543.882 310.755 543.724 310.882 543.536 310.937C543.349 310.991 543.147 310.969 542.976 310.875L542.966 310.871Z" fill="#BDD0FB"/>
<path d="M553.752 293.141C553.621 293.08 553.502 292.993 553.404 292.887C553.306 292.78 553.229 292.655 553.179 292.518C553.13 292.382 553.107 292.237 553.113 292.092C553.119 291.947 553.153 291.805 553.214 291.673C553.275 291.541 553.362 291.423 553.469 291.324C553.575 291.226 553.701 291.15 553.837 291.1C553.973 291.05 554.118 291.027 554.263 291.033C554.408 291.039 554.55 291.074 554.682 291.135C557.094 292.311 559.763 292.864 562.444 292.743C565.125 292.623 567.733 291.833 570.03 290.445C582.199 283.081 579.388 264.543 565.555 261.145C561.749 260.215 557.733 260.708 554.265 262.531C550.796 264.354 548.113 267.382 546.72 271.046C543.872 278.574 547.941 282.109 545.656 282.813C545.518 282.855 545.372 282.87 545.227 282.857C545.083 282.843 544.942 282.801 544.814 282.733C544.686 282.665 544.572 282.572 544.479 282.46C544.387 282.348 544.318 282.219 544.275 282.08C543.092 278.227 543.217 274.09 544.631 270.316C546.045 266.541 548.668 263.341 552.091 261.213C555.514 259.086 559.545 258.152 563.554 258.557C567.564 258.962 571.327 260.683 574.256 263.451C577.185 266.219 579.116 269.879 579.747 273.86C580.379 277.842 579.675 281.92 577.746 285.459C575.817 288.998 572.771 291.799 569.084 293.425C565.396 295.051 561.274 295.41 557.361 294.447C556.116 294.139 554.906 293.701 553.752 293.141Z" fill="white"/>
<path d="M391.302 664.286H306.968C304.197 664.286 301.951 666.533 301.951 669.304V693.291C301.951 696.062 304.197 698.309 306.968 698.309H391.302C394.072 698.309 396.318 696.062 396.318 693.291V669.304C396.318 666.533 394.072 664.286 391.302 664.286Z" fill="url(#paint5_linear_79_6681)"/>
<g opacity="0.8">
<path opacity="0.8" d="M454.441 522.362H264.162C262.643 522.362 261.412 523.594 261.412 525.113V538.343C261.412 539.862 262.643 541.094 264.162 541.094H454.441C455.96 541.094 457.191 539.862 457.191 538.343V525.113C457.191 523.594 455.96 522.362 454.441 522.362Z" fill="#32475A"/>
<path opacity="0.8" d="M236.3 543.027C242.57 543.027 247.653 537.943 247.653 531.671C247.653 525.4 242.57 520.315 236.3 520.315C230.03 520.315 224.947 525.4 224.947 531.671C224.947 537.943 230.03 543.027 236.3 543.027Z" fill="#32475A"/>
<path opacity="0.8" d="M454.441 557.514H264.162C262.643 557.514 261.412 558.746 261.412 560.265V573.495C261.412 575.014 262.643 576.246 264.162 576.246H454.441C455.96 576.246 457.191 575.014 457.191 573.495V560.265C457.191 558.746 455.96 557.514 454.441 557.514Z" fill="#32475A"/>
<path opacity="0.8" d="M238.348 576.422C244.117 574.039 246.862 567.429 244.479 561.659C242.096 555.889 235.489 553.144 229.72 555.527C223.952 557.91 221.207 564.52 223.59 570.29C225.972 576.059 232.58 578.805 238.348 576.422Z" fill="#32475A"/>
<path opacity="0.8" d="M454.441 592.664H264.162C262.643 592.664 261.412 593.896 261.412 595.415V608.645C261.412 610.164 262.643 611.396 264.162 611.396H454.441C455.96 611.396 457.191 610.164 457.191 608.645V595.415C457.191 593.896 455.96 592.664 454.441 592.664Z" fill="#32475A"/>
<path opacity="0.8" d="M236.3 613.329C242.57 613.329 247.653 608.245 247.653 601.973C247.653 595.701 242.57 590.617 236.3 590.617C230.03 590.617 224.947 595.701 224.947 601.973C224.947 608.245 230.03 613.329 236.3 613.329Z" fill="#32475A"/>
<path opacity="0.8" d="M454.441 627.816H264.162C262.643 627.816 261.412 629.048 261.412 630.567V643.797C261.412 645.316 262.643 646.548 264.162 646.548H454.441C455.96 646.548 457.191 645.316 457.191 643.797V630.567C457.191 629.048 455.96 627.816 454.441 627.816Z" fill="#32475A"/>
<path opacity="0.8" d="M240.647 647.616C246.439 645.216 249.19 638.573 246.791 632.779C244.391 626.984 237.75 624.233 231.958 626.633C226.165 629.033 223.414 635.676 225.813 641.47C228.213 647.264 234.854 650.016 240.647 647.616Z" fill="#32475A"/>
</g>
<path d="M173.461 358.336L169.651 361.28H169.641C169.51 361.38 169.345 361.425 169.182 361.404C169.019 361.383 168.871 361.298 168.77 361.168C168.669 361.037 168.625 360.873 168.646 360.709C168.667 360.546 168.752 360.398 168.882 360.297L172.765 357.41C172.888 357.325 173.038 357.291 173.185 357.315C173.331 357.338 173.464 357.418 173.553 357.536C173.643 357.655 173.684 357.803 173.667 357.951C173.65 358.099 173.577 358.234 173.463 358.329L173.461 358.336Z" fill="white"/>
<path d="M160.165 369.17C157.756 371.276 155.389 373.426 153.061 375.622C152.903 375.771 152.692 375.851 152.474 375.844C152.257 375.837 152.051 375.744 151.902 375.586C151.753 375.427 151.673 375.216 151.68 374.998C151.687 374.781 151.78 374.575 151.939 374.426C154.317 372.256 156.737 370.135 159.199 368.063C159.346 367.936 159.539 367.873 159.733 367.888C159.927 367.903 160.108 367.994 160.235 368.142C160.362 368.29 160.425 368.482 160.411 368.676C160.396 368.871 160.305 369.051 160.157 369.178L160.165 369.17Z" fill="white"/>
<path d="M144.273 384.276C142.047 386.573 139.866 388.909 137.729 391.286C137.645 391.387 137.542 391.47 137.426 391.53C137.309 391.59 137.182 391.625 137.051 391.635C136.92 391.645 136.789 391.628 136.665 391.585C136.541 391.543 136.427 391.476 136.33 391.388C136.232 391.3 136.154 391.194 136.098 391.075C136.043 390.956 136.013 390.827 136.008 390.696C136.004 390.565 136.026 390.435 136.074 390.313C136.121 390.191 136.193 390.079 136.284 389.985C138.472 387.621 140.701 385.297 142.973 383.015C143.056 382.93 143.156 382.862 143.265 382.816C143.375 382.769 143.492 382.745 143.611 382.744C143.73 382.743 143.848 382.765 143.958 382.81C144.068 382.854 144.169 382.92 144.254 383.003C144.338 383.087 144.406 383.186 144.452 383.295C144.499 383.405 144.523 383.523 144.524 383.641C144.525 383.76 144.503 383.878 144.458 383.989C144.414 384.099 144.348 384.199 144.265 384.284L144.273 384.276Z" fill="white"/>
<path d="M129.704 400.643C127.685 403.118 125.711 405.627 123.784 408.172C123.601 408.397 123.337 408.542 123.049 408.577C122.761 408.612 122.47 408.534 122.238 408.359C122.006 408.184 121.851 407.926 121.805 407.639C121.759 407.353 121.826 407.059 121.992 406.821V406.809C123.969 404.264 125.995 401.754 128.068 399.28C128.247 399.064 128.504 398.928 128.783 398.902C129.063 398.876 129.341 398.962 129.556 399.141C129.772 399.32 129.908 399.577 129.934 399.856C129.96 400.135 129.875 400.413 129.696 400.629L129.704 400.643Z" fill="white"/>
<path d="M116.606 418.189C114.811 420.824 113.069 423.499 111.38 426.212C111.294 426.359 111.179 426.487 111.043 426.59C110.907 426.692 110.751 426.766 110.586 426.807C110.42 426.848 110.248 426.855 110.08 426.829C109.912 426.802 109.75 426.742 109.606 426.651C109.461 426.561 109.336 426.443 109.238 426.304C109.14 426.164 109.071 426.006 109.035 425.84C108.999 425.673 108.996 425.501 109.028 425.333C109.06 425.166 109.125 425.006 109.219 424.865V424.85C110.965 422.137 112.762 419.46 114.61 416.817C114.792 416.554 115.071 416.373 115.386 416.315C115.701 416.257 116.026 416.327 116.289 416.509C116.553 416.691 116.733 416.97 116.791 417.285C116.849 417.6 116.779 417.925 116.597 418.189H116.606Z" fill="white"/>
<path d="M105.13 436.815C103.579 439.602 102.087 442.421 100.655 445.271C100.49 445.599 100.201 445.848 99.8523 445.962C99.5036 446.077 99.1236 446.049 98.7958 445.883C98.4681 445.718 98.2194 445.429 98.1046 445.08C97.9898 444.732 98.0182 444.352 98.1835 444.024C99.659 441.153 101.193 438.314 102.787 435.506C102.966 435.203 103.256 434.982 103.596 434.89C103.936 434.798 104.298 434.844 104.605 435.016C104.912 435.189 105.139 435.475 105.237 435.813C105.335 436.151 105.297 436.515 105.13 436.825V436.815Z" fill="white"/>
<path d="M95.4225 456.401C94.1477 459.323 92.9353 462.271 91.7853 465.246C91.6372 465.601 91.3562 465.885 91.0022 466.036C90.6482 466.187 90.2491 466.194 89.89 466.055C89.5309 465.917 89.2402 465.643 89.0797 465.293C88.9193 464.943 88.9018 464.544 89.031 464.182V464.169C90.2203 461.166 91.4741 458.19 92.7923 455.241C92.9539 454.905 93.2398 454.645 93.5895 454.516C93.9392 454.387 94.3254 454.4 94.6663 454.55C95.0072 454.701 95.2763 454.978 95.4167 455.323C95.557 455.669 95.5576 456.055 95.4184 456.401H95.4225Z" fill="white"/>
<path d="M87.6804 476.831C86.7026 479.863 85.7906 482.915 84.9443 485.987C84.834 486.389 84.5689 486.73 84.2072 486.935C83.8455 487.141 83.417 487.194 83.0159 487.084C82.6148 486.974 82.2739 486.708 82.0683 486.347C81.8627 485.985 81.8091 485.556 81.9195 485.155V485.143C82.8023 482.034 83.7516 478.946 84.7674 475.879C84.8936 475.494 85.1677 475.174 85.5294 474.991C85.891 474.808 86.3106 474.776 86.6958 474.902C87.081 475.028 87.4003 475.303 87.5834 475.664C87.7665 476.026 87.7985 476.446 87.6722 476.831H87.6804Z" fill="white"/>
<path d="M82.0253 497.921C81.3567 501.041 80.7567 504.168 80.225 507.303C80.1887 507.518 80.1104 507.724 79.9945 507.909C79.8787 508.094 79.7276 508.254 79.5498 508.38C79.3721 508.507 79.1711 508.597 78.9586 508.646C78.746 508.694 78.5259 508.701 78.3108 508.664C78.0958 508.628 77.89 508.55 77.7053 508.434C77.5205 508.318 77.3603 508.167 77.234 507.989C77.1076 507.811 77.0175 507.61 76.9687 507.398C76.92 507.185 76.9136 506.965 76.95 506.75V506.735C77.5155 503.55 78.1508 500.381 78.856 497.227C78.9774 496.839 79.2401 496.51 79.592 496.305C79.944 496.101 80.3598 496.036 80.7575 496.123C81.1551 496.21 81.5056 496.443 81.7399 496.776C81.9743 497.109 82.0754 497.517 82.0233 497.921H82.0253Z" fill="white"/>
<path d="M78.604 519.463C78.2745 522.636 77.9992 525.813 77.7781 528.994C77.769 529.229 77.7128 529.459 77.613 529.672C77.5131 529.884 77.3715 530.075 77.1967 530.231C77.0219 530.388 76.8174 530.508 76.5953 530.584C76.3732 530.661 76.1381 530.692 75.9038 530.675C75.6696 530.659 75.441 530.596 75.2317 530.489C75.0223 530.383 74.8365 530.236 74.6852 530.056C74.5338 529.876 74.4201 529.668 74.3507 529.444C74.2814 529.219 74.2578 528.983 74.2813 528.75V528.735C74.5308 525.516 74.836 522.303 75.1967 519.095C75.2526 518.649 75.4813 518.243 75.8337 517.964C76.186 517.685 76.6337 517.556 77.0803 517.605C77.527 517.653 77.9367 517.875 78.2214 518.222C78.506 518.57 78.6427 519.016 78.602 519.463H78.604Z" fill="white"/>
<path d="M77.1684 541.283C77.0748 544.472 77.0423 547.66 77.0382 550.846C77.0382 551.334 76.8445 551.802 76.4996 552.147C76.1547 552.492 75.687 552.686 75.1993 552.686C74.7116 552.686 74.2438 552.492 73.899 552.147C73.5541 551.802 73.3604 551.334 73.3604 550.846C73.3604 547.617 73.4438 544.39 73.5638 541.165C73.5818 540.688 73.788 540.238 74.1371 539.913C74.4863 539.588 74.95 539.414 75.4268 539.43C75.9037 539.446 76.3548 539.65 76.6816 539.997C77.0084 540.345 77.1841 540.808 77.1704 541.285L77.1684 541.283Z" fill="white"/>
<path d="M77.2978 563.148C77.4334 566.333 77.6206 569.515 77.8592 572.693C77.8779 572.938 77.8482 573.184 77.7718 573.418C77.6954 573.651 77.5738 573.867 77.4139 574.053C77.254 574.24 77.0589 574.393 76.8399 574.504C76.6209 574.615 76.3821 574.682 76.1373 574.7C75.6428 574.738 75.1536 574.578 74.7773 574.255C74.4009 573.932 74.1683 573.473 74.1305 572.978C73.8946 569.758 73.7142 566.533 73.5894 563.305C73.5795 563.061 73.6177 562.818 73.7018 562.59C73.7858 562.361 73.9141 562.151 74.0793 561.971C74.2445 561.792 74.4433 561.647 74.6645 561.545C74.8857 561.443 75.1249 561.385 75.3683 561.375C75.6118 561.365 75.8549 561.403 76.0836 561.487C76.3124 561.571 76.5223 561.7 76.7015 561.865C76.8807 562.03 77.0255 562.229 77.1278 562.45C77.2302 562.672 77.2879 562.911 77.2978 563.154V563.148Z" fill="white"/>
<path d="M79.0722 584.92C79.4628 588.082 79.9123 591.234 80.4209 594.375C80.4687 594.625 80.4661 594.881 80.4131 595.13C80.3601 595.378 80.2578 595.614 80.1123 595.822C79.9668 596.03 79.7811 596.207 79.566 596.342C79.3509 596.478 79.1109 596.568 78.8602 596.609C78.6095 596.65 78.3531 596.64 78.1063 596.58C77.8595 596.52 77.6272 596.411 77.4232 596.26C77.2191 596.108 77.0475 595.918 76.9185 595.699C76.7894 595.48 76.7055 595.238 76.6718 594.986C76.1619 591.791 75.7144 588.589 75.3292 585.38C75.2688 584.883 75.4081 584.383 75.7166 583.989C76.025 583.595 76.4773 583.339 76.9739 583.279C77.4705 583.219 77.9708 583.358 78.3647 583.666C78.7586 583.975 79.0138 584.427 79.0742 584.924L79.0722 584.92Z" fill="white"/>
<path d="M82.7148 606.433C83.3928 609.541 84.1387 612.63 84.9524 615.701C85.0254 615.948 85.0481 616.208 85.0193 616.464C84.9905 616.72 84.9107 616.968 84.7846 617.193C84.6585 617.417 84.4887 617.615 84.2851 617.773C84.0816 617.931 83.8485 618.047 83.5995 618.113C83.3505 618.18 83.0907 618.196 82.8355 618.16C82.5802 618.125 82.3346 618.039 82.1132 617.907C81.8918 617.775 81.699 617.6 81.5462 617.392C81.3934 617.185 81.2838 616.949 81.2237 616.698C80.3951 613.567 79.6411 610.419 78.9616 607.253C78.8537 606.756 78.9476 606.236 79.2227 605.809C79.4978 605.381 79.9314 605.08 80.4283 604.972C80.9252 604.864 81.4446 604.958 81.8722 605.233C82.2999 605.508 82.6008 605.942 82.7087 606.439L82.7148 606.433Z" fill="white"/>
<path d="M88.4904 627.433C89.5035 630.442 90.5959 633.422 91.7676 636.372C91.8628 636.611 91.9099 636.867 91.9063 637.125C91.9027 637.382 91.8484 637.637 91.7465 637.873C91.6446 638.11 91.4971 638.324 91.3124 638.504C91.1277 638.684 90.9095 638.825 90.6701 638.92C90.4307 639.016 90.175 639.063 89.9174 639.059C89.6598 639.056 89.4055 639.001 89.1689 638.899C88.9323 638.797 88.7181 638.65 88.5385 638.465C88.3589 638.28 88.2175 638.062 88.1222 637.823C86.9329 634.806 85.8256 631.758 84.8004 628.679C84.6361 628.189 84.673 627.654 84.9031 627.191C85.1331 626.729 85.5374 626.377 86.027 626.213C86.5166 626.048 87.0514 626.085 87.5138 626.315C87.9761 626.545 88.3282 626.95 88.4925 627.439L88.4904 627.433Z" fill="white"/>
<path d="M96.696 647.557C98.0861 650.405 99.5622 653.207 101.124 655.96C101.267 656.188 101.362 656.442 101.404 656.707C101.446 656.973 101.433 657.244 101.368 657.504C101.302 657.765 101.185 658.009 101.022 658.223C100.86 658.437 100.656 658.616 100.422 658.749C100.189 658.882 99.9309 658.966 99.6641 658.997C99.3973 659.027 99.1271 659.004 98.8697 658.927C98.6122 658.851 98.3729 658.723 98.1661 658.551C97.9593 658.38 97.7893 658.169 97.6663 657.93C96.0674 655.098 94.5601 652.218 93.1443 649.29C92.915 648.819 92.8825 648.275 93.054 647.779C93.2255 647.283 93.5868 646.876 94.0586 646.646C94.5304 646.417 95.074 646.384 95.5698 646.556C96.0655 646.727 96.4728 647.089 96.7021 647.561L96.696 647.557Z" fill="white"/>
<path d="M107.61 666.297C109.407 668.898 111.294 671.434 113.27 673.903C113.568 674.323 113.695 674.841 113.624 675.352C113.553 675.863 113.289 676.327 112.888 676.65C112.486 676.973 111.976 677.131 111.462 677.09C110.948 677.049 110.469 676.814 110.123 676.432C108.088 673.884 106.153 671.266 104.315 668.578C104.021 668.139 103.912 667.602 104.011 667.083C104.111 666.564 104.41 666.106 104.845 665.806C105.28 665.507 105.816 665.391 106.335 665.483C106.855 665.576 107.318 665.87 107.623 666.301L107.61 666.297Z" fill="white"/>
<path d="M121.326 683.03C123.527 685.295 125.811 687.472 128.179 689.561C128.386 689.738 128.555 689.955 128.678 690.198C128.8 690.441 128.873 690.706 128.892 690.978C128.911 691.249 128.876 691.522 128.789 691.78C128.701 692.038 128.564 692.275 128.384 692.48C128.203 692.684 127.985 692.85 127.74 692.969C127.495 693.087 127.229 693.156 126.957 693.171C126.685 693.186 126.413 693.147 126.157 693.056C125.9 692.964 125.665 692.823 125.463 692.64C123.022 690.47 120.669 688.214 118.403 685.875C118.216 685.682 118.068 685.455 117.969 685.206C117.87 684.957 117.821 684.69 117.824 684.422C117.828 684.154 117.885 683.889 117.991 683.643C118.097 683.396 118.25 683.173 118.442 682.986C118.634 682.799 118.862 682.652 119.111 682.553C119.36 682.453 119.626 682.404 119.894 682.408C120.162 682.412 120.427 682.468 120.674 682.574C120.92 682.68 121.143 682.834 121.33 683.026L121.326 683.03Z" fill="white"/>
<path d="M137.684 697.159C138.962 698.087 140.256 698.99 141.566 699.869C142.874 700.756 144.21 701.58 145.547 702.435L145.61 702.473C146.068 702.767 146.392 703.23 146.509 703.762C146.626 704.294 146.527 704.85 146.233 705.309C145.94 705.768 145.477 706.091 144.945 706.208C144.413 706.325 143.857 706.226 143.399 705.932C142.025 705.056 140.632 704.209 139.279 703.3C137.927 702.39 136.582 701.468 135.26 700.516C135.035 700.359 134.843 700.159 134.696 699.927C134.55 699.695 134.45 699.437 134.404 699.166C134.358 698.896 134.367 698.619 134.429 698.352C134.491 698.084 134.605 697.832 134.765 697.61C134.926 697.387 135.129 697.198 135.363 697.055C135.596 696.912 135.856 696.816 136.128 696.774C136.399 696.732 136.675 696.745 136.942 696.811C137.208 696.877 137.458 696.995 137.678 697.159H137.684Z" fill="white"/>
<path d="M156.201 708.324C159.034 709.718 161.918 711.007 164.853 712.19C165.347 712.387 165.744 712.773 165.954 713.262C166.164 713.752 166.172 714.304 165.975 714.799C165.777 715.294 165.392 715.69 164.903 715.901C164.413 716.111 163.86 716.119 163.366 715.921C160.336 714.718 157.353 713.404 154.415 711.978C153.977 711.717 153.653 711.301 153.507 710.813C153.361 710.324 153.404 709.798 153.627 709.34C153.85 708.881 154.237 708.523 154.712 708.336C155.186 708.15 155.713 708.148 156.189 708.332L156.201 708.324Z" fill="white"/>
<path d="M176.363 716.175C179.394 717.072 182.455 717.861 185.547 718.544C185.8 718.599 186.039 718.703 186.251 718.851C186.463 718.999 186.644 719.187 186.783 719.405C186.923 719.622 187.018 719.865 187.064 720.12C187.109 720.374 187.104 720.635 187.049 720.888C186.993 721.14 186.889 721.379 186.741 721.591C186.594 721.804 186.406 721.985 186.188 722.124C185.97 722.263 185.727 722.359 185.473 722.404C185.219 722.45 184.958 722.445 184.705 722.389C181.525 721.699 178.371 720.898 175.244 719.986C174.992 719.915 174.756 719.795 174.55 719.632C174.345 719.469 174.173 719.267 174.046 719.038C173.919 718.809 173.838 718.556 173.809 718.296C173.78 718.035 173.803 717.771 173.876 717.519C173.949 717.267 174.072 717.033 174.237 716.828C174.401 716.624 174.605 716.455 174.835 716.329C175.065 716.204 175.318 716.126 175.579 716.099C175.84 716.072 176.104 716.098 176.355 716.173L176.363 716.175Z" fill="white"/>
<path d="M197.565 720.662C200.705 721.081 203.856 721.401 207.02 721.622C207.53 721.657 208.005 721.893 208.341 722.279C208.677 722.664 208.845 723.167 208.81 723.677C208.775 724.187 208.539 724.662 208.154 724.998C207.769 725.334 207.266 725.503 206.756 725.468C203.516 725.249 200.284 724.933 197.059 724.52C196.546 724.454 196.081 724.186 195.765 723.777C195.45 723.368 195.309 722.85 195.375 722.337C195.441 721.825 195.708 721.359 196.118 721.044C196.527 720.728 197.045 720.588 197.557 720.654L197.565 720.662Z" fill="white"/>
<path d="M219.244 722.031C222.417 722.021 225.591 721.926 228.764 721.749C229.254 721.736 229.729 721.915 230.089 722.247C230.449 722.579 230.666 723.037 230.694 723.526C230.722 724.015 230.559 724.496 230.239 724.867C229.919 725.237 229.467 725.469 228.98 725.513C225.745 725.707 222.506 725.815 219.262 725.838C219.007 725.848 218.753 725.807 218.514 725.716C218.276 725.626 218.058 725.488 217.873 725.312C217.689 725.136 217.542 724.924 217.441 724.69C217.34 724.455 217.287 724.203 217.285 723.948C217.284 723.692 217.333 723.439 217.431 723.204C217.529 722.968 217.674 722.755 217.856 722.576C218.038 722.397 218.254 722.257 218.492 722.163C218.729 722.07 218.983 722.025 219.238 722.031H219.244Z" fill="white"/>
<path d="M240.971 720.676C244.13 720.302 247.279 719.856 250.418 719.337C250.9 719.257 251.395 719.37 251.793 719.654C252.192 719.938 252.461 720.369 252.542 720.851C252.623 721.334 252.509 721.829 252.225 722.227C251.941 722.625 251.511 722.895 251.028 722.976C247.839 723.518 244.637 723.985 241.423 724.375C240.933 724.436 240.439 724.299 240.05 723.994C239.66 723.69 239.408 723.244 239.348 722.754C239.288 722.263 239.425 721.769 239.729 721.38C240.033 720.991 240.479 720.738 240.969 720.678L240.971 720.676Z" fill="white"/>
<path d="M262.485 717.048C265.604 716.37 268.704 715.638 271.785 714.851C272.228 714.74 272.697 714.809 273.09 715.042C273.482 715.275 273.768 715.653 273.883 716.094C273.999 716.536 273.937 717.006 273.709 717.401C273.481 717.797 273.106 718.087 272.666 718.208C269.547 719.046 266.412 719.824 263.26 720.542C262.804 720.63 262.332 720.537 261.943 720.283C261.554 720.03 261.279 719.635 261.176 719.182C261.072 718.729 261.149 718.254 261.39 717.856C261.63 717.459 262.016 717.171 262.465 717.052L262.485 717.048Z" fill="white"/>
<path d="M283.614 711.518C286.664 710.583 289.697 709.597 292.713 708.559C293.116 708.418 293.558 708.443 293.943 708.628C294.328 708.813 294.623 709.144 294.764 709.547C294.905 709.95 294.881 710.393 294.695 710.778C294.51 711.162 294.18 711.458 293.777 711.599C290.74 712.684 287.683 713.717 284.606 714.698C284.398 714.765 284.179 714.79 283.96 714.772C283.742 714.754 283.53 714.693 283.335 714.593C283.141 714.493 282.968 714.355 282.827 714.188C282.685 714.021 282.578 713.828 282.511 713.62C282.444 713.411 282.419 713.192 282.437 712.973C282.455 712.755 282.516 712.543 282.616 712.348C282.716 712.154 282.854 711.981 283.021 711.839C283.188 711.698 283.381 711.591 283.589 711.524L283.614 711.518Z" fill="white"/>
<path d="M304.263 704.309C307.235 703.145 310.188 701.933 313.122 700.673C313.483 700.515 313.892 700.508 314.259 700.652C314.626 700.796 314.921 701.08 315.078 701.441C315.236 701.802 315.243 702.211 315.099 702.578C314.955 702.945 314.671 703.24 314.31 703.397C311.361 704.701 308.391 705.959 305.402 707.172C305.031 707.295 304.627 707.272 304.272 707.109C303.916 706.945 303.637 706.652 303.49 706.289C303.343 705.926 303.339 705.521 303.48 705.156C303.62 704.791 303.895 704.493 304.247 704.323L304.263 704.309Z" fill="white"/>
<path d="M324.326 695.58C327.205 694.199 330.062 692.77 332.896 691.293C333.214 691.137 333.58 691.112 333.917 691.222C334.253 691.332 334.534 691.569 334.698 691.882C334.863 692.196 334.899 692.561 334.799 692.901C334.699 693.241 334.47 693.528 334.161 693.702C331.313 695.216 328.455 696.699 325.565 698.125C325.396 698.234 325.207 698.305 325.008 698.335C324.81 698.365 324.608 698.353 324.415 698.3C324.222 698.246 324.042 698.152 323.888 698.025C323.733 697.897 323.608 697.738 323.519 697.559C323.43 697.379 323.38 697.183 323.372 696.982C323.364 696.782 323.399 696.582 323.474 696.396C323.548 696.21 323.661 696.042 323.805 695.903C323.949 695.764 324.121 695.656 324.31 695.588L324.326 695.58Z" fill="white"/>
<path d="M343.671 685.35C346.426 683.738 349.145 682.068 351.831 680.34C352.094 680.167 352.414 680.106 352.722 680.17C353.031 680.234 353.301 680.418 353.473 680.681C353.646 680.944 353.707 681.265 353.643 681.573C353.579 681.881 353.396 682.151 353.133 682.324C350.451 684.119 347.733 685.856 344.977 687.535C344.689 687.711 344.343 687.765 344.015 687.685C343.687 687.605 343.404 687.399 343.229 687.111C343.053 686.823 342.999 686.476 343.079 686.148C343.158 685.82 343.365 685.537 343.653 685.362L343.671 685.35Z" fill="white"/>
<path d="M362.002 673.402C364.591 671.531 367.142 669.608 369.655 667.631C369.86 667.467 370.121 667.391 370.382 667.42C370.643 667.449 370.882 667.58 371.046 667.785C371.21 667.99 371.286 668.251 371.257 668.512C371.228 668.773 371.097 669.012 370.892 669.176C368.397 671.21 365.859 673.196 363.278 675.133C363.165 675.225 363.036 675.292 362.897 675.332C362.757 675.372 362.611 675.384 362.468 675.366C362.324 675.348 362.185 675.302 362.06 675.229C361.935 675.156 361.825 675.059 361.738 674.943C361.652 674.827 361.589 674.695 361.554 674.554C361.52 674.414 361.514 674.267 361.537 674.124C361.561 673.981 361.613 673.845 361.69 673.722C361.768 673.6 361.869 673.494 361.988 673.412L362.002 673.402Z" fill="white"/>
<path d="M379.138 659.759C381.544 657.655 383.9 655.486 386.229 653.301C386.38 653.164 386.579 653.092 386.782 653.099C386.986 653.106 387.179 653.191 387.32 653.338C387.462 653.485 387.541 653.68 387.541 653.884C387.541 654.088 387.461 654.284 387.32 654.43C385.033 656.697 382.694 658.91 380.304 661.069C380.131 661.226 379.904 661.307 379.671 661.296C379.439 661.285 379.22 661.182 379.064 661.009C378.907 660.837 378.826 660.609 378.837 660.377C378.848 660.144 378.951 659.926 379.124 659.769L379.138 659.759Z" fill="white"/>
<path d="M394.993 644.606L398.292 641.096C398.396 640.984 398.54 640.916 398.692 640.91C398.845 640.903 398.994 640.957 399.107 641.061C399.22 641.164 399.287 641.308 399.294 641.461C399.3 641.614 399.246 641.763 399.143 641.876L395.929 645.473C395.874 645.537 395.806 645.589 395.731 645.626C395.655 645.663 395.573 645.685 395.489 645.691C395.405 645.696 395.321 645.685 395.242 645.657C395.162 645.629 395.089 645.586 395.026 645.53C394.963 645.474 394.912 645.406 394.876 645.33C394.84 645.254 394.819 645.172 394.815 645.087C394.811 645.003 394.824 644.919 394.853 644.84C394.881 644.761 394.926 644.688 394.983 644.626V644.616L394.993 644.606Z" fill="white"/>
<path d="M377.08 485.752H227.834C226.485 485.752 225.393 486.845 225.393 488.194V502.042C225.393 503.39 226.485 504.484 227.834 504.484H377.08C378.428 504.484 379.521 503.39 379.521 502.042V488.194C379.521 486.845 378.428 485.752 377.08 485.752Z" fill="#58AFE6" fill-opacity="0.42"/>
<path d="M382.797 585.597L412.439 628.589L428.807 590.025L382.797 585.597Z" fill="#01456B"/>
<path d="M559.074 427.591L513.216 609.495C512.781 611.218 512.002 612.836 510.928 614.251C509.853 615.667 508.504 616.851 506.961 617.734C505.419 618.616 503.714 619.178 501.95 619.387C500.185 619.596 498.396 619.446 496.69 618.948L315.828 566.013C314.815 565.719 313.913 565.128 313.238 564.317C312.563 563.506 312.146 562.511 312.04 561.461C311.935 560.411 312.146 559.353 312.646 558.424C313.146 557.494 313.913 556.736 314.848 556.246L559.074 427.591Z" fill="url(#paint6_linear_79_6681)"/>
<path d="M382.814 585.593L559.065 427.591L411.977 594.224L419.689 606.498L382.814 585.593Z" fill="#01456B"/>
<path d="M429.304 599.214L412.438 628.589L411.977 594.225L429.304 599.214Z" fill="#002F49"/>
<g filter="url(#filter0_f_79_6681)">
<circle cx="465" cy="311" r="111" fill="#47DBFC" fill-opacity="0.6"/>
</g>
<g filter="url(#filter1_f_79_6681)">
<circle cx="572" cy="284" r="55" fill="#47DBFC" fill-opacity="0.6"/>
</g>
<defs>
<filter id="filter0_f_79_6681" x="154" y="0" width="622" height="622" filterUnits="userSpaceOnUse" color-interpolation-filters="sRGB">
<feFlood flood-opacity="0" result="BackgroundImageFix"/>
<feBlend mode="normal" in="SourceGraphic" in2="BackgroundImageFix" result="shape"/>
<feGaussianBlur stdDeviation="100" result="effect1_foregroundBlur_79_6681"/>
</filter>
<filter id="filter1_f_79_6681" x="317" y="29" width="510" height="510" filterUnits="userSpaceOnUse" color-interpolation-filters="sRGB">
<feFlood flood-opacity="0" result="BackgroundImageFix"/>
<feBlend mode="normal" in="SourceGraphic" in2="BackgroundImageFix" result="shape"/>
<feGaussianBlur stdDeviation="100" result="effect1_foregroundBlur_79_6681"/>
</filter>
<linearGradient id="paint0_linear_79_6681" x1="58.2168" y1="273.951" x2="58.2168" y2="609.318" gradientUnits="userSpaceOnUse">
<stop stop-color="#30759A"/>
<stop offset="1" stop-color="#000B11"/>
</linearGradient>
<linearGradient id="paint1_linear_79_6681" x1="357.105" y1="615.502" x2="86.2707" y2="372.484" gradientUnits="userSpaceOnUse">
<stop stop-color="#1B334B"/>
<stop offset="1" stop-color="#418AB8"/>
</linearGradient>
<linearGradient id="paint2_linear_79_6681" x1="42.3232" y1="577.424" x2="42.3232" y2="757.082" gradientUnits="userSpaceOnUse">
<stop stop-color="#30759A"/>
<stop offset="1" stop-color="#000B11"/>
</linearGradient>
<linearGradient id="paint3_linear_79_6681" x1="251.58" y1="382.595" x2="289.017" y2="420.022" gradientUnits="userSpaceOnUse">
<stop stop-color="#72C2F5"/>
<stop offset="1" stop-color="#4CA6E0"/>
</linearGradient>
<linearGradient id="paint4_linear_79_6681" x1="241.979" y1="418.76" x2="241.979" y2="462.088" gradientUnits="userSpaceOnUse">
<stop stop-color="#72C2F5"/>
<stop offset="1" stop-color="#4CA6E0"/>
</linearGradient>
<linearGradient id="paint5_linear_79_6681" x1="301.951" y1="664.286" x2="301.951" y2="698.309" gradientUnits="userSpaceOnUse">
<stop stop-color="#72C2F5"/>
<stop offset="1" stop-color="#4CA6E0"/>
</linearGradient>
<linearGradient id="paint6_linear_79_6681" x1="312.014" y1="427.591" x2="312.014" y2="619.479" gradientUnits="userSpaceOnUse">
<stop stop-color="#72C2F5"/>
<stop offset="1" stop-color="#4CA6E0"/>
</linearGradient>
</defs>
</svg>
