<svg width="22" height="26" viewBox="0 0 22 26" fill="none" xmlns="http://www.w3.org/2000/svg">
<path d="M3.70297 23.1835C4.53657 24.2259 5.7891 25.2353 7.23064 25.2353C8.05083 25.2353 8.74747 24.847 9.4963 24.5637C10.1859 24.3078 10.9151 24.1765 11.65 24.1754C12.3592 24.1713 13.0619 24.3099 13.7169 24.5831C14.0643 24.7306 14.4079 24.8878 14.761 25.0236C15.1192 25.1628 15.5 25.2346 15.8841 25.2353C16.5946 25.2271 17.2861 25.0032 17.868 24.5928C19.5585 23.4281 20.8111 21.3821 21.6988 19.5906C21.7875 19.4121 21.8725 19.2315 21.9574 19.0529C22.0984 18.754 21.8764 18.3754 21.4827 18.1581C19.7458 17.1991 18.7289 15.716 18.559 13.6701C18.3891 11.6241 19.1803 10.0091 20.7687 8.83649L21.0812 8.57825C21.2549 8.43456 21.1603 8.03663 20.8342 7.72604V7.72587C19.6328 6.53587 18.0235 5.85507 16.3375 5.82352C16.0103 5.82369 15.6838 5.85091 15.361 5.90498C13.8943 6.15733 12.7171 6.86012 11.3354 6.86012C10.9162 6.86047 10.4994 6.79495 10.1003 6.66601C8.94238 6.2932 7.79224 5.82352 6.56093 5.82352C6.42584 5.82352 6.28886 5.82352 6.15187 5.84102C4.63385 6.00377 3.21661 6.68231 2.13383 7.76467C-0.000559495 9.88056 -0.303468 13.1671 0.229125 15.9446C0.740545 18.6351 1.99872 21.0596 3.70285 23.1831L3.70297 23.1835Z" fill="white"/>
<path d="M10.3982 5.82158C10.4267 5.82418 10.4553 5.82418 10.4839 5.82158C14.6905 5.00245 15.1505 1.60967 15.1764 0.370717C15.1782 0.269369 15.1396 0.171918 15.0696 0.101567C14.9997 0.0314007 14.905 -0.00516488 14.8081 0.000589625C14.7726 0.000589625 14.7372 0.00467328 14.7025 0.0130262C10.4542 1.04005 10.0123 4.23957 10 5.4349C10.002 5.54182 10.0455 5.64354 10.1205 5.7163C10.1957 5.78925 10.2958 5.82715 10.3982 5.82158Z" fill="white"/>
</svg>
