<svg width="102" height="103" viewBox="0 0 102 103" fill="none" xmlns="http://www.w3.org/2000/svg">
<path d="M48.565 33.6386H22.2815L20.5507 25.5264C20.1184 23.4711 18.2789 21.957 16.1158 21.957H4.54283C2.05528 22.0649 0 24.0123 0 26.4999C0 28.9874 2.05528 31.0427 4.54283 31.0427H12.655L21.1995 70.3057C22.6058 76.6871 28.3384 81.3385 34.9363 81.3385H70.63C77.2279 81.3385 82.9606 76.6879 84.3669 70.1978L87.9362 53.2158C84.9077 54.2978 81.5548 54.838 78.0932 54.838C64.3564 54.8387 52.675 45.969 48.5648 33.6381L48.565 33.6386Z" fill="url(#paint0_linear_103_6961)"/>
<path d="M42.7244 94.6425C42.7244 99.1225 39.0923 102.755 34.6122 102.755C30.1321 102.755 26.5 99.1225 26.5 94.6425C26.5 90.1624 30.1321 86.5303 34.6122 86.5303C39.0923 86.5303 42.7244 90.1624 42.7244 94.6425Z" fill="url(#paint1_linear_103_6961)"/>
<path d="M78.9588 94.6425C78.9588 99.1225 75.3266 102.755 70.8466 102.755C66.3657 102.755 62.7344 99.1225 62.7344 94.6425C62.7344 90.1624 66.3657 86.5303 70.8466 86.5303C75.3266 86.5303 78.9588 90.1624 78.9588 94.6425Z" fill="url(#paint2_linear_103_6961)"/>
<path d="M77.9845 0C64.8964 0 54.2969 10.5997 54.2969 23.6876C54.2969 36.7755 64.8966 47.3752 77.9845 47.3752C91.0726 47.3752 101.672 36.7755 101.672 23.6876C101.672 10.5997 91.0724 0 77.9845 0ZM80.5806 36.2345V39.0465C80.5806 39.5875 80.1483 40.0198 79.6073 40.0198H76.5787C76.0378 40.0198 75.6055 39.5875 75.6055 39.0465V36.3425C72.4691 36.018 70.0894 33.5304 69.7651 30.3933C69.7651 30.0689 69.8729 29.8523 69.9816 29.6358C70.1981 29.4193 70.4139 29.3114 70.7391 29.3114H73.7677C74.2 29.3114 74.6331 29.6358 74.7409 30.0689C74.9575 30.8264 75.6063 31.3666 76.3631 31.3666H78.9586C80.3649 31.3666 81.5547 30.3933 81.7706 28.987C81.8785 28.2295 81.6627 27.4728 81.1218 26.9317C80.5808 26.3907 79.9319 26.0663 79.1752 26.0663H77.2287C73.1183 26.0663 69.6575 23.0378 69.333 19.1439C68.9007 15.1421 71.6048 11.5727 75.6064 10.9238V8.2197C75.6064 7.67874 76.0388 7.24641 76.5797 7.24641H79.6083C80.1493 7.24641 80.5816 7.67874 80.5816 8.2197V10.9238C83.7179 11.2482 86.0977 13.7358 86.422 16.8729C86.422 17.0894 86.3141 17.4139 86.2054 17.6304C85.9889 17.847 85.7731 17.9548 85.4479 17.9548H82.4194C81.9871 17.9548 81.554 17.6304 81.4461 17.1973C81.2295 16.4398 80.5807 15.8996 79.8239 15.8996H77.1199C75.7135 15.8996 74.5238 16.8729 74.3078 18.2792C74.2 19.0367 74.4157 19.7934 74.9567 20.3345C75.4977 20.8755 76.1465 21.1999 76.9033 21.1999H79.1751C81.3381 21.1999 83.3934 22.0653 84.7997 23.6874C86.3139 25.3096 86.9628 27.3648 86.7462 29.6366C86.4211 32.7729 83.9336 35.477 80.5806 36.2345Z" fill="url(#paint3_linear_103_6961)"/>
<defs>
<linearGradient id="paint0_linear_103_6961" x1="0" y1="21.957" x2="0" y2="81.3385" gradientUnits="userSpaceOnUse">
<stop stop-color="white"/>
<stop offset="1" stop-color="#CDD9E1"/>
</linearGradient>
<linearGradient id="paint1_linear_103_6961" x1="26.5" y1="86.5303" x2="26.5" y2="102.755" gradientUnits="userSpaceOnUse">
<stop stop-color="white"/>
<stop offset="1" stop-color="#CDD9E1"/>
</linearGradient>
<linearGradient id="paint2_linear_103_6961" x1="62.7344" y1="86.5303" x2="62.7344" y2="102.755" gradientUnits="userSpaceOnUse">
<stop stop-color="white"/>
<stop offset="1" stop-color="#CDD9E1"/>
</linearGradient>
<linearGradient id="paint3_linear_103_6961" x1="54.2969" y1="0" x2="54.2969" y2="47.3752" gradientUnits="userSpaceOnUse">
<stop stop-color="white"/>
<stop offset="1" stop-color="#CDD9E1"/>
</linearGradient>
</defs>
</svg>
