<svg width="102" height="103" viewBox="0 0 102 103" fill="none" xmlns="http://www.w3.org/2000/svg">
<path d="M48.5924 33.6659H22.3088L20.5781 25.5537C20.1457 23.4985 18.3063 21.9844 16.1432 21.9844H4.57017C2.08263 22.0923 0.0273438 24.0397 0.0273438 26.5272C0.0273438 29.0148 2.08263 31.07 4.57017 31.07H12.6824L21.2268 70.3331C22.6332 76.7145 28.3658 81.3659 34.9637 81.3659H70.6574C77.2553 81.3659 82.9879 76.7153 84.3942 70.2251L87.9636 53.2432C84.935 54.3251 81.5822 54.8653 78.1206 54.8653C64.3837 54.8661 52.7024 45.9964 48.5922 33.6654L48.5924 33.6659Z" fill="url(#paint0_linear_103_6847)"/>
<path d="M42.7517 94.6698C42.7517 99.1499 39.1196 102.782 34.6395 102.782C30.1595 102.782 26.5273 99.1499 26.5273 94.6698C26.5273 90.1898 30.1595 86.5576 34.6395 86.5576C39.1196 86.5576 42.7517 90.1898 42.7517 94.6698Z" fill="url(#paint1_linear_103_6847)"/>
<path d="M78.9861 94.6698C78.9861 99.1499 75.354 102.782 70.8739 102.782C66.3931 102.782 62.7617 99.1499 62.7617 94.6698C62.7617 90.1898 66.3931 86.5576 70.8739 86.5576C75.354 86.5576 78.9861 90.1898 78.9861 94.6698Z" fill="url(#paint2_linear_103_6847)"/>
<path d="M78.0118 0.0273438C64.9238 0.0273438 54.3242 10.6271 54.3242 23.715C54.3242 36.8028 64.924 47.4026 78.0118 47.4026C91.0999 47.4026 101.699 36.8028 101.699 23.715C101.699 10.6271 91.0997 0.0273438 78.0118 0.0273438ZM80.6079 36.2618V39.0739C80.6079 39.6148 80.1756 40.0472 79.6346 40.0472H76.6061C76.0651 40.0472 75.6328 39.6148 75.6328 39.0739V36.3698C72.4965 36.0454 70.1167 33.5578 69.7924 30.4207C69.7924 30.0962 69.9003 29.8797 70.0089 29.6632C70.2255 29.4466 70.4413 29.3387 70.7664 29.3387H73.795C74.2273 29.3387 74.6604 29.6632 74.7683 30.0962C74.9848 30.8537 75.6337 31.3939 76.3904 31.3939H78.9859C80.3923 31.3939 81.582 30.4207 81.798 29.0144C81.9059 28.2569 81.6901 27.5001 81.1491 26.9591C80.6081 26.418 79.9593 26.0937 79.2026 26.0937H77.256C73.1457 26.0937 69.6848 23.0651 69.3604 19.1713C68.928 15.1695 71.6322 11.6001 75.6338 10.9511V8.24705C75.6338 7.70608 76.0661 7.27376 76.6071 7.27376H79.6356C80.1766 7.27376 80.6089 7.70608 80.6089 8.24705V10.9511C83.7452 11.2755 86.125 13.7631 86.4493 16.9003C86.4493 17.1168 86.3414 17.4412 86.2328 17.6578C86.0162 17.8743 85.8005 17.9822 85.4753 17.9822H82.4467C82.0144 17.9822 81.5813 17.6578 81.4734 17.2247C81.2569 16.4672 80.608 15.927 79.8513 15.927H77.1472C75.7409 15.927 74.5511 16.9003 74.3352 18.3065C74.2273 19.064 74.4431 19.8208 74.9841 20.3618C75.525 20.9028 76.1739 21.2272 76.9306 21.2272H79.2024C81.3655 21.2272 83.4207 22.0926 84.827 23.7148C86.3413 25.3369 86.9901 27.3921 86.7736 29.6639C86.4484 32.8002 83.961 35.5043 80.6079 36.2618Z" fill="url(#paint3_linear_103_6847)"/>
<defs>
<linearGradient id="paint0_linear_103_6847" x1="0.0273438" y1="21.9844" x2="0.0273438" y2="81.3659" gradientUnits="userSpaceOnUse">
<stop stop-color="#72C2F5"/>
<stop offset="1" stop-color="#4CA6E0"/>
</linearGradient>
<linearGradient id="paint1_linear_103_6847" x1="26.5273" y1="86.5576" x2="26.5273" y2="102.782" gradientUnits="userSpaceOnUse">
<stop stop-color="#72C2F5"/>
<stop offset="1" stop-color="#4CA6E0"/>
</linearGradient>
<linearGradient id="paint2_linear_103_6847" x1="62.7617" y1="86.5576" x2="62.7617" y2="102.782" gradientUnits="userSpaceOnUse">
<stop stop-color="#72C2F5"/>
<stop offset="1" stop-color="#4CA6E0"/>
</linearGradient>
<linearGradient id="paint3_linear_103_6847" x1="54.3242" y1="0.0273438" x2="54.3242" y2="47.4026" gradientUnits="userSpaceOnUse">
<stop stop-color="#72C2F5"/>
<stop offset="1" stop-color="#4CA6E0"/>
</linearGradient>
</defs>
</svg>
