<svg width="125" height="75" viewBox="0 0 125 75" fill="none" xmlns="http://www.w3.org/2000/svg">
<path d="M54.6468 18.1401H28.7618C3.86745 18.1401 -8.68826 48.3922 8.93073 66.0131C14.0099 71.0923 21.0106 74.2181 28.7618 74.2181C50.6562 74.2181 47.6681 58.4376 62.7528 58.4376C78.5995 58.4376 75.5283 74.2181 96.733 74.2181C121.627 74.2181 134.183 43.9767 116.564 26.3612C111.485 21.282 104.484 18.1395 96.733 18.1395H60.5418C60.5418 13.6508 59.4795 6.49673 65.994 6.49673L77.3407 6.65013C81.161 7.59156 83.7615 0.59082 76.0273 0.59082C59.4304 0.59082 54.6466 0.727412 54.6466 18.1396L54.6468 18.1401ZM95.322 51.1735C102.838 51.1735 102.838 62.6355 95.322 62.6355C87.8064 62.6345 87.8064 51.1735 95.322 51.1735ZM15.3946 47.7849C11.5027 47.7849 11.5027 41.8894 15.3946 41.8894L23.6816 41.8841V33.5971C23.6816 29.7053 29.593 29.7053 29.593 33.5971V41.8841H37.8851C41.7716 41.8841 41.7716 47.785 37.8851 47.785H29.593V56.0887C29.593 59.9636 23.687 59.9636 23.687 56.0887V47.785L15.3946 47.7849ZM83.2959 39.4371C90.822 39.4371 90.822 50.8825 83.2959 50.8825C75.7803 50.8835 75.7803 39.4371 83.2959 39.4371ZM107.336 39.4371C114.846 39.4371 114.846 50.8825 107.336 50.8825C99.8204 50.8835 99.8204 39.4371 107.336 39.4371ZM95.3212 27.7018C102.837 27.7018 102.837 39.1471 95.3212 39.1471C87.8056 39.1471 87.8056 27.7018 95.3212 27.7018Z" fill="url(#paint0_linear_103_6814)"/>
<defs>
<linearGradient id="paint0_linear_103_6814" x1="0.701172" y1="0.59082" x2="0.701172" y2="74.2181" gradientUnits="userSpaceOnUse">
<stop stop-color="#72C2F5"/>
<stop offset="1" stop-color="#4CA6E0"/>
</linearGradient>
</defs>
</svg>
