<svg width="125" height="74" viewBox="0 0 125 74" fill="none" xmlns="http://www.w3.org/2000/svg">
<path d="M53.9457 17.5492H28.0606C3.16628 17.5492 -9.38943 47.8014 8.22956 65.4223C13.3087 70.5014 20.3094 73.6273 28.0606 73.6273C49.9551 73.6273 46.967 57.8468 62.0516 57.8468C77.8983 57.8468 74.8271 73.6273 96.0319 73.6273C120.926 73.6273 133.482 43.3858 115.863 25.7703C110.784 20.6912 103.783 17.5487 96.0319 17.5487H59.8406C59.8406 13.06 58.7784 5.90591 65.2929 5.90591L76.6395 6.05931C80.4598 7.00074 83.0603 0 75.3261 0C58.7293 0 53.9454 0.136591 53.9454 17.5488L53.9457 17.5492ZM94.6208 50.5827C102.136 50.5827 102.136 62.0447 94.6208 62.0447C87.1052 62.0437 87.1052 50.5827 94.6208 50.5827ZM14.6934 47.1941C10.8015 47.1941 10.8015 41.2986 14.6934 41.2986L22.9804 41.2933V33.0063C22.9804 29.1144 28.8918 29.1144 28.8918 33.0063V41.2933H37.1839C41.0704 41.2933 41.0704 47.1942 37.1839 47.1942H28.8918V55.4979C28.8918 59.3728 22.9858 59.3728 22.9858 55.4979V47.1942L14.6934 47.1941ZM82.5947 38.8463C90.1208 38.8463 90.1208 50.2916 82.5947 50.2916C75.0791 50.2927 75.0791 38.8463 82.5947 38.8463ZM106.635 38.8463C114.145 38.8463 114.145 50.2916 106.635 50.2916C99.1192 50.2927 99.1192 38.8463 106.635 38.8463ZM94.62 27.1109C102.136 27.1109 102.136 38.5563 94.62 38.5563C87.1044 38.5563 87.1044 27.1109 94.62 27.1109Z" fill="url(#paint0_linear_103_6959)"/>
<defs>
<linearGradient id="paint0_linear_103_6959" x1="0" y1="0" x2="0" y2="73.6273" gradientUnits="userSpaceOnUse">
<stop stop-color="white"/>
<stop offset="1" stop-color="#CDD9E1"/>
</linearGradient>
</defs>
</svg>
