<svg width="100" height="66" viewBox="0 0 100 66" fill="none" xmlns="http://www.w3.org/2000/svg">
<path fill-rule="evenodd" clip-rule="evenodd" d="M42.0429 16.32C42.2387 15.6083 42.0429 14.9973 41.5539 14.5908L37.4465 10.9285C36.3708 10.0132 36.9581 8.0804 38.4246 7.97894L43.7046 7.57164C44.2912 7.57164 44.8778 7.16435 45.0735 6.55412L47.1273 1.46797C47.7139 0.0438806 49.5718 0.0438806 50.1584 1.46797L52.2123 6.55412C52.408 7.16506 52.9946 7.47018 53.5812 7.57164L58.6661 7.97894C60.1333 8.0803 60.7199 9.91102 59.6442 10.9285L55.6349 14.4892C55.2434 14.998 55.0483 15.6082 55.1459 16.2184L56.4173 21.6097C56.7106 23.0338 55.2441 24.2543 53.9727 23.4404L49.4743 20.5921C48.9852 20.287 48.3011 20.287 47.812 20.5921L43.3136 23.4404C42.0422 24.2544 40.5757 23.0338 40.869 21.6097L42.0429 16.32ZM66.2023 44.3395H96.1322V44.3396C97.6854 44.3396 99.0319 45.5937 99.0319 47.2645V62.2023C99.0319 63.769 97.6853 65.1271 96.1322 65.1271H3.54627C1.99303 65.1271 0.646484 63.7689 0.646484 62.2023V47.1602C0.646484 45.5935 1.99311 44.2354 3.54627 44.2354H33.4762V31.8047C33.4762 30.238 34.8228 28.8799 36.3759 28.8799H63.3025C64.8557 28.8799 66.2023 30.2381 66.2023 31.8047V44.3395ZM8.69081 30.0236C9.22969 30.4302 9.4454 31.0412 9.22969 31.7529L7.82876 37.1443C7.50557 38.5685 9.12148 39.789 10.5224 38.9751L15.4792 36.1267C16.018 35.8216 16.7719 35.8216 17.3108 36.1267L22.2675 38.9751C23.6684 39.789 25.2844 38.5685 24.9612 37.1443L23.5602 31.7529C23.4527 31.1426 23.6677 30.4302 24.0991 30.0236L28.5169 26.4628C29.7022 25.4453 29.0558 23.6145 27.4391 23.5131L21.6212 23.1065C20.9748 23.0051 20.3285 22.6999 20.1128 22.089L17.8497 17.0027C17.2034 15.5785 15.1561 15.5785 14.5098 17.0027L12.2467 22.089C12.031 22.6992 11.3846 23.1065 10.7383 23.1065L4.92034 23.5131C3.30445 23.6146 2.65728 25.5475 3.84257 26.4628L8.69081 30.0236ZM73.9582 31.7529C74.1739 31.0412 73.9582 30.4302 73.4193 30.0236L68.5711 26.4628C67.3858 25.5475 68.033 23.6146 69.6489 23.5131L75.4668 23.1065C76.1131 23.1065 76.7595 22.6992 76.9752 22.089L79.2383 17.0027C79.8846 15.5785 81.9319 15.5785 82.5782 17.0027L84.8413 22.089C85.057 22.6999 85.7034 23.0051 86.3497 23.1065L92.1677 23.5131C93.7843 23.6145 94.4307 25.4453 93.2454 26.4628L88.8276 30.0236C88.3962 30.4302 88.1813 31.1426 88.2887 31.7529L89.6897 37.1443C90.0129 38.5685 88.3969 39.789 86.996 38.9751L82.0393 36.1267C81.5004 35.8216 80.7466 35.8216 80.2077 36.1267L75.2509 38.9751C73.85 39.789 72.2341 38.5685 72.5573 37.1443L73.9582 31.7529Z" fill="url(#paint0_linear_103_6822)"/>
<defs>
<linearGradient id="paint0_linear_103_6822" x1="0.646484" y1="0.399902" x2="0.646484" y2="65.1272" gradientUnits="userSpaceOnUse">
<stop stop-color="#72C2F5"/>
<stop offset="1" stop-color="#4CA6E0"/>
</linearGradient>
</defs>
</svg>
