<svg width="99" height="65" viewBox="0 0 99 65" fill="none" xmlns="http://www.w3.org/2000/svg">
<path fill-rule="evenodd" clip-rule="evenodd" d="M41.3964 15.9201C41.5922 15.2084 41.3964 14.5974 40.9074 14.1909L36.8 10.5286C35.7243 9.61331 36.3116 7.6805 37.7781 7.57903L43.0581 7.17174C43.6447 7.17174 44.2313 6.76445 44.427 6.15422L46.4808 1.06807C47.0674 -0.356022 48.9254 -0.356022 49.512 1.06807L51.5658 6.15422C51.7615 6.76516 52.3481 7.07027 52.9347 7.17174L58.0196 7.57903C59.4868 7.68039 60.0734 9.51112 58.9978 10.5286L54.9884 14.0893C54.5969 14.5981 54.4019 15.2083 54.4994 15.8185L55.7708 21.2098C56.0641 22.6339 54.5976 23.8544 53.3262 23.0405L48.8278 20.1922C48.3388 19.8871 47.6546 19.8871 47.1656 20.1922L42.6672 23.0405C41.3958 23.8545 39.9293 22.6339 40.2226 21.2098L41.3964 15.9201ZM65.5558 43.9395H95.4857V43.9397C97.0389 43.9397 98.3855 45.1938 98.3855 46.8646V61.8024C98.3855 63.3691 97.0388 64.7272 95.4857 64.7272H2.89978C1.34655 64.7272 0 63.369 0 61.8024V46.7603C0 45.1936 1.34662 43.8355 2.89978 43.8355H32.8297V31.4048C32.8297 29.8381 34.1763 28.48 35.7295 28.48H62.656C64.2092 28.48 65.5558 29.8382 65.5558 31.4048V43.9395ZM8.04432 29.6237C8.58321 30.0303 8.79891 30.6413 8.58321 31.353L7.18227 36.7444C6.85909 38.1686 8.475 39.3891 9.87594 38.5751L14.8327 35.7268C15.3716 35.4217 16.1254 35.4217 16.6643 35.7268L21.621 38.5751C23.0219 39.3891 24.6379 38.1686 24.3147 36.7444L22.9137 31.353C22.8063 30.7427 23.0212 30.0303 23.4526 29.6237L27.8704 26.0629C29.0557 25.0454 28.4093 23.2146 26.7927 23.1132L20.9747 22.7066C20.3284 22.6052 19.682 22.3 19.4663 21.6891L17.2032 16.6028C16.5569 15.1786 14.5096 15.1786 13.8633 16.6028L11.6002 21.6891C11.3845 22.2993 10.7381 22.7066 10.0918 22.7066L4.27386 23.1132C2.65797 23.2147 2.01079 25.1476 3.19608 26.0629L8.04432 29.6237ZM73.3117 31.353C73.5274 30.6413 73.3117 30.0303 72.7728 29.6237L67.9246 26.0629C66.7393 25.1476 67.3865 23.2147 69.0024 23.1132L74.8203 22.7066C75.4667 22.7066 76.113 22.2993 76.3287 21.6891L78.5918 16.6028C79.2381 15.1786 81.2854 15.1786 81.9318 16.6028L84.1948 21.6891C84.4105 22.3 85.0569 22.6052 85.7032 22.7066L91.5212 23.1132C93.1378 23.2146 93.7842 25.0454 92.599 26.0629L88.1811 29.6237C87.7497 30.0303 87.5348 30.7427 87.6423 31.353L89.0432 36.7444C89.3664 38.1686 87.7505 39.3891 86.3495 38.5751L81.3928 35.7268C80.8539 35.4217 80.1001 35.4217 79.5612 35.7268L74.6045 38.5751C73.2035 39.3891 71.5876 38.1686 71.9108 36.7444L73.3117 31.353Z" fill="url(#paint0_linear_103_6966)"/>
<defs>
<linearGradient id="paint0_linear_103_6966" x1="0" y1="0" x2="0" y2="64.7273" gradientUnits="userSpaceOnUse">
<stop stop-color="white"/>
<stop offset="1" stop-color="#CDD9E1"/>
</linearGradient>
</defs>
</svg>
