<svg width="20" height="20" viewBox="0 0 20 20" fill="none" xmlns="http://www.w3.org/2000/svg">
<path d="M19.4146 0.584921C18.6347 -0.194974 17.3702 -0.194974 16.5903 0.584921L9.99976 7.17548L3.40921 0.584921C2.62931 -0.194974 1.36481 -0.194974 0.584921 0.584921C-0.194974 1.36481 -0.194974 2.62931 0.584921 3.40944L7.17548 10L0.584921 16.5906C-0.194974 17.3704 -0.194974 18.6349 0.584921 19.4151C1.36481 20.195 2.62931 20.195 3.40944 19.4151L10 12.8245L16.5906 19.4151C17.3704 20.195 18.6349 20.195 19.4148 19.4151C20.1947 18.6352 20.1947 17.3707 19.4148 16.5906L12.8243 10L19.4148 3.40944C20.1947 2.62955 20.1947 1.36505 19.4148 0.584921H19.4146Z" fill="white"/>
</svg>
