<svg width="15" height="16" viewBox="0 0 15 16" fill="none" xmlns="http://www.w3.org/2000/svg">
<path d="M14.4186 8.30935C14.3894 8.59651 14.1871 8.86904 13.8463 9.08071L4.2498 15.0649H4.24949C3.86368 15.3189 3.31508 15.4728 2.72753 15.4921C2.14028 15.5112 1.56426 15.394 1.13039 15.167C0.6965 14.9399 0.441211 14.6223 0.42296 14.2863C0.4044 13.9501 0.624386 13.624 1.03272 13.3819L9.28011 8.23918L1.03272 3.09649C0.624386 2.85439 0.404399 2.52826 0.42296 2.19223C0.441216 1.8562 0.6965 1.53842 1.13039 1.31147C1.56428 1.08449 2.14028 0.967265 2.72753 0.986398C3.31508 1.0057 3.86368 1.15963 4.24949 1.41357L13.846 7.39779H13.8463C14.2443 7.64511 14.4506 7.97386 14.4186 8.30953V8.30935Z" fill="white"/>
</svg>
