<svg width="21" height="25" viewBox="0 0 21 25" fill="none" xmlns="http://www.w3.org/2000/svg">
<path fill-rule="evenodd" clip-rule="evenodd" d="M20.596 2.39463C20.8191 2.39463 21 2.57556 21 2.79877C21 3.02169 20.8191 3.20262 20.596 3.20262H19.9723C19.8622 3.20262 19.7695 3.29591 19.7653 3.40328L19.0425 22.2099C18.9999 23.3175 18.0689 24.212 16.9616 24.212H4.03842C2.92964 24.212 2 23.3177 1.95752 22.2099L1.2347 3.40328C1.23048 3.29252 1.13893 3.20262 1.02765 3.20262H0.403964C0.180852 3.20262 0 3.02169 0 2.79877C0 2.57556 0.180852 2.39463 0.403964 2.39463H5.98248C6.09601 2.39463 6.22109 2.31233 6.26334 2.20693L6.51885 1.56747C6.78731 0.896158 7.55775 0.374512 8.2789 0.374512H12.7214C13.4448 0.374512 14.2122 0.894195 14.4814 1.56747L14.8122 2.39463L20.596 2.39463ZM10 8.03255V21.736C10 21.9587 10.2238 22.1392 10.5 22.1392C10.7762 22.1392 11 21.9587 11 21.736V8.03255C11 7.80989 10.7762 7.62939 10.5 7.62939C10.2238 7.62939 10 7.80989 10 8.03255ZM6.33354 21.7479L6.00014 8.04428C5.9948 7.82161 6.13964 7.63605 6.32354 7.62958C6.50767 7.62284 6.66111 7.798 6.66646 8.02038L6.99986 21.7243C7.0052 21.9467 6.8606 22.1325 6.67646 22.139C6.49256 22.1455 6.33888 21.9706 6.33354 21.7479ZM14.3335 8.02066L14.0001 21.7243C13.9948 21.9467 14.1394 22.1325 14.3235 22.139C14.5074 22.1455 14.6611 21.9706 14.6665 21.7479L14.9999 8.04427C15.0052 7.8216 14.8604 7.63605 14.6765 7.62958C14.4923 7.62284 14.3389 7.79799 14.3335 8.02037V8.02066ZM12.8583 3.48375H6.14202H6.14194C6.02849 3.48375 5.97045 3.41339 6.01507 3.32109L6.15449 3.03313C6.30561 2.72155 6.79556 2.44733 7.20038 2.44733H11.7998C12.2067 2.44733 12.6938 2.71987 12.8457 3.03313L12.9852 3.32109C13.0286 3.41097 12.9738 3.48375 12.8583 3.48375Z" fill="white"/>
</svg>
