<svg width="10" height="19" viewBox="0 0 10 19" fill="none" xmlns="http://www.w3.org/2000/svg">
<path d="M0.00228804 9.64684C0.0230015 10.016 0.166488 10.3664 0.408144 10.6386L7.2132 18.3326H7.21341C7.487 18.6591 7.87602 18.857 8.29267 18.8818C8.70909 18.9064 9.11756 18.7557 9.42522 18.4639C9.7329 18.1718 9.91393 17.7635 9.92687 17.3315C9.94003 16.8992 9.78404 16.4799 9.49448 16.1687L3.64611 9.55662L9.49448 2.94459C9.78404 2.63331 9.94004 2.214 9.92687 1.78196C9.91393 1.34992 9.7329 0.941342 9.42522 0.649554C9.11754 0.357725 8.70909 0.207005 8.29267 0.231604C7.87602 0.256426 7.487 0.45433 7.21341 0.780821L0.40836 8.47482H0.408144C0.125922 8.79281 -0.0203642 9.21548 0.00228804 9.64707V9.64684Z" fill="white"/>
</svg>
