<svg width="10" height="19" viewBox="0 0 10 19" fill="none" xmlns="http://www.w3.org/2000/svg">
<path d="M9.92349 9.64684C9.90278 10.016 9.75929 10.3664 9.51764 10.6386L2.71258 18.3326H2.71237C2.43878 18.6591 2.04976 18.857 1.63311 18.8818C1.21669 18.9064 0.808221 18.7557 0.500558 18.4639C0.192878 18.1718 0.0118477 17.7635 -0.00109409 17.3315C-0.0142557 16.8992 0.141741 16.4799 0.431298 16.1687L6.27967 9.55662L0.431298 2.94459C0.141741 2.63331 -0.0142568 2.214 -0.00109409 1.78196C0.0118515 1.34992 0.192878 0.941342 0.500558 0.649554C0.808238 0.357725 1.21669 0.207005 1.63311 0.231604C2.04976 0.256426 2.43878 0.45433 2.71237 0.780821L9.51742 8.47482H9.51764C9.79986 8.79281 9.94615 9.21548 9.92349 9.64707V9.64684Z" fill="white"/>
</svg>
