<svg width="35" height="36" viewBox="0 0 35 36" fill="none" xmlns="http://www.w3.org/2000/svg">
<ellipse cx="17.1523" cy="18.0653" rx="17" ry="17.619" fill="#62B6EC"/>
<path fill-rule="evenodd" clip-rule="evenodd" d="M24.5496 15.8318C24.4161 15.6046 24.1658 15.4861 23.7987 15.4762H9.65503V23.2474H7.15234V12.8833H23.8131C24.633 12.8833 25.3576 13.1426 25.9868 13.6612C26.7638 14.3032 27.1523 15.1971 27.1523 16.343V16.7726H24.6568V16.2985L24.6497 16.2392C24.6497 16.1948 24.6473 16.1528 24.6425 16.1133C24.6234 16.0096 24.5925 15.9157 24.5496 15.8318ZM26.0169 17.7761C26.7739 18.3879 27.1523 19.2465 27.1523 20.3517V23.2474H12.5455L11.1523 20.7572H24.7213V20.3019L24.7144 20.2521C24.7144 20.2094 24.7121 20.169 24.7074 20.1311C24.6888 20.0267 24.6587 19.9366 24.6169 19.8607C24.4868 19.6425 24.243 19.5263 23.8855 19.5121L12.5455 19.5192L11.1523 17.029H23.8994C24.6981 17.029 25.404 17.278 26.0169 17.7761Z" fill="white"/>
</svg>
