<svg width="933" height="275" viewBox="0 0 933 275" fill="none" xmlns="http://www.w3.org/2000/svg">
<path fill-rule="evenodd" clip-rule="evenodd" d="M1 18.8923L36.4819 24.4189L76.5491 3.67871L115.823 18.8923L154.806 56.002L192.476 18.8923L232.651 8.53538L270.994 35.6099H310.512L350.044 129.351L387.744 119.372L427.351 113.918L504.602 140.592L543.102 113.918L581.542 72.1351L621.456 67.725L661.029 82.2524L737.637 129.351L782.308 140.592L814.143 129.351L856.309 257.437H894.988L932 272.109H1V18.8923Z" fill="url(#paint0_linear_988_66121)"/>
<path d="M1 18.8923L36.4819 24.4189L76.5491 3.67871L115.823 18.8923L154.806 56.002L192.476 18.8923L232.651 8.53538L270.994 35.6099H310.512L350.044 129.351L387.744 119.372L427.351 113.918L504.602 140.592L543.102 113.918L581.542 72.1351L621.456 67.725L661.029 82.2524L737.637 129.351L782.308 140.592L814.143 129.351L856.309 257.437H894.988L932 272.109" stroke="#62B6EC" stroke-width="5"/>
<defs>
<linearGradient id="paint0_linear_988_66121" x1="1037.81" y1="235.389" x2="1037.81" y2="-41.8527" gradientUnits="userSpaceOnUse">
<stop stop-opacity="0.01"/>
<stop offset="1" stop-color="#26BCFF"/>
</linearGradient>
</defs>
</svg>
