<svg width="23" height="24" viewBox="0 0 23 24" fill="none" xmlns="http://www.w3.org/2000/svg">
<path fill-rule="evenodd" clip-rule="evenodd" d="M13.8236 8.72955C13.5983 8.71613 13.3933 8.58617 13.2748 8.38149L13.2743 8.38126C13.159 8.18527 13.1456 7.93983 13.2391 7.73079L14.4235 5.68514C12.9706 4.85837 11.2941 4.59167 9.67755 4.93014C8.06105 5.26844 6.60408 6.19135 5.55353 7.54229C4.5028 8.8934 3.92298 10.5894 3.91202 12.3435C3.90125 14.0971 4.45995 15.8014 5.49384 17.1669C6.52773 18.5325 7.97309 19.4758 9.58515 19.8369C11.1971 20.198 12.8769 19.9548 14.3399 19.1486C15.8029 18.3422 16.9594 17.0225 17.6131 15.4125C18.2669 13.8028 18.3782 12.0018 17.928 10.3145L21.5696 10.3257H21.5853C21.6213 10.3257 21.6559 10.3195 21.6906 10.3133C21.7146 10.309 21.7385 10.3048 21.763 10.3025C22.1679 12.6496 21.8831 15.0725 20.9474 17.2411C20.0118 19.4096 18.4707 21.218 16.5344 22.42C14.5981 23.6219 12.361 24.1586 10.1277 23.9572C7.89413 23.7556 5.77354 22.8258 4.05479 21.294C2.33605 19.7624 1.10275 17.7036 0.523061 15.3984C-0.0566087 13.0933 0.0454647 10.6537 0.815602 8.41254C1.58574 6.17152 2.98624 4.2379 4.82625 2.8751C6.66625 1.51252 8.85632 0.787128 11.0977 0.798103C12.9529 0.800734 14.7756 1.31599 16.3873 2.29397L17.472 0.4206C17.6062 0.238035 17.8189 0.141355 18.0357 0.164523C18.2523 0.178286 18.4465 0.310503 18.5493 0.51397L22.0868 7.88117C22.18 8.07141 22.1735 8.29979 22.0694 8.48375C21.9662 8.66597 21.7806 8.77693 21.5807 8.77588L13.8236 8.72955ZM17.928 10.3145C17.928 10.3145 17.9279 10.3144 17.9279 10.3144V10.3145H17.928ZM11.1523 15.7073C12.8092 15.7073 14.1523 14.3153 14.1523 12.5982C14.1523 10.8809 12.8092 9.48886 11.1523 9.48886C9.49549 9.48886 8.15234 10.8809 8.15234 12.5982C8.15234 14.3153 9.49549 15.7073 11.1523 15.7073Z" fill="white"/>
</svg>
