<svg width="22" height="13" viewBox="0 0 22 13" fill="none" xmlns="http://www.w3.org/2000/svg">
<path d="M11.1063 12.9971C11.5417 12.9709 11.9549 12.7891 12.2758 12.483L21.3493 3.86289V3.86261C21.7343 3.51605 21.9677 3.02327 21.9969 2.4955C22.0259 1.968 21.8482 1.45059 21.5041 1.06087C21.1596 0.671122 20.6781 0.441807 20.1686 0.425413C19.6589 0.408741 19.1644 0.606345 18.7974 0.973133L10.9999 8.38139L3.20244 0.973133C2.83535 0.606345 2.34087 0.40874 1.83137 0.425413C1.32188 0.441812 0.840048 0.671122 0.495947 1.06087C0.151799 1.45061 -0.0259424 1.96801 0.00306679 2.4955C0.0323387 3.02327 0.265723 3.51606 0.650749 3.86261L9.72415 12.4827V12.483C10.0992 12.8405 10.5976 13.0258 11.1066 12.9971H11.1063Z" fill="#62B6EC"/>
</svg>
