<svg width="12" height="12" viewBox="0 0 12 12" fill="none" xmlns="http://www.w3.org/2000/svg">
<path d="M11.6488 0.350952C11.1808 -0.116984 10.4221 -0.116984 9.95419 0.350952L5.99986 4.30529L2.04552 0.350952C1.57759 -0.116984 0.818889 -0.116984 0.350952 0.350952C-0.116984 0.818889 -0.116984 1.57759 0.350952 2.04567L4.30529 6L0.350952 9.95433C-0.116984 10.4223 -0.116984 11.181 0.350952 11.649C0.818889 12.117 1.57759 12.117 2.04567 11.649L6 7.69471L9.95433 11.649C10.4223 12.117 11.181 12.117 11.6489 11.649C12.1168 11.1811 12.1168 10.4224 11.6489 9.95433L7.69457 6L11.6489 2.04567C12.1168 1.57773 12.1168 0.819032 11.6489 0.350952H11.6488Z" fill="#767676"/>
</svg>
