<svg width="14" height="12" viewBox="0 0 14 12" fill="none" xmlns="http://www.w3.org/2000/svg">
<path d="M13.3736 0.267548C13.2158 0.156022 13.0377 0.0769901 12.8496 0.0349673C12.6615 -0.00705552 12.467 -0.0112462 12.2773 0.022635C12.0875 0.0565162 11.9063 0.127805 11.7439 0.23243C11.5814 0.337054 11.441 0.472965 11.3306 0.632397L5.75326 8.67484L2.09633 6.15263C1.80303 5.95006 1.44204 5.87342 1.09279 5.93959C0.743528 6.00575 0.434606 6.2093 0.233979 6.50544C0.033352 6.80158 -0.0425451 7.16606 0.0229839 7.51871C0.0885129 7.87135 0.2901 8.18327 0.583399 8.38584L5.48531 11.7665C5.63629 11.8705 5.8069 11.942 5.98649 11.9765C6.16607 12.0109 6.35076 12.0075 6.52901 11.9666C6.71912 11.933 6.90081 11.8619 7.06365 11.7573C7.22649 11.6527 7.36728 11.5167 7.47796 11.3571L13.7352 2.3315C13.9582 2.00922 14.0454 1.61072 13.9775 1.22358C13.9097 0.83644 13.6924 0.492332 13.3734 0.266873" fill="white"/>
</svg>
