<svg width="29" height="20" viewBox="0 0 29 20" fill="none" xmlns="http://www.w3.org/2000/svg">
<path fill-rule="evenodd" clip-rule="evenodd" d="M26.1159 0C26.559 0.000805806 26.9956 0.107343 27.3893 0.310731L14.4591 9.14515L1.35184 0.41404C1.7907 0.144069 2.29574 0.000605336 2.81107 0H26.1159ZM14.8005 10.6199C14.8217 10.6084 14.8424 10.5961 14.8626 10.5826L14.8672 10.5796L28.4693 1.28645C28.7676 1.74106 28.9266 2.27315 28.9264 2.81692V17.183C28.9243 17.9284 28.6277 18.6428 28.1011 19.1705C27.5746 19.6981 26.861 19.9964 26.1156 20H2.81076C2.06539 19.9963 1.35169 19.6981 0.82528 19.1705C0.298624 18.6428 0.00201796 17.9284 0 17.183V2.81692C-0.000201205 2.33849 0.12288 1.86835 0.357143 1.45128L14.0682 10.5858L14.0727 10.5886H14.0761C14.0925 10.6018 14.1128 10.6131 14.1326 10.6237L14.1489 10.6322C14.1711 10.6437 14.1939 10.6538 14.2174 10.6627C14.2422 10.6724 14.2674 10.6804 14.2932 10.6871C14.296 10.6877 14.3005 10.6905 14.3005 10.6905C14.3255 10.6976 14.3509 10.7034 14.3768 10.7079L14.3765 10.7081C14.3779 10.7081 14.3794 10.7099 14.3809 10.7117C14.3826 10.7138 14.3844 10.716 14.3862 10.716C14.4115 10.7234 14.4373 10.7297 14.4631 10.7345C14.4908 10.7287 14.5182 10.7214 14.545 10.7125C14.5466 10.7122 14.5482 10.7087 14.5498 10.7051C14.5516 10.7012 14.5533 10.6972 14.5551 10.6972C14.5811 10.694 14.6072 10.6893 14.6326 10.6831H14.6389C14.6645 10.6766 14.6897 10.6687 14.7145 10.6595C14.7381 10.6504 14.7613 10.6399 14.7841 10.6284L14.8005 10.6199Z" fill="white"/>
</svg>
