<svg width="30" height="30" viewBox="0 0 30 30" fill="none" xmlns="http://www.w3.org/2000/svg">
<path d="M28.6812 3.81579L16.4654 0.0282136C16.3465 -0.00940455 16.2209 -0.00940455 16.1081 0.0282136L3.89228 3.81579C3.67904 3.89103 3.53469 4.0918 3.53469 4.31117V8.82621C3.53469 11.5918 4.20567 14.2443 5.41605 16.5959L12.5273 9.48465C13.0165 8.99539 13.8037 8.98665 14.3019 9.48465C14.4311 9.6139 14.5219 9.76722 14.5814 9.92972C14.3397 9.77749 14.0226 9.79521 13.8117 10.006L5.17369 18.6441H3.12352C3.04041 18.6441 2.96058 18.6771 2.90175 18.736L0.0924246 21.5453C-0.105067 21.7428 0.0349066 22.0805 0.314193 22.0805H1.73733L1.06328 22.7545C0.818759 22.999 0.818759 23.3943 1.06328 23.6388C1.29051 23.878 1.68504 23.9008 1.94752 23.6388L2.63753 22.9487L2.62878 24.3839C2.62703 24.6641 2.96581 24.8056 3.16396 24.6074L5.93175 21.8397C5.99058 21.7808 6.0236 21.701 6.0236 21.6179V19.5622L6.7766 18.809C7.45374 19.737 8.21878 20.6024 9.07172 21.3802L15.8694 14.5825C16.3584 14.0932 17.146 14.0845 17.644 14.5825C17.8642 14.8027 18.0243 15.1332 17.9731 15.4809C17.9465 15.3887 17.9025 15.3029 17.8314 15.2321C17.5869 14.9875 17.1917 14.9875 16.9472 15.2321L8.23522 23.944H6.21389C6.13078 23.944 6.05095 23.977 5.99212 24.0359L3.1828 26.8452C2.98531 27.0427 3.12528 27.3804 3.40457 27.3804H4.79904L4.19889 27.9805C3.95437 28.225 3.95437 28.6203 4.19889 28.8648C4.42766 29.1056 4.822 29.1255 5.08313 28.8648L5.72813 28.2198L5.71938 29.684C5.71763 29.9642 6.05641 30.1057 6.25456 29.9075L9.02234 27.1395C9.08118 27.0807 9.1142 27.0011 9.1142 26.9178V24.8334L17.5804 16.3673C17.5417 16.4145 17.506 16.4637 17.4623 16.5075L11.0408 22.9289C11.0408 22.9352 11.0472 22.9352 11.0533 22.9414C13.0888 24.3076 14.5421 24.6967 16.283 25.4686L18.5657 24.5215C24.9054 21.8815 29.0318 15.6982 29.0318 8.82547V4.31042C29.0318 4.09172 28.8938 3.89116 28.6806 3.81571L28.6812 3.81579Z" fill="white"/>
</svg>
