<svg width="28" height="28" viewBox="0 0 28 28" fill="none" xmlns="http://www.w3.org/2000/svg">
<path fill-rule="evenodd" clip-rule="evenodd" d="M14 0C6.28054 0 0 6.28054 0 14C0 21.7195 6.28054 28 14 28C21.7195 28 28 21.7195 28 14C28 6.28054 21.7195 0 14 0ZM15.2354 20.7092H12.5591V18.2115H15.2352L15.2354 20.7092ZM16.6881 14.144C16.7833 14.0753 16.8789 14.0063 16.9738 13.9357L16.9737 13.9356C17.7632 13.3305 18.516 12.6143 18.5162 10.833C18.5162 9.42027 17.4144 7.29081 13.9448 7.29081C11.2651 7.29081 9.53943 9.20005 9.48411 11.825H12.1828C12.2012 10.5212 12.7521 9.43843 14.0735 9.43843C15.0464 9.43843 15.6336 9.9707 15.6336 11.0906C15.6336 12.0174 15.0886 12.4466 14.4327 12.963C14.3867 12.9992 14.3402 13.0359 14.2932 13.0731C13.5595 13.6422 12.8068 14.3577 12.6965 15.9555L12.6968 16.7815H15.1752V16.0832C15.3203 15.131 15.9913 14.6468 16.6881 14.144Z" fill="white"/>
</svg>
