<svg width="30" height="30" viewBox="0 0 30 30" fill="none" xmlns="http://www.w3.org/2000/svg">
<path fill-rule="evenodd" clip-rule="evenodd" d="M14.7996 0.00136321C6.51597 0.112232 -0.108863 6.91797 0.00135557 15.2019C0.112226 23.4821 6.91739 30.1089 15.2007 29.9986C23.4827 29.8871 30.1089 23.0814 29.9986 14.7982C29.8878 6.51721 23.0823 -0.10918 14.7996 0.00136321ZM14.7553 24.1304L14.6724 24.1291C13.3968 24.0913 12.4974 23.1515 12.5336 21.8948C12.5692 20.6595 13.4904 19.7628 14.724 19.7628L14.798 19.7641C16.1092 19.8029 16.9984 20.7332 16.9616 22.0262C16.9251 23.265 16.0182 24.1304 14.7553 24.1304ZM18.3302 15.0838C19.1614 14.4362 19.8211 13.907 20.1211 13.4808C20.6976 12.691 20.9898 11.822 20.9898 10.8969C20.9898 9.24296 20.3943 7.97514 19.2204 7.12862C18.0618 6.29319 16.5902 5.8696 14.8469 5.8696C13.5152 5.8696 12.3738 6.16895 11.4566 6.75949C9.99665 7.68688 9.20882 9.27622 9.11588 11.4835L9.10936 11.639H12.713V11.49C12.713 10.8907 12.8907 10.304 13.2422 9.74546C13.584 9.2022 14.1553 8.93742 14.9897 8.93742C15.831 8.93742 16.4128 9.1559 16.719 9.58731C17.0376 10.0344 17.1987 10.5365 17.1987 11.0795C17.1987 11.4708 17.0363 11.8689 16.6694 12.3747C16.5126 12.6036 16.3019 12.8178 16.0521 13.006C15.9781 13.0536 14.2345 14.1763 13.4441 15.1044C12.9403 15.6952 12.9103 16.4103 12.8675 17.626L12.8574 17.9217H16.3525L16.3538 17.7747C16.3608 17.253 16.3972 17.1401 16.4699 16.9148C16.4779 16.89 16.4864 16.8638 16.4953 16.8355C16.6091 16.4739 16.9124 16.1064 17.4149 15.7158L18.3302 15.0838Z" fill="white"/>
</svg>
