<svg width="32" height="25" viewBox="0 0 32 25" fill="none" xmlns="http://www.w3.org/2000/svg">
<path fill-rule="evenodd" clip-rule="evenodd" d="M31.9809 4.34619C31.9818 4.35219 31.9826 4.35819 31.9826 4.36504L31.983 4.36539C31.9904 4.84384 31.9918 5.32332 31.9931 5.8027V5.80277V5.80283C31.9942 6.20236 31.9954 6.60184 32 7.0006V20.3374C32 21.2181 31.789 22.0919 31.3193 22.8424C30.4922 24.1651 29.0424 24.9772 27.4904 24.9875C27.4529 24.9875 27.4189 24.9841 27.3848 24.9807C27.3656 24.9807 27.3463 24.9772 27.3282 24.974L27.3169 24.972L27.3066 24.9704C27.2487 24.9807 27.1942 24.9841 27.1364 24.9841H6.45304C6.23354 24.9841 6.0117 24.988 5.78873 24.992C5.08166 25.0045 4.36325 25.0173 3.67236 24.9053C1.96044 24.6243 0.493503 23.185 0.125927 21.4888C0.0170177 20.9884 0 20.4984 0 19.9947V1.03411C0 0.478989 0.476512 0.00609204 1.02788 0.00609204H1.07213C1.69572 -0.00304047 2.32084 0 2.94646 0.00304047L2.94684 0.00304232L2.94722 0.00304417C3.26034 0.0045678 3.5736 0.00609204 3.88685 0.00609204H24.2192C24.7706 0.00609204 25.2437 0.47897 25.2437 1.03411C25.2437 1.04096 25.2445 1.04782 25.2454 1.05467L25.2454 1.05471C25.2462 1.06155 25.2471 1.06839 25.2471 1.07523C25.2573 1.74611 25.256 2.41896 25.2547 3.09083V3.09116V3.09149C25.2543 3.31508 25.2539 3.53856 25.2539 3.76182V19.429C25.2539 19.5819 25.2508 19.7366 25.2476 19.8921L25.2476 19.8922C25.2399 20.2763 25.2321 20.6649 25.2709 21.043C25.2675 21.0207 25.2624 20.9984 25.2573 20.9762C25.2522 20.9539 25.2471 20.9316 25.2437 20.9093L25.2483 20.941C25.2541 20.9802 25.2598 21.019 25.2652 21.0578L25.2641 21.043C25.3117 21.3377 25.3832 21.6256 25.4887 21.9031C25.5364 22.0059 25.5874 22.1053 25.6453 22.2013C25.6793 22.2595 25.7167 22.3143 25.7542 22.3692C25.7372 22.352 25.7235 22.3349 25.7099 22.3178C25.601 22.191 25.8767 22.5474 25.7814 22.4103C25.7789 22.4069 25.7766 22.4036 25.7744 22.4002C25.7721 22.3967 25.77 22.3932 25.7678 22.3897C25.7635 22.3829 25.7593 22.376 25.7542 22.3692C25.7593 22.376 25.7652 22.3829 25.7712 22.3897L25.7712 22.3898C25.7772 22.3966 25.7831 22.4035 25.7882 22.4103C25.8461 22.472 25.9073 22.5337 25.9686 22.5919C25.9822 22.6056 25.9992 22.6193 26.0162 22.633C26.0091 22.6306 26.0036 22.6265 25.9974 22.6219C25.9948 22.62 25.9921 22.6179 25.989 22.6159C25.9805 22.609 25.972 22.603 25.9635 22.597L25.9544 22.5906C25.9517 22.5887 25.9491 22.5868 25.9464 22.5848C25.9436 22.5827 25.9408 22.5805 25.938 22.5782C25.8495 22.5131 26.1626 22.7633 26.0605 22.6707C26.0469 22.6604 26.0299 22.6467 26.0162 22.633C26.1149 22.7016 26.2205 22.7598 26.3294 22.8147C26.4565 22.8604 26.5863 22.8898 26.7189 22.9199L26.7684 22.9312H27.1326C27.2007 22.9312 27.2653 22.938 27.33 22.9483C27.3811 22.9414 27.4321 22.938 27.4832 22.938C27.5955 22.938 27.7078 22.9312 27.8167 22.9209L27.684 22.9414C27.7224 22.9357 27.7602 22.9306 27.7979 22.9256L27.8201 22.9226C27.8652 22.9166 27.9103 22.9106 27.9562 22.9037L27.9404 22.906H27.9404C27.8987 22.9121 27.859 22.9178 27.8167 22.9209C28.0277 22.8832 28.2353 22.8249 28.4396 22.7495C28.4021 22.7701 28.3613 22.7872 28.3204 22.8044L28.5655 22.7016C28.5451 22.7101 28.5247 22.7178 28.5043 22.7255L28.5042 22.7256C28.4838 22.7333 28.4634 22.741 28.443 22.7495C28.6063 22.6742 28.7629 22.5851 28.9126 22.4823C28.9151 22.4807 28.9175 22.4791 28.9199 22.4775C28.9234 22.4752 28.9269 22.4728 28.9303 22.4704C28.9376 22.4653 28.9447 22.4601 28.9518 22.4548L28.9691 22.4422C28.9762 22.4371 28.9834 22.4321 28.9909 22.4274C28.7969 22.5885 29.1611 22.3075 29.0215 22.4034C29.0113 22.4137 29.0011 22.4206 28.9909 22.4274C29.0692 22.3589 29.1441 22.2904 29.219 22.215C29.2904 22.143 29.3619 22.0642 29.4266 21.9854L29.4061 22.0162C29.3108 22.1567 29.5899 21.7935 29.43 21.9854C29.4385 21.9717 29.4478 21.9588 29.4572 21.946C29.4666 21.9331 29.4759 21.9203 29.4844 21.9066C29.5865 21.7558 29.6716 21.5981 29.7499 21.4337C29.7371 21.4725 29.7212 21.5113 29.7051 21.5501L29.8044 21.3103C29.7958 21.3309 29.7865 21.3506 29.7771 21.3703L29.7771 21.3704C29.7677 21.3901 29.7584 21.4097 29.7499 21.4302C29.8248 21.228 29.8826 21.019 29.9201 20.8031C29.9175 20.8389 29.915 20.8727 29.9111 20.9075C29.9134 20.8904 29.9159 20.8733 29.9184 20.8562C29.9226 20.8271 29.9269 20.798 29.9303 20.7689C29.9286 20.774 29.9277 20.78 29.9269 20.786C29.926 20.792 29.9252 20.798 29.9235 20.8031L29.9235 20.8031C29.9337 20.69 29.9439 20.5769 29.9439 20.4639C29.9473 19.8642 29.9507 19.2645 29.9507 18.6648V4.32734C29.9507 3.75167 30.4102 3.32331 30.965 3.29933C31.5163 3.27533 31.9792 3.78934 31.9792 4.32734C31.9792 4.33092 31.9794 4.33427 31.9798 4.3375C31.9801 4.34046 31.9805 4.34333 31.9809 4.34619ZM6.0129 20H14.9871C15.5168 20 16.0228 19.54 15.9992 19C15.9756 18.4567 15.5539 18 14.9871 18H6.0129C5.48324 18 4.97718 18.46 5.0008 19C5.02442 19.54 5.44611 20 6.0129 20ZM19.9813 13H6.01526C5.44715 13 5.02448 12.5436 5.0008 12.0039C4.97713 11.4642 5.48436 11.0044 6.01526 11.0044H6.03893C6.4155 10.9978 6.79357 11 7.17114 11.0022H7.17125C7.35987 11.0033 7.54836 11.0044 7.73649 11.0044H19.9847C20.5529 11.0044 20.9755 11.4642 20.9992 12.0039C21.0229 12.5402 20.5123 13 19.9813 13H19.9813ZM6.01526 7H19.9813H19.9813C20.5123 7 21.0229 6.54023 20.9992 6.00387C20.9755 5.46419 20.5529 5.00444 19.9847 5.00444H7.73649C7.54836 5.00444 7.35987 5.00333 7.17125 5.00222C6.79364 5 6.41554 4.99778 6.03893 5.00444H6.01526C5.48436 5.00444 4.97713 5.46417 5.0008 6.00387C5.02448 6.54359 5.44715 7 6.01526 7Z" fill="white"/>
</svg>
