<svg width="38" height="25" viewBox="0 0 38 25" fill="none" xmlns="http://www.w3.org/2000/svg">
<path fill-rule="evenodd" clip-rule="evenodd" d="M15.9885 6.1489C16.0641 5.87402 15.9885 5.63805 15.7996 5.48102L14.2132 4.06654C13.7977 3.71301 14.0246 2.96649 14.591 2.92729L16.6303 2.76998C16.8568 2.76998 17.0834 2.61267 17.159 2.37698L17.9523 0.412525C18.1788 -0.137508 18.8964 -0.137508 19.123 0.412525L19.9163 2.37698C19.9919 2.61295 20.2184 2.73079 20.445 2.76998L22.409 2.92729C22.9756 2.96644 23.2022 3.67354 22.7868 4.06654L21.2382 5.4418C21.087 5.63829 21.0117 5.87399 21.0493 6.10968L21.5404 8.192C21.6537 8.74203 21.0873 9.21341 20.5962 8.89907L18.8587 7.79897C18.6699 7.68112 18.4056 7.68112 18.2167 7.79897L16.4793 8.89907C15.9882 9.21345 15.4218 8.74203 15.5351 8.192L15.9885 6.1489ZM25.32 16.971H36.88V16.9711C37.4799 16.9711 38 17.4555 38 18.1008V23.8703C38 24.4754 37.4799 25 36.88 25H1.12C0.520086 25 0 24.4754 0 23.8703V18.0605C0 17.4554 0.520114 16.9308 1.12 16.9308H12.68V12.1297C12.68 11.5246 13.2001 11 13.8 11H24.2C24.7999 11 25.32 11.5246 25.32 12.1297V16.971ZM3.10747 11.4417C3.31561 11.5987 3.39892 11.8347 3.31561 12.1096L2.77451 14.192C2.64969 14.742 3.27381 15.2135 3.81491 14.8991L5.72938 13.7989C5.93751 13.6811 6.22868 13.6811 6.43681 13.7989L8.35128 14.8991C8.89237 15.2134 9.51651 14.742 9.39167 14.192L8.85057 12.1096C8.80906 11.8739 8.89209 11.5987 9.05871 11.4417L10.765 10.0664C11.2228 9.67337 10.9732 8.96626 10.3488 8.92711L8.10166 8.77007C7.85201 8.73088 7.60236 8.61303 7.51905 8.37705L6.64497 6.41254C6.39532 5.86249 5.60458 5.86249 5.35496 6.41254L4.48088 8.37705C4.39757 8.61275 4.14792 8.77007 3.89828 8.77007L1.65118 8.92711C1.02707 8.9663 0.777104 9.71285 1.23491 10.0664L3.10747 11.4417ZM28.3156 12.1096C28.3989 11.8347 28.3156 11.5987 28.1075 11.4417L26.2349 10.0664C25.7771 9.71285 26.0271 8.9663 26.6512 8.92711L28.8983 8.77007C29.1479 8.77007 29.3976 8.61275 29.4809 8.37705L30.355 6.41254C30.6046 5.86249 31.3953 5.86249 31.645 6.41254L32.5191 8.37705C32.6024 8.61303 32.852 8.73088 33.1017 8.77007L35.3488 8.92711C35.9732 8.96626 36.2228 9.67337 35.765 10.0664L34.0587 11.4417C33.8921 11.5987 33.8091 11.8739 33.8506 12.1096L34.3917 14.192C34.5165 14.742 33.8924 15.2134 33.3513 14.8991L31.4368 13.7989C31.2287 13.6811 30.9375 13.6811 30.7294 13.7989L28.8149 14.8991C28.2738 15.2135 27.6497 14.742 27.7745 14.192L28.3156 12.1096Z" fill="white"/>
</svg>
