<svg width="30" height="30" viewBox="0 0 30 30" fill="none" xmlns="http://www.w3.org/2000/svg">
<path fill-rule="evenodd" clip-rule="evenodd" d="M3.58135 12.45C3.87171 11.1274 4.3955 9.86702 5.12813 8.72815C5.36553 8.3553 5.31091 7.86739 4.99693 7.55627L3.1875 5.7469C3.93438 4.79376 4.79374 3.9344 5.74688 3.18753L7.56569 4.9969C7.87277 5.31134 8.35874 5.3662 8.72819 5.12815C9.86708 4.39553 11.1274 3.87171 12.4501 3.58128C12.8806 3.49083 13.1893 3.11179 13.1907 2.6719V0.112528C14.3922 -0.0375094 15.6078 -0.0375094 16.8093 0.112528V2.6719C16.8107 3.11179 17.1194 3.49083 17.5499 3.58128C18.8726 3.87171 20.1329 4.39553 21.2718 5.12815C21.6413 5.3662 22.1272 5.31134 22.4343 4.9969L24.2531 3.18753C25.2063 3.9344 26.0656 4.79376 26.8125 5.7469L25.003 7.55627C24.6891 7.86741 24.6345 8.35531 24.8719 8.72815C25.6045 9.86702 26.1283 11.1274 26.4187 12.45C26.5091 12.8805 26.8882 13.1892 27.3281 13.1906H29.8875C30.0375 14.3922 30.0375 15.6078 29.8875 16.8094H27.3281C26.8882 16.8108 26.5091 17.1195 26.4187 17.55C26.1283 18.8727 25.6045 20.133 24.8719 21.2719C24.6345 21.6447 24.6891 22.1326 25.0031 22.4438L26.8125 24.2531C26.0657 25.2063 25.2063 26.0657 24.2531 26.8125L22.4343 25.0031C22.1272 24.6887 21.6413 24.6338 21.2718 24.8719C20.1329 25.6045 18.8726 26.1284 17.5499 26.4188C17.1194 26.5092 16.8107 26.8882 16.8093 27.3281V29.8875C15.6078 30.0375 14.3922 30.0375 13.1907 29.8875V27.3281C13.1893 26.8882 12.8806 26.5092 12.4501 26.4188C11.1274 26.1284 9.86707 25.6045 8.72819 24.8719C8.35874 24.6338 7.87277 24.6887 7.56569 25.0031L5.74688 26.8125C4.79372 26.0657 3.93436 25.2063 3.1875 24.2531L4.99698 22.4438C5.31093 22.1326 5.36553 21.6447 5.12813 21.2719C4.3955 20.133 3.87171 18.8727 3.58134 17.55C3.49088 17.1195 3.11179 16.8108 2.67188 16.8094H0.112501C-0.0375004 15.6078 -0.0375004 14.3922 0.112501 13.1906H2.67189C3.1118 13.1892 3.49089 12.8805 3.58135 12.45ZM21.8685 12.155C20.7178 9.37693 18.0069 7.56562 15 7.56565C10.8968 7.57202 7.57203 10.8968 7.56569 15C7.56569 18.007 9.37703 20.7178 12.1551 21.8685C14.9331 23.0192 18.1308 22.3831 20.257 20.2569C22.3832 18.1307 23.0192 14.933 21.8685 12.155Z" fill="white"/>
</svg>
