<svg width="28" height="28" viewBox="0 0 28 28" fill="none" xmlns="http://www.w3.org/2000/svg">
<path fill-rule="evenodd" clip-rule="evenodd" d="M0 13.996C0 6.2795 6.291 0 14.007 0C21.723 0 28 6.28 28 13.996C28 21.712 21.723 28 14.007 28C6.2905 28 0 21.7125 0 13.996ZM16.8595 7.05H11.256L11.2559 7.04998C8.95259 7.04998 7.05004 8.94159 7.05004 11.2449L7.04984 16.8484C7.04984 19.1515 8.95239 21.0542 11.2557 21.0542H16.8592C17.2307 21.0527 17.5862 20.9038 17.8477 20.6402C18.1092 20.3765 18.2555 20.0199 18.2539 19.6486C18.2526 19.2791 18.1051 18.9252 17.844 18.664C17.5827 18.4027 17.2288 18.2554 16.8592 18.2539V18.2541H11.2557C10.4659 18.2541 9.85008 17.6383 9.85008 16.8484V11.2449C9.85008 10.4551 10.4659 9.85017 11.2557 9.85017H16.8592C17.6491 9.85017 18.254 10.4551 18.254 11.2449V12.068L17.8411 11.6578C17.5665 11.3871 17.1926 11.2418 16.8073 11.2559C16.4544 11.2664 16.1183 11.41 15.8667 11.6578C15.6024 11.9205 15.454 12.2778 15.454 12.6504C15.454 13.0231 15.6024 13.3803 15.8667 13.6432L18.6669 16.4434C18.9294 16.7043 19.2843 16.8506 19.6542 16.8506C20.0241 16.8506 20.379 16.7043 20.6413 16.4434H20.6415L23.4417 13.6432C23.7057 13.3803 23.8544 13.0231 23.8544 12.6504C23.8544 12.2777 23.7057 11.9205 23.4417 11.6578C23.1794 11.3969 22.8243 11.2506 22.4544 11.2506C22.0845 11.2506 21.7296 11.3969 21.4673 11.6578L21.0544 12.0707V11.2449C21.0544 8.9416 19.1626 7.05 16.8595 7.05Z" fill="white"/>
</svg>
