<svg width="649" height="353" viewBox="0 0 649 353" fill="none" xmlns="http://www.w3.org/2000/svg">
<g clip-path="url(#clip0_239_9446)">
<path opacity="0.1" d="M637.469 319.397C635.984 322.115 634.491 324.532 633.09 326.626L632.967 326.811C630.97 329.78 628.273 332.212 625.113 333.893C621.953 335.574 618.428 336.452 614.847 336.45C575.897 336.45 441.461 336.45 399.559 336.431C399.559 336.431 179.733 335.808 110.969 335.584C104.384 335.559 97.9468 333.629 92.436 330.028C86.9251 326.427 82.5761 321.309 79.9143 315.292C73.7227 301.344 67.0087 281.23 66.2311 258.442C64.9938 222.288 78.6938 179.386 133.106 143.597C179.863 112.823 130.179 92.5306 167.36 58.293C210.09 18.95 256.722 62.4751 304.24 44.6336C312.634 41.4857 321.057 36.4163 329.49 28.6367C334.248 24.2731 339.449 20.4181 345.01 17.1344C345.863 16.6278 346.726 16.1324 347.598 15.6482C350.956 13.793 354.412 12.1177 357.949 10.6293C360.342 9.62413 362.779 8.69346 365.26 7.83734C369.2 6.47781 373.241 5.30345 377.383 4.31426C383.338 2.89507 389.372 1.83742 395.455 1.1471C398.146 0.834474 400.857 0.593993 403.584 0.408821C456.675 -3.15513 516.425 16.8867 547.26 46.1775C553.466 52.079 581.684 82.5987 559.446 124.551C545.394 151.035 604.248 176.332 625.165 206.58C638.251 225.501 644.948 242.914 647.596 258.43C652.127 284.929 644.857 305.892 637.469 319.397Z" fill="#009DFF"/>
<path d="M637.527 331.681L637.24 332.323C637.045 332.751 636.855 333.172 636.663 333.586C635.37 336.375 634.08 338.876 632.862 341.089C632.821 341.166 632.777 341.238 632.736 341.315C628.685 348.623 621.887 352.998 614.619 352.998H534.918H530.317C511.913 352.998 492.701 352.998 474.54 352.998H469.116C439.904 352.998 413.967 352.998 399.328 352.983C399.328 352.983 325.713 352.743 250.357 352.466L246.532 352.452L182.365 352.211L174.594 352.185C148.595 352.093 125.966 352.007 110.738 351.944C100.08 351.903 90.2417 345.843 83.9009 335.916C83.5687 335.394 83.2437 334.863 82.9379 334.317C81.6556 332.09 80.5683 329.757 79.6881 327.343C73.4965 310.425 66.7849 286.05 66.0073 258.425H647.373C651.838 290.135 644.811 315.309 637.527 331.681Z" fill="#2F3740" fill-opacity="0.5"/>
<path d="M511.636 316.49H184.726L217.675 282.959H482.922L511.636 316.49Z" fill="#58AFE6"/>
<path d="M511.634 316.49H184.726V320.773H511.634V316.49Z" fill="#0E3E55"/>
<path d="M480.113 289.991H219.56V291.133H480.113V289.991Z" fill="#0E3E55"/>
<path d="M487.101 296.996H210.728V298.141H487.101V296.996Z" fill="#0E3E55"/>
<path d="M494.463 304.74H203.368V305.882H494.463V304.74Z" fill="#0E3E55"/>
<path d="M232.661 284.828H220.882V288.358H232.661V284.828Z" fill="#1A5F78"/>
<path d="M322.896 284.828H311.115V288.358H322.896V284.828Z" fill="#1A5F78"/>
<path d="M341.842 284.828H330.06V288.358H341.842V284.828Z" fill="#1A5F78"/>
<path d="M392.205 284.828H380.426V288.358H392.205V284.828Z" fill="#1A5F78"/>
<path d="M409.725 284.828H397.944V288.358H409.725V284.828Z" fill="#1A5F78"/>
<path d="M428.669 284.828H416.89V288.358H428.669V284.828Z" fill="#1A5F78"/>
<path d="M492.395 71.2551H203.965V240.406H492.395V71.2551Z" fill="#414F50"/>
<path d="M492.395 71.2551H203.965V213.383H492.395V71.2551Z" fill="#253D4C"/>
<path d="M385.927 267.96V272.07H301.238V267.96C304.1 267.961 306.857 266.883 308.959 264.941C311.061 263 312.352 260.338 312.576 257.487C312.598 257.194 312.61 256.898 312.61 256.6V240.406H374.555V256.6C374.555 256.898 374.555 257.194 374.588 257.487C374.811 260.339 376.102 263.001 378.204 264.942C380.306 266.884 383.064 267.962 385.927 267.96Z" fill="#414F50"/>
<g opacity="0.7">
<path opacity="0.7" d="M374.557 240.406H312.612V243.79H374.557V240.406Z" fill="#1B3431"/>
</g>
<g opacity="0.7">
<path opacity="0.7" d="M385.927 267.96H301.238C304.1 267.961 306.857 266.883 308.959 264.941C311.061 263 312.352 260.338 312.576 257.487H374.588C374.811 260.339 376.102 263.001 378.204 264.943C380.306 266.884 383.064 267.962 385.927 267.96Z" fill="#1B3431"/>
</g>
<path d="M488.088 74.9994H207.706V208.025H488.088V74.9994Z" fill="#121C23"/>
<path d="M445.32 283.719C445.32 283.719 441.162 293.988 442.626 295.061C444.09 296.133 449.126 291.771 450.459 287.168C451.793 282.565 445.32 283.719 445.32 283.719Z" fill="#EA9963"/>
<path d="M530.317 352.993C511.913 352.993 492.701 352.993 474.54 352.993C473.842 351.309 473.095 349.532 472.32 347.729C467.284 336.01 460.965 322.817 457.448 321.247C450.977 318.361 447.082 320.886 439.032 311.498C430.982 302.109 425.857 298.918 429.022 296.749C432.188 294.58 442.628 302.727 445.524 302.374C447.85 302.092 449.061 296.46 448.871 290.513C448.825 288.959 448.676 287.409 448.425 285.874C448.305 285.114 448.153 284.371 447.977 283.659C447.724 282.603 447.381 281.57 446.954 280.571C446.162 278.768 446.232 277.532 446.836 276.702C448.642 274.218 455.243 275.415 457.734 276.007C458.847 276.272 462.287 274.189 464.694 275.375C468.435 277.214 470.611 275.091 473.093 276.688C474.848 277.815 478.464 278.345 479.708 279.973C482.079 283.068 482.667 289.623 484.975 295.681C487.113 301.287 487.864 307.169 495.19 317.098C498.459 321.521 508.574 331.785 518.781 341.808C522.749 345.687 526.723 349.537 530.317 352.993Z" fill="#FFB27D"/>
<path d="M446.791 276.68C446.791 276.68 431.437 289.236 433.43 290.922C435.423 292.608 440.488 290.951 448.772 285.65C457.055 280.35 446.791 276.68 446.791 276.68Z" fill="#FFB27D"/>
<path d="M534.918 352.993H530.317C511.913 352.993 492.701 352.993 474.54 352.993H469.116L468.485 351.689C468.485 351.689 469.764 349.96 472.32 347.729C479.029 341.866 494.532 332.525 518.781 341.806C519.86 342.219 520.956 342.67 522.07 343.157L534.918 352.993Z" fill="#1A1A1A"/>
<path d="M283.975 290.133C283.975 290.133 286.637 300.885 285.036 301.739C283.435 302.592 279.069 297.566 278.399 292.822C277.73 288.077 283.975 290.133 283.975 290.133Z" fill="#EA9963"/>
<path d="M286.278 318.515C276.981 326.672 273.481 323.62 266.669 325.566C262.966 326.624 254.841 338.792 248.2 349.684C247.632 350.614 247.075 351.533 246.531 352.442L182.365 352.202C187.851 348.291 195.455 342.823 203.029 337.253C214.56 328.771 226.031 320.037 229.892 316.117C238.558 307.325 240.123 301.609 243.034 296.359C246.134 290.763 246.043 284.179 250.325 284.244C252.436 284.277 254.297 281.524 256.245 280.636C258.927 279.407 261.49 282.139 265.453 280.848C268.007 280.013 271.507 282.267 272.643 282.161C274.832 281.961 280.125 281.153 282.513 282.387C283.847 283.07 284.283 284.381 282.802 286.773C282.239 287.702 281.756 288.676 281.358 289.686C281.112 290.288 280.885 290.915 280.677 291.566C280.176 293.13 279.782 294.727 279.499 296.345C278.469 302.205 278.874 307.95 281.136 308.559C283.953 309.319 295.612 301.503 298.438 304.093C301.264 306.683 295.578 310.36 286.278 318.515Z" fill="#FFB27D"/>
<path d="M282.29 282.32C282.29 282.32 305.479 289.222 304.273 291.537C303.067 293.853 290.932 293.461 281.254 291.689C271.577 289.917 282.29 282.32 282.29 282.32Z" fill="#FFB27D"/>
<path d="M250.357 352.457L246.531 352.442L182.365 352.202L174.594 352.175L199.586 338.126C200.759 337.799 201.905 337.51 203.029 337.253C228.361 331.482 242.388 342.926 248.2 349.674C248.966 350.564 249.686 351.493 250.357 352.457Z" fill="#1A1A1A"/>
<path d="M369.121 335.144C369.121 335.292 369.131 335.44 369.15 335.587C369.255 336.465 369.68 337.274 370.343 337.86C371.006 338.446 371.861 338.769 372.747 338.766H423.738C424.214 338.766 424.686 338.672 425.126 338.49C425.566 338.308 425.965 338.041 426.302 337.705C426.639 337.369 426.906 336.969 427.088 336.53C427.27 336.091 427.364 335.62 427.364 335.144C427.364 334.669 427.27 334.198 427.088 333.758C426.906 333.319 426.639 332.92 426.302 332.583C425.965 332.247 425.566 331.98 425.126 331.798C424.686 331.616 424.214 331.522 423.738 331.522H372.747C371.785 331.522 370.863 331.904 370.183 332.583C369.503 333.262 369.121 334.184 369.121 335.144Z" fill="#2B478B"/>
<path d="M373.011 330.868H390.493C390.641 330.867 390.782 330.808 390.886 330.703C390.99 330.599 391.049 330.458 391.049 330.31C391.049 330.163 390.99 330.022 390.886 329.918C390.782 329.814 390.641 329.756 390.493 329.755H373.011C372.864 329.756 372.723 329.814 372.619 329.918C372.515 330.022 372.456 330.163 372.455 330.31C372.456 330.458 372.515 330.599 372.619 330.703C372.723 330.808 372.864 330.867 373.011 330.868Z" fill="#2B478B"/>
<path d="M373.979 331.522H375.874V330.866H373.979V331.522Z" fill="#233862"/>
<path d="M369.562 336.878C369.874 337.449 370.335 337.926 370.895 338.258C371.456 338.59 372.095 338.765 372.747 338.766H383.548V336.878H369.562Z" fill="#233862"/>
<path d="M434.114 334.084V336.205C434.114 336.541 434.048 336.875 433.92 337.186C433.791 337.497 433.602 337.779 433.364 338.017C433.126 338.255 432.843 338.444 432.532 338.572C432.22 338.701 431.887 338.766 431.55 338.766H378.435C377.873 338.767 377.325 338.582 376.878 338.241C376.431 337.9 376.11 337.421 375.963 336.878C375.902 336.659 375.871 336.432 375.871 336.205V334.084C375.871 333.404 376.141 332.753 376.622 332.273C377.103 331.792 377.755 331.523 378.435 331.523H431.543C431.88 331.522 432.214 331.587 432.526 331.715C432.838 331.844 433.121 332.032 433.36 332.27C433.599 332.508 433.789 332.791 433.918 333.102C434.047 333.413 434.114 333.747 434.114 334.084Z" fill="#95BE4C"/>
<path d="M434.025 336.878C433.877 337.421 433.555 337.899 433.108 338.241C432.66 338.582 432.113 338.766 431.55 338.766H378.435C377.873 338.767 377.325 338.582 376.878 338.241C376.431 337.9 376.11 337.421 375.963 336.878H434.025Z" fill="#466019"/>
<path d="M428.837 335.159C428.816 336.191 429.194 337.193 429.891 337.955L429.935 337.999C430.171 338.244 430.453 338.441 430.765 338.577C431.078 338.714 431.414 338.787 431.755 338.792C432.831 338.792 435.496 337.171 437.147 336.096C437.97 335.56 438.541 335.159 438.541 335.159C438.541 335.159 437.97 334.757 437.147 334.221C435.496 333.143 432.831 331.522 431.755 331.522C431.449 331.523 431.146 331.582 430.862 331.696C430.372 331.899 429.948 332.232 429.634 332.658C429.247 333.179 428.993 333.788 428.895 334.43C428.895 334.43 428.895 334.444 428.895 334.454C428.857 334.687 428.837 334.923 428.837 335.159Z" fill="#8C9DF4"/>
<path d="M428.837 335.159C428.816 336.191 429.194 337.193 429.891 337.955L438.076 335.144L428.902 334.461C428.862 334.692 428.84 334.925 428.837 335.159Z" fill="#6980E2"/>
<path d="M429.634 332.665L437.79 334.889L430.862 331.696C430.372 331.901 429.947 332.236 429.634 332.665Z" fill="#9FB1FF"/>
<path d="M436.615 335.159C436.605 335.349 436.65 335.539 436.744 335.705C436.839 335.871 436.978 336.007 437.147 336.096C437.97 335.56 438.541 335.159 438.541 335.159C438.541 335.159 437.97 334.757 437.147 334.221C436.978 334.31 436.838 334.446 436.744 334.612C436.649 334.778 436.605 334.968 436.615 335.159Z" fill="#182D4C"/>
<rect x="304" y="90" width="164" height="105" fill="#2C3C4B"/>
<rect x="310" y="94" width="9" height="94" fill="#1D2935"/>
<g filter="url(#filter0_d_239_9446)">
<rect x="310" y="94" width="152" height="12" fill="#1D2A36"/>
</g>
<rect x="410" y="94" width="52" height="94" fill="#1D2A36"/>
<rect x="325" y="113" width="79" height="21" fill="#1D2A36"/>
<rect x="414" y="97" width="13" height="17" fill="black" fill-opacity="0.4"/>
<rect x="431" y="106" width="28" height="8" fill="#16222B"/>
<rect x="453" y="97" width="6" height="6" fill="#16222B"/>
<rect x="445" y="97" width="6" height="6" fill="#16222B"/>
<rect x="414" y="117" width="45" height="6" fill="#16222B"/>
<rect x="414" y="125" width="45" height="10" fill="black" fill-opacity="0.4"/>
<rect x="414" y="137" width="45" height="10" fill="black" fill-opacity="0.4"/>
<rect x="414" y="149" width="45" height="10" fill="black" fill-opacity="0.4"/>
<rect x="414" y="161" width="45" height="10" fill="black" fill-opacity="0.4"/>
<rect x="414" y="173" width="45" height="10" fill="black" fill-opacity="0.4"/>
<rect x="325" y="137" width="37" height="51" fill="#1D2A36"/>
<rect x="367" y="137" width="37" height="51" fill="#1D2A36"/>
<rect x="370" y="145" width="15" height="18" fill="black" fill-opacity="0.4"/>
<rect x="386" y="145" width="15" height="18" fill="black" fill-opacity="0.4"/>
<rect x="370" y="165" width="15" height="18" fill="black" fill-opacity="0.4"/>
<rect x="386" y="165" width="15" height="18" fill="black" fill-opacity="0.4"/>
<rect x="328" y="145" width="31" height="6" fill="black" fill-opacity="0.4"/>
<rect x="328" y="153" width="31" height="6" fill="black" fill-opacity="0.4"/>
<rect x="328" y="161" width="31" height="6" fill="black" fill-opacity="0.4"/>
<rect x="328" y="169" width="31" height="6" fill="black" fill-opacity="0.4"/>
<rect x="328" y="177" width="31" height="6" fill="black" fill-opacity="0.4"/>
<rect x="219" y="91" width="12" height="12" fill="#2C3D4C"/>
<rect x="236" y="91" width="13" height="12" fill="#2C3D4C"/>
<rect x="219" y="108" width="12" height="13" fill="#2C3D4C"/>
<rect x="219" y="126" width="12" height="12" fill="#2C3D4C"/>
<rect x="219" y="143" width="12" height="13" fill="#2C3D4C"/>
<rect x="219" y="161" width="12" height="12" fill="#2C3D4C"/>
<rect x="219" y="178" width="12" height="12" fill="#2C3D4C"/>
</g>
<path d="M137.168 324.044V352.329H14.1421C10.3914 352.329 6.79428 350.839 4.14213 348.187C1.48998 345.534 0 341.937 0 338.187C0 334.436 1.48998 330.839 4.14213 328.187C6.79428 325.534 10.3914 324.044 14.1421 324.044H137.168Z" fill="#253D4C"/>
<path d="M137.167 324.044V352.329H27.1736C23.4229 352.329 19.8258 350.839 17.1736 348.187C14.5215 345.534 13.0315 341.937 13.0315 338.187C13.0315 334.436 14.5215 330.839 17.1736 328.187C19.8258 325.534 23.4229 324.044 27.1736 324.044H137.167Z" fill="#414F50"/>
<path d="M24.1358 328.476H137.168V347.908H24.1358C22.3049 347.908 20.549 347.181 19.2544 345.886C17.9598 344.591 17.2324 342.835 17.2324 341.004V335.369C17.2352 333.539 17.9637 331.786 19.2581 330.494C20.5524 329.202 22.3068 328.476 24.1358 328.476Z" fill="white"/>
<path d="M26.8073 333.651L137.168 333.473V332.027L26.8073 332.163C26.6156 332.163 26.4317 332.239 26.2962 332.375C26.1606 332.51 26.0845 332.694 26.0845 332.886C26.0788 332.984 26.0932 333.083 26.127 333.176C26.1607 333.268 26.2131 333.353 26.2808 333.424C26.3485 333.496 26.4301 333.553 26.5207 333.592C26.6112 333.631 26.7087 333.651 26.8073 333.651Z" fill="#E9CEC2"/>
<path d="M26.807 338.511L137.168 338.375V336.93L26.807 337.066C26.6153 337.066 26.4315 337.142 26.2959 337.277C26.1604 337.413 26.0842 337.597 26.0842 337.789C26.0842 337.883 26.1029 337.978 26.1392 338.065C26.1756 338.153 26.2288 338.233 26.2959 338.3C26.363 338.367 26.4428 338.42 26.5305 338.456C26.6181 338.493 26.7121 338.511 26.807 338.511Z" fill="#E9CEC2"/>
<path d="M26.807 343.592L137.168 343.456V342.01L26.807 342.146C26.6153 342.146 26.4315 342.222 26.2959 342.358C26.1604 342.494 26.0842 342.677 26.0842 342.869C26.0842 342.964 26.1029 343.058 26.1392 343.146C26.1756 343.233 26.2288 343.313 26.2959 343.38C26.363 343.447 26.4428 343.501 26.5305 343.537C26.6181 343.573 26.7121 343.592 26.807 343.592Z" fill="#E9CEC2"/>
<path d="M159.187 296.022V324.306H36.1409C32.3901 324.306 28.7931 322.816 26.1409 320.164C23.4888 317.512 21.9988 313.915 21.9988 310.164C21.9988 306.414 23.4888 302.817 26.1409 300.164C28.7931 297.512 32.3901 296.022 36.1409 296.022H159.187Z" fill="#95BE4C"/>
<path d="M159.188 296.022V324.306H49.1936C45.4429 324.306 41.8458 322.816 39.1936 320.164C36.5415 317.512 35.0515 313.915 35.0515 310.164C35.0515 306.414 36.5415 302.817 39.1936 300.164C41.8458 297.512 45.4429 296.022 49.1936 296.022H159.188Z" fill="#4F9B13"/>
<path d="M46.1346 300.443H159.177V319.854H46.1346C44.3037 319.854 42.5478 319.127 41.2532 317.832C39.9585 316.538 39.2312 314.782 39.2312 312.951V307.315C39.2395 305.489 39.9705 303.742 41.2642 302.454C42.558 301.166 44.3092 300.443 46.1346 300.443Z" fill="white"/>
<path d="M48.8163 305.618L159.177 305.482V304.036L48.8163 304.141C48.6246 304.141 48.4407 304.217 48.3052 304.352C48.1696 304.488 48.0935 304.672 48.0935 304.864C48.0892 304.961 48.1048 305.058 48.1392 305.15C48.1736 305.241 48.2262 305.325 48.2937 305.395C48.3613 305.466 48.4424 305.522 48.5322 305.56C48.622 305.598 48.7187 305.618 48.8163 305.618Z" fill="#E9CEC2"/>
<path d="M48.8166 310.479L159.177 310.342V308.897L48.8166 309.023C48.6239 309.025 48.4401 309.104 48.3048 309.241C48.1695 309.378 48.0937 309.563 48.0938 309.756C48.0938 309.947 48.1699 310.131 48.3054 310.267C48.441 310.402 48.6249 310.479 48.8166 310.479Z" fill="#E9CEC2"/>
<path d="M48.8162 315.559L159.177 315.423V313.967L48.8162 314.103C48.6245 314.103 48.4406 314.179 48.305 314.315C48.1695 314.45 48.0933 314.634 48.0933 314.826C48.0919 314.922 48.1096 315.017 48.1453 315.106C48.181 315.195 48.234 315.275 48.3013 315.344C48.3686 315.412 48.4487 315.466 48.5371 315.503C48.6255 315.54 48.7203 315.559 48.8162 315.559Z" fill="#E9CEC2"/>
<path d="M141.641 268V296.284H18.6152C14.8645 296.284 11.2674 294.794 8.61527 292.142C5.96312 289.49 4.47314 285.893 4.47314 282.142C4.47314 278.391 5.96312 274.794 8.61527 272.142C11.2674 269.49 14.8645 268 18.6152 268H141.641Z" fill="#78B1DE"/>
<path d="M141.641 268V296.284H31.6467C27.896 296.284 24.2989 294.794 21.6468 292.142C18.9946 289.49 17.5046 285.893 17.5046 282.142C17.5046 278.391 18.9946 274.794 21.6468 272.142C24.2989 269.49 27.896 268 31.6467 268H141.641Z" fill="#4E88AF"/>
<path d="M28.609 272.421H141.63V291.853H28.609C26.7781 291.853 25.0222 291.126 23.7275 289.831C22.4329 288.536 21.7056 286.78 21.7056 284.949V279.314C21.7083 277.485 22.4369 275.731 23.7313 274.439C25.0256 273.147 26.7799 272.421 28.609 272.421Z" fill="white"/>
<path d="M31.2697 277.596L141.63 277.459V276.014L31.2697 276.15C31.078 276.15 30.8941 276.226 30.7586 276.362C30.623 276.497 30.5469 276.681 30.5469 276.873C30.5469 277.064 30.623 277.248 30.7586 277.384C30.8941 277.519 31.078 277.596 31.2697 277.596Z" fill="#E9CEC2"/>
<path d="M31.2697 282.456L141.63 282.32V280.875L31.2697 281C31.077 281.003 30.8932 281.081 30.7579 281.219C30.6227 281.356 30.5469 281.541 30.5469 281.734C30.5469 281.925 30.623 282.109 30.7586 282.245C30.8941 282.38 31.078 282.456 31.2697 282.456Z" fill="#E9CEC2"/>
<path d="M31.2699 287.537L141.63 287.38V285.924L31.2699 286.06C31.0782 286.06 30.8943 286.136 30.7588 286.272C30.6232 286.407 30.5471 286.591 30.5471 286.783C30.5428 286.88 30.5584 286.978 30.5928 287.069C30.6272 287.16 30.6798 287.244 30.7473 287.314C30.8149 287.385 30.896 287.441 30.9858 287.479C31.0756 287.517 31.1723 287.537 31.2699 287.537Z" fill="#E9CEC2"/>
<path d="M111.44 276.066V289.936L115.787 285.588L120.281 290.082V276.014L111.44 276.066Z" fill="#1A5F77"/>
<defs>
<filter id="filter0_d_239_9446" x="306" y="92" width="160" height="20" filterUnits="userSpaceOnUse" color-interpolation-filters="sRGB">
<feFlood flood-opacity="0" result="BackgroundImageFix"/>
<feColorMatrix in="SourceAlpha" type="matrix" values="0 0 0 0 0 0 0 0 0 0 0 0 0 0 0 0 0 0 127 0" result="hardAlpha"/>
<feOffset dy="2"/>
<feGaussianBlur stdDeviation="2"/>
<feComposite in2="hardAlpha" operator="out"/>
<feColorMatrix type="matrix" values="0 0 0 0 0 0 0 0 0 0 0 0 0 0 0 0 0 0 0.7 0"/>
<feBlend mode="normal" in2="BackgroundImageFix" result="effect1_dropShadow_239_9446"/>
<feBlend mode="normal" in="SourceGraphic" in2="effect1_dropShadow_239_9446" result="shape"/>
</filter>
<clipPath id="clip0_239_9446">
<rect width="583" height="353" fill="white" transform="translate(66)"/>
</clipPath>
</defs>
</svg>
