<svg width="493" height="66" viewBox="0 0 493 66" fill="none" xmlns="http://www.w3.org/2000/svg">
<g clip-path="url(#clip0_735_62456)">
<path d="M119.04 42C119.127 43.9829 118.715 45.956 117.842 47.7382C116.968 49.5204 115.661 51.0546 114.04 52.2C110.74 54.6 106.157 55.8 100.29 55.8H82.54C80.862 55.7973 79.2535 55.1296 78.0669 53.943C76.8804 52.7565 76.2126 51.148 76.21 49.47V13.8C76.2126 12.1219 76.8804 10.5134 78.0669 9.3269C79.2535 8.14037 80.862 7.47262 82.54 7.46997H98.3C104.227 7.46997 108.7 8.49997 111.72 10.56C113.185 11.5435 114.371 12.889 115.163 14.4659C115.955 16.0427 116.326 17.7975 116.24 19.56C116.323 22.0883 115.516 24.5657 113.96 26.56C112.16 28.6048 109.708 29.9648 107.02 30.41C110.913 30.8566 113.89 32.0833 115.95 34.09C116.986 35.1217 117.796 36.3578 118.328 37.7197C118.86 39.0815 119.102 40.5392 119.04 42V42ZM106.09 21C106.09 18.8 105.383 17.25 103.97 16.35C102.075 15.3346 99.9354 14.8672 97.79 15H86.28V26.94H97.88C100.76 26.94 102.88 26.44 104.14 25.46C104.8 24.9308 105.322 24.2496 105.662 23.4746C106.001 22.6997 106.148 21.854 106.09 21.01V21ZM108.88 41.23C108.88 36.7233 105.637 34.4666 99.15 34.46H86.28V48.25H99.49C102.76 48.25 105.14 47.68 106.64 46.52C107.405 45.8805 108.007 45.0682 108.397 44.1501C108.786 43.2321 108.952 42.2346 108.88 41.24V41.23Z" fill="white"/>
<path d="M161.01 55.8L156.78 43.44H138.33L134.01 55.8H123.94L139.5 13.08C140.098 11.438 141.186 10.0194 142.617 9.01602C144.048 8.01266 145.752 7.47297 147.5 7.46997C149.248 7.47297 150.952 8.01266 152.383 9.01602C153.814 10.0194 154.902 11.438 155.5 13.08L171.06 55.8H161.01ZM148.58 18.46C148.514 18.2371 148.377 18.0416 148.19 17.9026C148.004 17.7636 147.778 17.6885 147.545 17.6885C147.312 17.6885 147.086 17.7636 146.9 17.9026C146.713 18.0416 146.576 18.2371 146.51 18.46C146.203 19.5 144.24 25.2666 140.62 35.76H154.5L149.67 21.94L148.58 18.46Z" fill="white"/>
<path d="M199.35 15.26V55.8H189.28V15.26H173.62V7.46997H215V15.26H199.35Z" fill="white"/>
<path d="M245.23 15.26V55.8H235.18V15.26H219.5V7.46997H260.88V15.26H245.23Z" fill="white"/>
<path d="M266.3 48.52V7.46997H276.37V48.01H302.27V55.8H273.58C271.649 55.8 269.798 55.033 268.432 53.6677C267.067 52.3024 266.3 50.4507 266.3 48.52V48.52Z" fill="white"/>
<path d="M309.12 49.47V13.8C309.12 12.1211 309.787 10.5111 310.974 9.32397C312.161 8.13687 313.771 7.46997 315.45 7.46997H347.12V15.26H319.18V27.45H344.99V35.23H319.18V48.01H348.46V55.8H315.46C314.628 55.8013 313.804 55.6385 313.035 55.321C312.265 55.0035 311.566 54.5374 310.978 53.9495C310.389 53.3616 309.922 52.6633 309.603 51.8947C309.284 51.126 309.12 50.3021 309.12 49.47V49.47Z" fill="white"/>
<path d="M119.04 42C119.127 43.9829 118.715 45.956 117.842 47.7382C116.968 49.5204 115.661 51.0546 114.04 52.2C110.74 54.6 106.157 55.8 100.29 55.8H82.54C80.862 55.7973 79.2535 55.1296 78.0669 53.943C76.8804 52.7565 76.2126 51.148 76.21 49.47V13.8C76.2126 12.1219 76.8804 10.5134 78.0669 9.3269C79.2535 8.14037 80.862 7.47262 82.54 7.46997H98.3C104.227 7.46997 108.7 8.49997 111.72 10.56C113.185 11.5435 114.371 12.889 115.163 14.4659C115.955 16.0427 116.326 17.7975 116.24 19.56C116.323 22.0883 115.516 24.5657 113.96 26.56C112.16 28.6048 109.708 29.9648 107.02 30.41C110.913 30.8566 113.89 32.0833 115.95 34.09C116.986 35.1217 117.796 36.3578 118.328 37.7197C118.86 39.0815 119.102 40.5392 119.04 42V42ZM106.09 21C106.09 18.8 105.383 17.25 103.97 16.35C102.075 15.3346 99.9354 14.8672 97.79 15H86.28V26.94H97.88C100.76 26.94 102.88 26.44 104.14 25.46C104.8 24.9308 105.322 24.2496 105.662 23.4746C106.001 22.6997 106.148 21.854 106.09 21.01V21ZM108.88 41.23C108.88 36.7233 105.637 34.4666 99.15 34.46H86.28V48.25H99.49C102.76 48.25 105.14 47.68 106.64 46.52C107.405 45.8805 108.007 45.0682 108.397 44.1501C108.786 43.2321 108.952 42.2346 108.88 41.24V41.23Z" fill="white"/>
<path d="M161.01 55.8L156.78 43.44H138.33L134.01 55.8H123.94L139.5 13.08C140.098 11.438 141.186 10.0194 142.617 9.01602C144.048 8.01266 145.752 7.47297 147.5 7.46997C149.248 7.47297 150.952 8.01266 152.383 9.01602C153.814 10.0194 154.902 11.438 155.5 13.08L171.06 55.8H161.01ZM148.58 18.46C148.514 18.2371 148.377 18.0416 148.19 17.9026C148.004 17.7636 147.778 17.6885 147.545 17.6885C147.312 17.6885 147.086 17.7636 146.9 17.9026C146.713 18.0416 146.576 18.2371 146.51 18.46C146.203 19.5 144.24 25.2666 140.62 35.76H154.5L149.67 21.94L148.58 18.46Z" fill="white"/>
<path d="M199.35 15.26V55.8H189.28V15.26H173.62V7.46997H215V15.26H199.35Z" fill="white"/>
<path d="M245.23 15.26V55.8H235.18V15.26H219.5V7.46997H260.88V15.26H245.23Z" fill="white"/>
<path d="M266.3 48.52V7.46997H276.37V48.01H302.27V55.8H273.58C271.649 55.8 269.798 55.033 268.432 53.6677C267.067 52.3024 266.3 50.4507 266.3 48.52V48.52Z" fill="white"/>
<path d="M309.12 49.47V13.8C309.12 12.1211 309.787 10.5111 310.974 9.32397C312.161 8.13687 313.771 7.46997 315.45 7.46997H347.12V15.26H319.18V27.45H344.99V35.23H319.18V48.01H348.46V55.8H315.46C314.628 55.8013 313.804 55.6385 313.035 55.321C312.265 55.0035 311.566 54.5374 310.978 53.9495C310.389 53.3616 309.922 52.6633 309.603 51.8947C309.284 51.126 309.12 50.3021 309.12 49.47V49.47Z" fill="white"/>
<path d="M434.29 55.8L430.06 43.44H411.61L407.3 55.8H397.18L412.75 13.08C413.346 11.4364 414.433 10.0161 415.865 9.01239C417.296 8.00864 419.002 7.4701 420.75 7.46997V7.46997C422.498 7.4701 424.204 8.00864 425.635 9.01239C427.067 10.0161 428.154 11.4364 428.75 13.08L444.31 55.8H434.29ZM421.86 18.47C421.794 18.2471 421.657 18.0516 421.47 17.9126C421.284 17.7736 421.058 17.6985 420.825 17.6985C420.592 17.6985 420.366 17.7736 420.18 17.9126C419.993 18.0516 419.856 18.2471 419.79 18.47C419.477 19.51 417.517 25.2766 413.91 35.77H427.78L422.95 21.94L421.86 18.47Z" fill="url(#paint0_linear_735_62456)"/>
<path d="M355.92 48.52V7.46997H365.99V48.01H391.89V55.8H363.18C361.253 55.7947 359.406 55.0253 358.045 53.6606C356.684 52.296 355.92 50.4473 355.92 48.52V48.52Z" fill="url(#paint1_linear_735_62456)"/>
<path d="M492.25 42C492.336 43.9826 491.923 45.955 491.049 47.7369C490.176 49.5188 488.87 51.0533 487.25 52.2C483.95 54.6 479.367 55.8 473.5 55.8H455.76C454.082 55.7973 452.473 55.1296 451.287 53.943C450.1 52.7565 449.433 51.148 449.43 49.47V13.8C449.433 12.1219 450.1 10.5134 451.287 9.3269C452.473 8.14037 454.082 7.47262 455.76 7.46997H471.52C477.44 7.46997 481.91 8.49997 484.93 10.56C486.398 11.5417 487.586 12.8865 488.38 14.4636C489.174 16.0407 489.546 17.7964 489.46 19.56C489.543 22.0883 488.736 24.5657 487.18 26.56C485.38 28.6048 482.928 29.9648 480.24 30.41C484.133 30.8566 487.107 32.0833 489.16 34.09C490.196 35.1217 491.006 36.3578 491.538 37.7197C492.07 39.0815 492.312 40.5392 492.25 42ZM479.31 21C479.31 18.8 478.603 17.25 477.19 16.35C475.295 15.3346 473.155 14.8672 471.01 15H459.5V26.94H471.1C473.97 26.94 476.1 26.44 477.36 25.46C478.02 24.9308 478.542 24.2496 478.882 23.4746C479.221 22.6997 479.368 21.854 479.31 21.01V21ZM482.1 41.23C482.1 36.7233 478.857 34.4666 472.37 34.46H459.5V48.25H472.7C475.98 48.25 478.36 47.68 479.86 46.52C480.625 45.8805 481.227 45.0682 481.617 44.1501C482.006 43.2321 482.172 42.2346 482.1 41.24V41.23Z" fill="url(#paint2_linear_735_62456)"/>
<path d="M0 32.65V8.13004C0.00562219 6.70741 0.384911 5.3112 1.09988 4.08127C1.81486 2.85134 2.84042 1.83086 4.07387 1.12198C5.30732 0.413103 6.70536 0.0407031 8.12801 0.0421183C9.55065 0.0435334 10.948 0.418707 12.18 1.13004L33.41 13.39L54.65 25.65C55.8832 26.3644 56.907 27.3903 57.6187 28.625C58.3304 29.8598 58.705 31.2599 58.705 32.685C58.705 34.1102 58.3304 35.5103 57.6187 36.745C56.907 37.9798 55.8832 39.0057 54.65 39.72L33.41 51.94L12.18 64.2001C10.948 64.9114 9.55065 65.2865 8.12801 65.2879C6.70536 65.2894 5.30732 64.917 4.07387 64.2081C2.84042 63.4992 1.81486 62.4787 1.09988 61.2488C0.384911 60.0189 0.00562219 58.6227 0 57.2V32.65Z" fill="url(#paint3_linear_735_62456)"/>
</g>
<defs>
<linearGradient id="paint0_linear_735_62456" x1="420.79" y1="7.46997" x2="420.79" y2="55.8" gradientUnits="userSpaceOnUse">
<stop stop-color="#00EEFC"/>
<stop offset="0.29" stop-color="#00EAFB"/>
<stop offset="0.55" stop-color="#00DFFA"/>
<stop offset="0.8" stop-color="#00CDF7"/>
<stop offset="1" stop-color="#00B8F4"/>
</linearGradient>
<linearGradient id="paint1_linear_735_62456" x1="373.9" y1="7.46997" x2="373.9" y2="55.8" gradientUnits="userSpaceOnUse">
<stop stop-color="#00EEFC"/>
<stop offset="0.29" stop-color="#00EAFB"/>
<stop offset="0.55" stop-color="#00DFFA"/>
<stop offset="0.8" stop-color="#00CDF7"/>
<stop offset="1" stop-color="#00B8F4"/>
</linearGradient>
<linearGradient id="paint2_linear_735_62456" x1="470.84" y1="7.46997" x2="470.84" y2="55.8" gradientUnits="userSpaceOnUse">
<stop stop-color="#00EEFC"/>
<stop offset="0.29" stop-color="#00EAFB"/>
<stop offset="0.55" stop-color="#00DFFA"/>
<stop offset="0.8" stop-color="#00CDF7"/>
<stop offset="1" stop-color="#00B8F4"/>
</linearGradient>
<linearGradient id="paint3_linear_735_62456" x1="0" y1="32.65" x2="58.71" y2="32.65" gradientUnits="userSpaceOnUse">
<stop stop-color="#00EEFC"/>
<stop offset="0.31" stop-color="#00EBFC"/>
<stop offset="0.56" stop-color="#00E1FA"/>
<stop offset="0.78" stop-color="#00D0F8"/>
<stop offset="1" stop-color="#00B8F4"/>
</linearGradient>
<clipPath id="clip0_735_62456">
<rect width="492.26" height="65.3" fill="white"/>
</clipPath>
</defs>
</svg>
