<svg width="48" height="48" viewBox="0 0 48 48" fill="none" xmlns="http://www.w3.org/2000/svg">
<circle cx="24" cy="24" r="20" fill="#253D4C"/>
<g filter="url(#filter0_d_219_1588)">
<path d="M33.1636 15.6579C31.5701 14.8905 29.8614 14.3252 28.0749 14.0014C28.0424 13.9951 28.0099 14.0107 27.9931 14.042C27.7733 14.4522 27.5299 14.9874 27.3595 15.408C25.4379 15.1061 23.5262 15.1061 21.6441 15.408C21.4736 14.978 21.2213 14.4522 21.0006 14.042C20.9838 14.0118 20.9513 13.9962 20.9188 14.0014C19.1332 14.3241 17.4245 14.8895 15.8301 15.6579C15.8163 15.6641 15.8045 15.6746 15.7967 15.6881C12.5556 20.7701 11.6678 25.7273 12.1033 30.6229C12.1053 30.6469 12.1181 30.6698 12.1358 30.6843C14.2742 32.3325 16.3455 33.3331 18.3784 33.9964C18.411 34.0068 18.4454 33.9943 18.4661 33.9662C18.947 33.2769 19.3757 32.5502 19.7432 31.7859C19.7649 31.7412 19.7442 31.688 19.6999 31.6703C19.0199 31.3996 18.3725 31.0696 17.7497 30.6948C17.7005 30.6646 17.6965 30.5906 17.7418 30.5552C17.8729 30.4521 18.004 30.3449 18.1291 30.2366C18.1518 30.2168 18.1833 30.2127 18.2099 30.2252C22.3013 32.1857 26.7308 32.1857 30.7739 30.2252C30.8005 30.2116 30.8321 30.2158 30.8557 30.2356C30.9809 30.3439 31.1119 30.4521 31.244 30.5552C31.2893 30.5906 31.2863 30.6646 31.2371 30.6948C30.6143 31.0769 29.9669 31.3996 29.2859 31.6693C29.2416 31.687 29.2219 31.7412 29.2436 31.7859C29.619 32.5491 30.0477 33.2759 30.5197 33.9651C30.5394 33.9943 30.5749 34.0068 30.6074 33.9964C32.6501 33.3331 34.7215 32.3325 36.8598 30.6843C36.8786 30.6698 36.8904 30.6479 36.8924 30.624C37.4136 24.964 36.0193 20.0476 33.1961 15.6891C33.1892 15.6746 33.1774 15.6641 33.1636 15.6579ZM20.3542 27.642C19.1224 27.642 18.1074 26.455 18.1074 24.9974C18.1074 23.5397 19.1027 22.3528 20.3542 22.3528C21.6155 22.3528 22.6206 23.5501 22.6009 24.9974C22.6009 26.455 21.6056 27.642 20.3542 27.642ZM28.6612 27.642C27.4294 27.642 26.4145 26.455 26.4145 24.9974C26.4145 23.5397 27.4097 22.3528 28.6612 22.3528C29.9225 22.3528 30.9276 23.5501 30.908 24.9974C30.908 26.455 29.9225 27.642 28.6612 27.642Z" fill="url(#paint0_linear_219_1588)"/>
</g>
<defs>
<filter id="filter0_d_219_1588" x="8" y="14" width="33" height="28" filterUnits="userSpaceOnUse" color-interpolation-filters="sRGB">
<feFlood flood-opacity="0" result="BackgroundImageFix"/>
<feColorMatrix in="SourceAlpha" type="matrix" values="0 0 0 0 0 0 0 0 0 0 0 0 0 0 0 0 0 0 127 0" result="hardAlpha"/>
<feOffset dy="4"/>
<feGaussianBlur stdDeviation="2"/>
<feComposite in2="hardAlpha" operator="out"/>
<feColorMatrix type="matrix" values="0 0 0 0 0 0 0 0 0 0 0 0 0 0 0 0 0 0 0.25 0"/>
<feBlend mode="normal" in2="BackgroundImageFix" result="effect1_dropShadow_219_1588"/>
<feBlend mode="normal" in="SourceGraphic" in2="effect1_dropShadow_219_1588" result="shape"/>
</filter>
<linearGradient id="paint0_linear_219_1588" x1="12" y1="14" x2="12" y2="34" gradientUnits="userSpaceOnUse">
<stop stop-color="#72C2F5"/>
<stop offset="1" stop-color="#4CA6E0"/>
</linearGradient>
</defs>
</svg>
