<svg width="22" height="21" viewBox="0 0 22 21" fill="none" xmlns="http://www.w3.org/2000/svg">
<path fill-rule="evenodd" clip-rule="evenodd" d="M9.84929 0C13.9977 0 17.5467 2.56488 18.9981 6.1949H14.8859C14.0614 6.1949 13.3904 6.86515 13.3904 7.68973V14.4346H13.0697C12.4685 14.4346 11.9341 14.7862 11.696 15.3389C11.46 15.8881 11.5729 16.5239 11.9841 16.9581L13.7988 18.875C12.5901 19.4047 11.2542 19.6996 9.84935 19.6996C4.40934 19.6996 0 15.2894 0 9.85024C0 4.41023 4.41014 0.000885707 9.84935 0.000885707L9.84929 0ZM12.7482 16.2339L16.9917 20.7157C17.0783 20.8071 17.1872 20.8536 17.313 20.8536C17.4388 20.8536 17.5476 20.8069 17.6343 20.7157L21.8777 16.2339C22.0015 16.1027 22.0339 15.9208 21.963 15.7544C21.8913 15.5886 21.7372 15.4865 21.5564 15.4865H20.1833V7.68928C20.1833 7.44582 19.9846 7.24689 19.741 7.24689H14.8851C14.6409 7.24689 14.4428 7.44568 14.4428 7.68928V15.4865H13.0697C12.8891 15.4865 12.7348 15.588 12.6631 15.7544C12.5914 15.9208 12.6246 16.1027 12.7484 16.2339H12.7482ZM5.64303 9.84935C5.64303 10.542 4.59058 10.542 4.59058 9.84935C4.59058 6.94491 6.94502 4.58971 9.85022 4.58971C10.5428 4.58971 10.5428 5.64216 9.85022 5.64216C7.5269 5.64216 5.64379 7.52527 5.64379 9.84858L5.64303 9.84935ZM3.05926 9.84935C3.05926 10.542 2.00681 10.542 2.00681 9.84935C2.00681 5.51771 5.51862 2.00578 9.85038 2.00578C10.543 2.00578 10.543 3.05823 9.85038 3.05823C6.09987 3.05823 3.05963 6.09791 3.05963 9.84899L3.05926 9.84935ZM9.85002 7.62338C11.0791 7.62338 12.076 8.61967 12.076 9.84935C12.076 11.0784 11.0797 12.0753 9.85002 12.0753C8.62098 12.0753 7.62405 11.079 7.62405 9.84935C7.62405 8.61967 8.62034 7.62338 9.85002 7.62338Z" fill="white"/>
</svg>
