<svg width="60" height="60" viewBox="0 0 60 60" fill="none" xmlns="http://www.w3.org/2000/svg">
<circle cx="30" cy="30" r="30" fill="#121C23"/>
<g filter="url(#filter0_d_215_9491)">
<path fill-rule="evenodd" clip-rule="evenodd" d="M35.1277 18H24.3571C20.8518 18 18 20.8518 18 24.3571V35.1279C18 38.6331 20.8518 41.4849 24.3571 41.4849H35.1279C38.6331 41.4849 41.4849 38.6331 41.4849 35.1279V24.3571C41.4849 20.8518 38.6331 18 35.1277 18ZM29.7424 36.1639C26.2015 36.1639 23.3209 33.2833 23.3209 29.7424C23.3209 26.2016 26.2015 23.321 29.7424 23.321C33.2833 23.321 36.1639 26.2016 36.1639 29.7424C36.1639 33.2833 33.2833 36.1639 29.7424 36.1639ZM34.42 22.9379C34.42 23.9843 35.2711 24.8354 36.3175 24.8354C37.3639 24.8354 38.2151 23.9843 38.2151 22.9379C38.2151 21.8915 37.3639 21.0402 36.3175 21.0402C35.2711 21.0402 34.42 21.8915 34.42 22.9379Z" fill="url(#paint0_linear_215_9491)"/>
<path d="M29.7424 24.6978C26.9609 24.6978 24.6978 26.9607 24.6978 29.7424C24.6978 32.524 26.9609 34.7871 29.7424 34.7871C32.5241 34.7871 34.7871 32.524 34.7871 29.7424C34.7871 26.9607 32.5241 24.6978 29.7424 24.6978Z" fill="url(#paint1_linear_215_9491)"/>
</g>
<defs>
<filter id="filter0_d_215_9491" x="14" y="18" width="31.4849" height="31.4849" filterUnits="userSpaceOnUse" color-interpolation-filters="sRGB">
<feFlood flood-opacity="0" result="BackgroundImageFix"/>
<feColorMatrix in="SourceAlpha" type="matrix" values="0 0 0 0 0 0 0 0 0 0 0 0 0 0 0 0 0 0 127 0" result="hardAlpha"/>
<feOffset dy="4"/>
<feGaussianBlur stdDeviation="2"/>
<feComposite in2="hardAlpha" operator="out"/>
<feColorMatrix type="matrix" values="0 0 0 0 0 0 0 0 0 0 0 0 0 0 0 0 0 0 0.25 0"/>
<feBlend mode="normal" in2="BackgroundImageFix" result="effect1_dropShadow_215_9491"/>
<feBlend mode="normal" in="SourceGraphic" in2="effect1_dropShadow_215_9491" result="shape"/>
</filter>
<linearGradient id="paint0_linear_215_9491" x1="18" y1="18" x2="18" y2="41.4849" gradientUnits="userSpaceOnUse">
<stop stop-color="#72C2F5"/>
<stop offset="1" stop-color="#4CA6E0"/>
</linearGradient>
<linearGradient id="paint1_linear_215_9491" x1="24.6978" y1="24.6978" x2="24.6978" y2="34.7871" gradientUnits="userSpaceOnUse">
<stop stop-color="#72C2F5"/>
<stop offset="1" stop-color="#4CA6E0"/>
</linearGradient>
</defs>
</svg>
