<svg width="20" height="22" viewBox="0 0 20 22" fill="none" xmlns="http://www.w3.org/2000/svg">
<path d="M11.7591 13.2927H7.66886C5.63505 13.2927 3.68442 14.1007 2.24626 15.539C0.808 16.9772 0 18.9278 0 20.9616C0 21.0971 0.0539236 21.2272 0.149785 21.3231C0.245647 21.419 0.375743 21.4729 0.511321 21.4729H18.9168C19.0524 21.4729 19.1825 21.419 19.2783 21.3231C19.3742 21.2272 19.4281 21.0971 19.4281 20.9616C19.4281 19.6154 19.0738 18.293 18.4007 17.1271C17.7276 15.9613 16.7594 14.9932 15.5936 14.32C14.4277 13.647 13.1054 13.2926 11.7592 13.2926L11.7591 13.2927Z" fill="white"/>
<path d="M15.3376 5.62375C15.3376 8.72985 12.8197 11.2479 9.71383 11.2479C6.608 11.2479 4.09009 8.73002 4.09009 5.62375C4.09009 2.51782 6.608 0 9.71383 0C12.8197 0 15.3376 2.51791 15.3376 5.62375Z" fill="white"/>
</svg>
