<svg width="48" height="48" viewBox="0 0 48 48" fill="none" xmlns="http://www.w3.org/2000/svg">
<circle cx="24" cy="24" r="20" fill="#253D4C"/>
<g filter="url(#filter0_d_208_1558)">
<path fill-rule="evenodd" clip-rule="evenodd" d="M18.7747 14.2839C18.7747 15.529 17.8267 16.5366 16.3442 16.5366C14.9194 16.5366 13.9713 15.529 14.0007 14.2839C13.9713 12.9783 14.9193 12 16.3726 12C17.8267 12 18.7463 12.9783 18.7747 14.2839ZM14.1199 32.8191V18.3162H18.6271V32.8181H14.1199V32.8191Z" fill="url(#paint0_linear_208_1558)"/>
<path fill-rule="evenodd" clip-rule="evenodd" d="M22.2397 22.9446C22.2397 21.1357 22.1801 19.5935 22.1205 18.3182H26.0355L26.2436 20.305H26.3326C26.9258 19.3854 28.4084 17.9927 30.8105 17.9927C33.7757 17.9927 36 19.9502 36 24.219V32.821H31.4927V24.7838C31.4927 22.9144 30.8408 21.6399 29.2097 21.6399C27.9637 21.6399 27.2229 22.4999 26.9267 23.3297C26.8075 23.6268 26.7489 24.0412 26.7489 24.4574V32.821H22.2416V22.9446H22.2397Z" fill="url(#paint1_linear_208_1558)"/>
</g>
<defs>
<filter id="filter0_d_208_1558" x="10" y="12" width="29.9999" height="28.8208" filterUnits="userSpaceOnUse" color-interpolation-filters="sRGB">
<feFlood flood-opacity="0" result="BackgroundImageFix"/>
<feColorMatrix in="SourceAlpha" type="matrix" values="0 0 0 0 0 0 0 0 0 0 0 0 0 0 0 0 0 0 127 0" result="hardAlpha"/>
<feOffset dy="4"/>
<feGaussianBlur stdDeviation="2"/>
<feComposite in2="hardAlpha" operator="out"/>
<feColorMatrix type="matrix" values="0 0 0 0 0 0 0 0 0 0 0 0 0 0 0 0 0 0 0.25 0"/>
<feBlend mode="normal" in2="BackgroundImageFix" result="effect1_dropShadow_208_1558"/>
<feBlend mode="normal" in="SourceGraphic" in2="effect1_dropShadow_208_1558" result="shape"/>
</filter>
<linearGradient id="paint0_linear_208_1558" x1="14" y1="12" x2="14" y2="32.8191" gradientUnits="userSpaceOnUse">
<stop stop-color="#72C2F5"/>
<stop offset="1" stop-color="#4CA6E0"/>
</linearGradient>
<linearGradient id="paint1_linear_208_1558" x1="22.1205" y1="17.9927" x2="22.1205" y2="32.821" gradientUnits="userSpaceOnUse">
<stop stop-color="#72C2F5"/>
<stop offset="1" stop-color="#4CA6E0"/>
</linearGradient>
</defs>
</svg>
