<?xml version="1.0" encoding="utf-8"?>
<!-- Generator: Adobe Illustrator 26.2.1, SVG Export Plug-In . SVG Version: 6.00 Build 0)  -->
<svg version="1.1" id="Layer_1" xmlns="http://www.w3.org/2000/svg" xmlns:xlink="http://www.w3.org/1999/xlink" x="0px" y="0px"
	 viewBox="0 0 60 60" style="enable-background:new 0 0 60 60;" xml:space="preserve">
<style type="text/css">
	.st0{fill:#253D4C;}
	.st1{fill:url(#SVGID_1_);}
</style>
<circle class="st0" cx="30" cy="30" r="30"/>
<g>
	
		<linearGradient id="SVGID_1_" gradientUnits="userSpaceOnUse" x1="30" y1="44.8462" x2="30" y2="17.86" gradientTransform="matrix(1 0 0 -1 0 62)">
		<stop  offset="0" style="stop-color:#72C2F5"/>
		<stop  offset="1" style="stop-color:#4CA6E0"/>
	</linearGradient>
	<path class="st1" d="M46.6,20.3c-1.2,0.5-2.6,0.9-3.9,1.1c1.4-0.8,2.5-2.2,3-3.8c-1.3,0.8-2.8,1.3-4.3,1.6c-1.2-1.3-3-2.2-5-2.2
		c-3.8,0-6.8,3.1-6.8,6.8c0,0.5,0,1.1,0.2,1.6c-5.7-0.3-10.7-3-14-7.1c-0.6,1-0.9,2.2-0.9,3.4c0,2.4,1.2,4.4,3,5.7
		c-1.1,0-2.2-0.3-3.1-0.8c0,0,0,0,0,0.1c0,3.3,2.4,6.1,5.5,6.7c-0.6,0.2-1.2,0.2-1.8,0.2c-0.4,0-0.9,0-1.3-0.1
		c0.9,2.7,3.4,4.7,6.4,4.7c-2.3,1.8-5.3,2.9-8.4,2.9c-0.6,0-1.1,0-1.6-0.1c3,1.9,6.6,3.1,10.4,3.1c12.5,0,19.4-10.4,19.4-19.4
		c0-0.3,0-0.6,0-0.9C44.5,22.9,45.7,21.7,46.6,20.3z"/>
</g>
</svg>
