<svg width="48" height="48" viewBox="0 0 48 48" fill="none" xmlns="http://www.w3.org/2000/svg">
<circle cx="24" cy="24" r="20" fill="#253D4C"/>
<g filter="url(#filter0_d_219_1591)">
<path fill-rule="evenodd" clip-rule="evenodd" d="M13.4436 22.7489C19.0808 20.2087 22.8397 18.534 24.7206 17.7249C30.0907 15.4147 31.2065 15.0134 31.9338 15.0001C32.0938 14.9972 32.4514 15.0382 32.6831 15.2327C32.8787 15.3968 32.9326 15.6186 32.9583 15.7743C32.9841 15.93 33.0162 16.2846 32.9907 16.5616C32.6997 19.7241 31.4405 27.3986 30.7999 30.9406C30.5288 32.4394 29.9951 32.9419 29.4784 32.9911C28.3554 33.098 27.5027 32.2235 26.4151 31.4861C24.7132 30.3323 23.7517 29.614 22.0997 28.488C20.1906 27.1868 21.4282 26.4716 22.5162 25.3027C22.801 24.9969 27.7486 20.3423 27.8444 19.92C27.8564 19.8672 27.8675 19.6704 27.7544 19.5664C27.6414 19.4625 27.4745 19.498 27.3541 19.5263C27.1834 19.5664 24.4646 21.425 19.1976 25.1022C18.4259 25.6503 17.7269 25.9174 17.1006 25.9034C16.4102 25.888 15.082 25.4996 14.0947 25.1677C12.8837 24.7606 11.9213 24.5453 12.0051 23.8539C12.0487 23.4937 12.5283 23.1254 13.4436 22.7489Z" fill="url(#paint0_linear_219_1591)"/>
</g>
<defs>
<filter id="filter0_d_219_1591" x="8" y="15" width="29" height="26" filterUnits="userSpaceOnUse" color-interpolation-filters="sRGB">
<feFlood flood-opacity="0" result="BackgroundImageFix"/>
<feColorMatrix in="SourceAlpha" type="matrix" values="0 0 0 0 0 0 0 0 0 0 0 0 0 0 0 0 0 0 127 0" result="hardAlpha"/>
<feOffset dy="4"/>
<feGaussianBlur stdDeviation="2"/>
<feComposite in2="hardAlpha" operator="out"/>
<feColorMatrix type="matrix" values="0 0 0 0 0 0 0 0 0 0 0 0 0 0 0 0 0 0 0.25 0"/>
<feBlend mode="normal" in2="BackgroundImageFix" result="effect1_dropShadow_219_1591"/>
<feBlend mode="normal" in="SourceGraphic" in2="effect1_dropShadow_219_1591" result="shape"/>
</filter>
<linearGradient id="paint0_linear_219_1591" x1="12" y1="15" x2="12" y2="33" gradientUnits="userSpaceOnUse">
<stop stop-color="#72C2F5"/>
<stop offset="1" stop-color="#4CA6E0"/>
</linearGradient>
</defs>
</svg>
