<svg width="23" height="23" viewBox="0 0 23 23" fill="none" xmlns="http://www.w3.org/2000/svg">
<path d="M11.5 0C10.6643 0 9.98684 0.677408 9.98684 1.51316V9.98684H1.51316C0.677408 9.98684 0 10.6643 0 11.5C0 12.3357 0.677408 13.0132 1.51316 13.0132H9.98684V21.4868C9.98684 22.3226 10.6643 23 11.5 23C12.3357 23 13.0132 22.3226 13.0132 21.4868V13.0132H21.4868C22.3226 13.0132 23 12.3357 23 11.5C23 10.6643 22.3226 9.98684 21.4868 9.98684H13.0132V1.51316C13.0132 0.677408 12.3357 0 11.5 0Z" fill="white"/>
</svg>
