<svg width="21" height="23" viewBox="0 0 21 23" fill="none" xmlns="http://www.w3.org/2000/svg">
<path fill-rule="evenodd" clip-rule="evenodd" d="M20.596 1.94914C20.8191 1.94914 21 2.12372 21 2.33908C21 2.55417 20.8191 2.72875 20.596 2.72875H19.9723C19.8622 2.72875 19.7695 2.81876 19.7653 2.92236L19.0425 21.0683C18.9999 22.1369 18.0689 23 16.9616 23H4.03842C2.92964 23 2 22.1372 1.95752 21.0683L1.2347 2.92236C1.23048 2.81549 1.13893 2.72875 1.02765 2.72875H0.403964C0.180852 2.72875 0 2.55418 0 2.33908C0 2.12372 0.180852 1.94914 0.403964 1.94914H5.98248C6.09601 1.94914 6.22109 1.86974 6.26334 1.76804L6.51885 1.15104C6.78731 0.503319 7.55775 0 8.2789 0H12.7214C13.4448 0 14.2122 0.501426 14.4814 1.15104L14.8122 1.94915L20.596 1.94914ZM10 7.38899V20.611C10 20.8258 10.2238 21 10.5 21C10.7762 21 11 20.8258 11 20.611V7.38899C11 7.17415 10.7762 7 10.5 7C10.2238 7 10 7.17415 10 7.38899ZM6.33354 20.6225L6.00014 7.40031C5.9948 7.18546 6.13964 7.00642 6.32354 7.00018C6.50767 6.99367 6.66111 7.16268 6.66646 7.37725L6.99986 20.5997C7.0052 20.8143 6.8606 20.9936 6.67646 20.9998C6.49256 21.0061 6.33888 20.8373 6.33354 20.6225ZM14.3335 7.37751L14.0001 20.5997C13.9948 20.8143 14.1394 20.9936 14.3235 20.9998C14.5074 21.0061 14.6611 20.8373 14.6665 20.6225L14.9999 7.4003C15.0052 7.18545 14.8604 7.00642 14.6765 7.00018C14.4923 6.99367 14.3389 7.16267 14.3335 7.37724V7.37751ZM12.8583 3H6.14202H6.14194C6.02849 3 5.97045 2.93211 6.01507 2.84306L6.15449 2.56522C6.30561 2.26459 6.79556 2 7.20038 2H11.7998C12.2067 2 12.6938 2.26296 12.8457 2.56522L12.9852 2.84306C13.0286 2.92978 12.9738 3 12.8583 3Z" fill="white"/>
</svg>
