<?xml version="1.0" encoding="UTF-8"?><svg id="a" xmlns="http://www.w3.org/2000/svg" viewBox="0 0 391.45 388.55"><defs><style>.b{fill:#fff;}</style></defs><path class="b" d="M339.9,207.67c-5.43-6.15-14.89-6.83-21.17-1.52l-94.09,79.56c-6.27,5.31-6.97,14.6-1.56,20.74,2.97,3.37,7.16,5.1,11.37,5.1,3.48,0,6.96-1.17,9.8-3.57l94.09-79.56c6.27-5.31,6.97-14.6,1.56-20.74Z"/><path class="b" d="M204.5,272.6l33.09-27.18,17.44-14.31,31.12-25.57,103.91-85.31-2.15-104.09-107.04-.72-76.37,91.84-34.87,41.94-14.31,17.26-32.46,39.08-11.54,13.86c-1.52,1.88-4.38,1.97-6.08,.18l-11.89-12.52c-4.47-4.65-11.89-4.83-16.54-.36l-2.86,2.86c-4.65,4.38-4.83,11.71-.45,16.36l101.85,107.93c4.38,4.65,11.71,4.83,16.36,.54l3.93-3.58c4.74-4.38,5.01-11.62,.81-16.36l-15.38-17.08c-1.52-1.79-1.34-4.38,.45-5.9l22.98-18.87Zm-33.09-27.18l-14.58,13.95c-2.15,2.06-4.92,3.13-7.78,3.13s-5.81-1.16-8.05-3.49c-4.29-4.38-4.11-11.45,.36-15.74l12.61-12.16,34.43-33,16.1-15.47,34.87-33.44,90.94-87.36c4.47-4.29,11.54-4.11,15.83,.36,4.29,4.47,4.11,11.54-.36,15.74l-92.1,88.53-33.09,31.65-16.1,15.47-33.09,31.83Z"/><path class="b" d="M17.23,318.78c-12.16,12.16-12.16,31.88,0,44.04l8.36,8.36c12.16,12.16,31.88,12.16,44.04,0l54.03-54.03-51.24-53.07-55.19,54.7Z"/><path class="b" d="M138.09,158.5L45.99,69.98c-4.47-4.2-4.65-11.27-.36-15.74,4.29-4.47,11.36-4.65,15.83-.36l90.94,87.36,34.87-41.94L110.91,7.47,3.87,8.19,1.72,112.27l103.91,85.31,32.46-39.08Z"/><path class="b" d="M322.98,264.08l-54.28,49.04,57.07,58.07c12.16,12.16,31.88,12.16,44.04,0l8.36-8.36c12.16-12.16,12.16-31.88,0-44.04l-55.19-54.7Z"/></svg>