<svg width="41" height="32" viewBox="0 0 41 32" fill="none" xmlns="http://www.w3.org/2000/svg">
<path fill-rule="evenodd" clip-rule="evenodd" d="M26.1302 16.557C25.7999 16.3625 25.5583 16.041 25.4597 15.6645L24.0495 10.2902C23.8435 9.50617 24.2994 8.70019 25.0673 8.49058L30.3313 7.04992C30.6946 6.95085 31.0815 7.00038 31.4092 7.18834L40.2659 12.2691C40.957 12.6657 41.2037 13.5586 40.8175 14.2655L37.0074 21.2458C36.8197 21.5893 36.5049 21.8422 36.1331 21.9468C35.7614 22.0518 35.3643 22 35.0305 21.8032L26.1302 16.557ZM28.0859 14.3163L27.2024 10.9491L30.5101 10.0441L37.6048 14.114L35.2041 18.5121L28.0859 14.3163Z" fill="white"/>
<path fill-rule="evenodd" clip-rule="evenodd" d="M5 10.5C5 4.70481 9.70547 0 15.5 0C21.2952 0 26 4.70481 26 10.5C26 16.2952 21.2948 21 15.5 21C9.70506 21 5 16.2952 5 10.5ZM23.1031 10.4996C23.1031 6.30331 19.6963 2.89644 15.5 2.89644C11.3041 2.89644 7.89685 6.30331 7.89685 10.4996C7.89685 14.6959 11.3041 18.1027 15.5 18.1027C19.6963 18.1027 23.1031 14.6959 23.1031 10.4996Z" fill="white"/>
<path d="M9.75426 19.1473C5.67807 21.349 2.90902 25.6348 2.90902 30.5575C2.90902 31.3544 2.25806 32 1.45451 32C0.650955 32 0 31.3544 0 30.5575C0 24.1585 3.82718 18.6395 9.33295 16.1313C9.86022 15.8918 10.48 15.9855 10.9111 16.3676C12.2617 17.5667 14.0455 18.2969 16 18.2969C17.9545 18.2969 19.7383 17.5667 21.0889 16.3676C21.52 15.9855 22.1399 15.8918 22.667 16.1313C28.1724 18.6395 32 24.1589 32 30.5575C32 31.3544 31.349 32 30.5455 32C29.7419 32 29.091 31.3544 29.091 30.5575C29.091 25.6351 26.3219 21.3497 22.2457 19.1473C20.4984 20.4259 18.3368 21.1812 16.0004 21.1812C13.6641 21.1812 11.5025 20.4259 9.75509 19.1473H9.75426Z" fill="white"/>
</svg>
