<svg width="382" height="337" viewBox="0 0 382 337" fill="none" xmlns="http://www.w3.org/2000/svg">
<path fill-rule="evenodd" clip-rule="evenodd" d="M73.252 277.285L57.0732 310.991C53.9258 317.283 55.2769 324.922 59.7692 330.314C63.3649 333.91 67.857 336.157 72.8005 336.157C74.5968 336.157 76.8445 335.709 78.6438 335.258L156.394 307.398C167.63 309.194 179.314 310.094 191 310.094C296.162 310.094 382 240.434 382 155.047C381.997 69.6588 296.162 0 191 0C85.8376 0 0 69.6596 0 155.047C0 202.683 27.413 248.073 73.252 277.285ZM190.998 26.9619C281.329 26.9619 355.033 84.4866 355.033 155.044C355.036 225.6 281.332 283.127 190.998 283.127C179.762 283.127 168.976 282.227 158.191 280.431C155.495 279.982 152.348 280.431 149.652 281.33L91.2273 302.005L101.114 280.883C105.158 272.795 102.014 262.456 93.923 257.963C51.6775 233.697 26.9599 195.047 26.9599 154.599C26.963 84.488 100.667 26.9657 190.995 26.9657L190.998 26.9619ZM278.632 123.138H103.362C95.7219 123.138 89.8786 117.294 89.8786 109.654C89.8786 102.015 95.7222 96.1713 103.362 96.1713H278.632C286.272 96.1713 292.115 102.015 292.115 109.654C292.115 117.294 286.272 123.138 278.632 123.138ZM103.362 172.572H233.691C241.331 172.572 247.174 166.729 247.174 159.089C247.174 151.449 241.331 145.606 233.691 145.606H103.362C95.7222 145.606 89.8786 151.449 89.8786 159.089C89.8786 166.729 95.7219 172.572 103.362 172.572ZM188.75 222.007H103.362C95.7219 222.007 89.8786 216.167 89.8786 208.524C89.8786 200.884 95.7222 195.041 103.362 195.041H188.75C196.39 195.041 202.233 200.884 202.233 208.524C202.233 216.164 196.39 222.007 188.75 222.007Z" fill="#666666"/>
</svg>
